<?xml version="1.0" encoding="UTF-8"?>
<svg version="1.1" xmlns="http://www.w3.org/2000/svg" width="260" height="260">
<path d="M0 0 C2.53765243 2.1258917 5.0304232 4.29555097 7.5 6.5 C8.90185547 7.74910156 8.90185547 7.74910156 10.33203125 9.0234375 C33.32205403 30.81870319 47.64895111 62.6403484 48.87890625 94.17578125 C49.85655157 131.38508423 39.46616102 163.53117369 14.5 191.5 C13.25089844 192.90185547 13.25089844 192.90185547 11.9765625 194.33203125 C-9.81870319 217.32205403 -41.6403484 231.64895111 -73.17578125 232.87890625 C-110.38508423 233.85655157 -142.53117369 223.46616102 -170.5 198.5 C-171.90185547 197.25089844 -171.90185547 197.25089844 -173.33203125 195.9765625 C-196.32205403 174.18129681 -210.64895111 142.3596516 -211.87890625 110.82421875 C-212.85655157 73.61491577 -202.46616102 41.46882631 -177.5 13.5 C-176.66726562 12.56542969 -175.83453125 11.63085938 -174.9765625 10.66796875 C-129.84624302 -36.9362719 -50.57400371 -41.02020401 0 0 Z " fill="#191719" transform="translate(211.5,27.5)"/>
<path d="M0 0 C2.53765243 2.1258917 5.0304232 4.29555097 7.5 6.5 C8.90185547 7.74910156 8.90185547 7.74910156 10.33203125 9.0234375 C15.22697532 13.66399865 19.40020411 18.74060835 23.4375 24.125 C23.89874268 24.73456543 24.35998535 25.34413086 24.83520508 25.97216797 C27.53412985 29.69513334 29.31147111 33.241376 30.80444336 37.58447266 C31.86161186 40.49586053 33.34891774 43.1497089 34.8125 45.875 C37.65729705 51.36753541 39.86569086 56.94338018 41.8125 62.8125 C42.05460205 63.54065918 42.2967041 64.26881836 42.54614258 65.01904297 C43.23634915 67.16976073 43.87746323 69.32879777 44.5 71.5 C44.69867676 72.1496875 44.89735352 72.799375 45.10205078 73.46875 C47.15450403 81.11764411 46.80577489 89.02033801 46.75 96.875 C46.74723053 97.62923248 46.74446106 98.38346497 46.74160767 99.16055298 C46.70334902 108.02372843 46.5811849 116.86190567 45.6875 125.6875 C45.61756836 126.40276855 45.54763672 127.11803711 45.47558594 127.85498047 C44.90743084 132.49189564 43.43162409 136.2721085 41.5 140.5 C40.90428432 142.30185608 40.33715868 144.11368648 39.8125 145.9375 C39.56113281 146.80246094 39.30976563 147.66742188 39.05078125 148.55859375 C38.86902344 149.19925781 38.68726563 149.83992187 38.5 150.5 C37.84 150.5 37.18 150.5 36.5 150.5 C36.17 152.81 35.84 155.12 35.5 157.5 C34.84 157.5 34.18 157.5 33.5 157.5 C33.40332031 158.37398437 33.30664062 159.24796875 33.20703125 160.1484375 C32.43767763 163.79542869 31.22678291 166.02459129 29.1875 169.125 C28.59324219 170.04539063 27.99898437 170.96578125 27.38671875 171.9140625 C25.59435315 174.37067953 23.66998777 176.38090747 21.5 178.5 C21.17 179.16 20.84 179.82 20.5 180.5 C19.84 180.5 19.18 180.5 18.5 180.5 C18.5 181.49 18.5 182.48 18.5 183.5 C17.51 183.5 16.52 183.5 15.5 183.5 C15.38398438 184.09425781 15.26796875 184.68851563 15.1484375 185.30078125 C12.83758146 193.13820264 3.58540957 198.70785069 -2.5 203.5 C-3.35851562 204.1909375 -4.21703125 204.881875 -5.1015625 205.59375 C-12.54919197 211.51303857 -20.29580138 215.33617037 -29.0234375 218.984375 C-32.52491892 220.38952418 -32.52491892 220.38952418 -35.5 222.5 C-36.49 222.5 -37.48 222.5 -38.5 222.5 C-38.69456705 220.54235617 -38.88044247 218.58384679 -39.0625 216.625 C-39.16691406 215.53445312 -39.27132812 214.44390625 -39.37890625 213.3203125 C-39.5 210.5 -39.5 210.5 -38.5 208.5 C-36.52 208.17 -34.54 207.84 -32.5 207.5 C-32.5 199.91 -32.5 192.32 -32.5 184.5 C-31.51 184.5 -30.52 184.5 -29.5 184.5 C-29.5 191.43 -29.5 198.36 -29.5 205.5 C-20.80220515 200.72474008 -13.03780197 195.99491869 -5.5 189.5 C-4.81550781 188.94828125 -4.13101563 188.3965625 -3.42578125 187.828125 C16.04089137 171.76525172 26.18536206 148.26987404 32.5 124.5 C32.79910278 123.37706543 32.79910278 123.37706543 33.10424805 122.23144531 C34.46271665 116.70075356 34.84992592 111.435486 34.8125 105.75 C34.80512817 104.39624268 34.80512817 104.39624268 34.79760742 103.01513672 C34.32346393 74.9312527 25.87982846 47.41902061 6.5 26.5 C5.80648437 25.66726562 5.11296875 24.83453125 4.3984375 23.9765625 C-13.26663243 3.09966167 -38.3778924 -7.01522711 -64.5 -12.5 C-65.31581543 -12.68030762 -66.13163086 -12.86061523 -66.97216797 -13.04638672 C-95.11558216 -18.09665363 -123.9774317 -8.39330114 -147.5 6.5 C-151.01900817 8.98742075 -154.27681036 11.64431422 -157.5 14.5 C-158.17933594 15.04914062 -158.85867187 15.59828125 -159.55859375 16.1640625 C-165.36337532 20.93914598 -169.93103357 26.55703279 -174.5 32.5 C-175.41265625 33.67175781 -175.41265625 33.67175781 -176.34375 34.8671875 C-194.26987765 59.06745983 -200.59826843 89.38049748 -197.02734375 119.01171875 C-191.80888226 150.41623249 -175.00714294 177.54752598 -149.3125 196.28320312 C-147.49479773 197.50349247 -145.65256675 198.55328203 -143.71875 199.578125 C-140.4093237 201.33715367 -137.32755566 202.99887759 -134.5 205.5 C-133.43144356 209.38190553 -133.65905567 212.58996824 -134.5 216.5 C-136.19921875 217.16796875 -136.19921875 217.16796875 -138.5 217.5 C-140.83203125 216.42578125 -140.83203125 216.42578125 -143.3125 214.8125 C-146.14388379 212.99843376 -148.95017675 211.24949842 -151.890625 209.61328125 C-155.64062459 207.48826449 -159.03263898 205.00976042 -162.4375 202.375 C-163.02595703 201.93285156 -163.61441406 201.49070313 -164.22070312 201.03515625 C-165.68748243 199.90738866 -167.09938209 198.7089544 -168.5 197.5 C-168.5 196.84 -168.5 196.18 -168.5 195.5 C-169.36625 195.1596875 -169.36625 195.1596875 -170.25 194.8125 C-173.09591381 193.15238361 -174.49841921 191.10812043 -176.5 188.5 C-177.25539062 187.7678125 -178.01078125 187.035625 -178.7890625 186.28125 C-181.8409752 183.15018106 -184.37919751 179.84802552 -186.9375 176.3125 C-187.41687012 175.65338623 -187.89624023 174.99427246 -188.39013672 174.31518555 C-198.25911834 160.6078953 -198.25911834 160.6078953 -199.5 154.5 C-200.16 154.5 -200.82 154.5 -201.5 154.5 C-215.21443793 121.76820814 -215.8403847 85.19760036 -202.53125 52.16015625 C-196.35145263 37.61391076 -188.00003987 25.2628734 -177.5 13.5 C-176.66726562 12.56542969 -175.83453125 11.63085938 -174.9765625 10.66796875 C-129.84624302 -36.9362719 -50.57400371 -41.02020401 0 0 Z " fill="#6D2D98" transform="translate(211.5,27.5)"/>
<path d="M0 0 C9.55881598 8.01993539 13.72434031 25.43290973 17 37 C17.34160156 38.17820313 17.68320312 39.35640625 18.03515625 40.5703125 C25.74412888 73.19898736 18.69005639 109.12102497 1.8046875 137.63671875 C-2.76847656 144.97440467 -8.25247557 151.56122424 -14 158 C-15.24910156 159.40185547 -15.24910156 159.40185547 -16.5234375 160.83203125 C-38.31870319 183.82205403 -70.1403484 198.14895111 -101.67578125 199.37890625 C-138.88508423 200.35655157 -171.03117369 189.96616102 -199 165 C-200.40185547 163.75089844 -200.40185547 163.75089844 -201.83203125 162.4765625 C-211.35444688 153.44901256 -218.73761265 142.57982287 -225.25 131.25 C-225.64517822 130.57050293 -226.04035645 129.89100586 -226.44750977 129.19091797 C-227.38291721 127.50483269 -228.20211424 125.75534867 -229 124 C-228.67 123.01 -228.34 122.02 -228 121 C-227.55914062 121.89525391 -227.55914062 121.89525391 -227.109375 122.80859375 C-223.82072021 129.16854971 -220.05235872 135.02249018 -215.9375 140.875 C-215.4312207 141.60001709 -214.92494141 142.32503418 -214.40332031 143.07202148 C-211.54537298 147.08514109 -208.57126315 150.58083494 -205 154 C-204.11043699 155.07140738 -203.23339837 156.1534653 -202.375 157.25 C-198.19646402 162.19316498 -193.07819757 166.02765634 -188 170 C-186.95972656 170.83917969 -186.95972656 170.83917969 -185.8984375 171.6953125 C-179.46682269 176.75061467 -172.20209792 181.74382284 -164 183 C-164.02320313 182.31292969 -164.04640625 181.62585938 -164.0703125 180.91796875 C-164.08835937 180.01691406 -164.10640625 179.11585938 -164.125 178.1875 C-164.14820313 177.29417969 -164.17140625 176.40085938 -164.1953125 175.48046875 C-164 173 -164 173 -162 170 C-161.75902313 167.17562556 -161.6270868 164.44122826 -161.5859375 161.61328125 C-161.56657135 160.79627243 -161.5472052 159.97926361 -161.5272522 159.13749695 C-161.46749648 156.52927066 -161.42108742 153.92100014 -161.375 151.3125 C-161.3368165 149.5436006 -161.29776454 147.77471972 -161.2578125 146.00585938 C-161.16179832 141.67072341 -161.07775265 137.3355004 -161 133 C-160.67 133 -160.34 133 -160 133 C-159.67 151.15 -159.34 169.3 -159 188 C-155.7 188.99 -152.4 189.98 -149 191 C-148.67 190.34 -148.34 189.68 -148 189 C-148 189.99 -148 190.98 -148 192 C-146.02 192.33 -144.04 192.66 -142 193 C-142 183.76 -142 174.52 -142 165 C-141.67 165 -141.34 165 -141 165 C-141 155.43 -141 145.86 -141 136 C-141.33 141.61 -141.66 147.22 -142 153 C-142.33 153 -142.66 153 -143 153 C-143 140.79 -143 128.58 -143 116 C-143.99 116 -144.98 116 -146 116 C-146 121.28 -146 126.56 -146 132 C-146.66 132 -147.32 132 -148 132 C-148.33 133.65 -148.66 135.3 -149 137 C-149.33 137 -149.66 137 -150 137 C-150.04947698 133.06734104 -150.08575578 129.13480286 -150.10986328 125.2019043 C-150.12485495 123.20680382 -150.15026731 121.21179054 -150.17578125 119.21679688 C-150.18222656 117.96318359 -150.18867188 116.70957031 -150.1953125 115.41796875 C-150.20578613 114.26063232 -150.21625977 113.1032959 -150.22705078 111.91088867 C-150 109 -150 109 -148 106 C-147.69933846 103.24582682 -147.49074701 100.57354853 -147.375 97.8125 C-147.33632812 97.06291016 -147.29765625 96.31332031 -147.2578125 95.54101562 C-147.16371784 93.69440801 -147.08077681 91.8472381 -147 90 C-146.67 90 -146.34 90 -146 90 C-146 95.94 -146 101.88 -146 108 C-145.01 107.67 -144.02 107.34 -143 107 C-142.896875 105.72125 -142.79375 104.4425 -142.6875 103.125 C-142.51171875 100.9453125 -142.51171875 100.9453125 -142 99 C-141.01 98.34 -140.02 97.68 -139 97 C-139 129.34 -139 161.68 -139 195 C-138.01 195 -137.02 195 -136 195 C-136.00523682 193.84330811 -136.01047363 192.68661621 -136.01586914 191.49487305 C-136.11385897 167.53341416 -136.01181811 143.58286379 -135.5625 119.625 C-135.5330278 117.92662491 -135.5330278 117.92662491 -135.50296021 116.19393921 C-135.44632769 112.99634217 -135.38270603 109.79897201 -135.31640625 106.6015625 C-135.29968872 105.64023911 -135.28297119 104.67891571 -135.26574707 103.6884613 C-135.23583679 102.38208458 -135.23583679 102.38208458 -135.20532227 101.04931641 C-135.18977798 100.28728912 -135.1742337 99.52526184 -135.15821838 98.74014282 C-135 97 -135 97 -134 96 C-133.76346477 93.47403741 -133.57826308 90.96892793 -133.4375 88.4375 C-133.39431641 87.72658203 -133.35113281 87.01566406 -133.30664062 86.28320312 C-133.20028223 84.52238088 -133.09961154 82.7612168 -133 81 C-132.67 81 -132.34 81 -132 81 C-131.67 118.95 -131.34 156.9 -131 196 C-130.01 196.33 -129.02 196.66 -128 197 C-128 160.7 -128 124.4 -128 87 C-127.67 87 -127.34 87 -127 87 C-126.67 79.74 -126.34 72.48 -126 65 C-125.67 65 -125.34 65 -125 65 C-125 100.31 -125 135.62 -125 172 C-125.66 172 -126.32 172 -127 172 C-127 174.31 -127 176.62 -127 179 C-126.34 179 -125.68 179 -125 179 C-125 184.94 -125 190.88 -125 197 C-123.68 197 -122.36 197 -121 197 C-121 191.06 -121 185.12 -121 179 C-120.01 179 -119.02 179 -118 179 C-118 185.27 -118 191.54 -118 198 C-116.68 198 -115.36 198 -114 198 C-114.33 177.21 -114.66 156.42 -115 135 C-115.99 134.67 -116.98 134.34 -118 134 C-118 148.52 -118 163.04 -118 178 C-118.33 178 -118.66 178 -119 178 C-119.495 173.545 -119.495 173.545 -120 169 C-120.33 169 -120.66 169 -121 169 C-121 137.98 -121 106.96 -121 75 C-120.67 75 -120.34 75 -120 75 C-119.67 76.65 -119.34 78.3 -119 80 C-118.67 80 -118.34 80 -118 80 C-117.505 99.8 -117.505 99.8 -117 120 C-116.34 120 -115.68 120 -115 120 C-114.67 90.63 -114.34 61.26 -114 31 C-113.67 31 -113.34 31 -113 31 C-112.505 42.88 -112.505 42.88 -112 55 C-111.67 55 -111.34 55 -111 55 C-110.28743241 64.13613448 -109.91552115 73.2419355 -109.9375 82.40625 C-109.93949402 84.02253799 -109.93949402 84.02253799 -109.94152832 85.67147827 C-109.9946953 105.8286626 -110.25172738 125.98550296 -110.46356201 146.14147949 C-110.52486222 152.00186172 -110.58462473 157.86225964 -110.64453125 163.72265625 C-110.76154806 175.14845301 -110.88022234 186.57423187 -111 198 C-109.68 198 -108.36 198 -107 198 C-107 150.81 -107 103.62 -107 55 C-106.01 55 -105.02 55 -104 55 C-103.9845388 56.95104897 -103.9845388 56.95104897 -103.96876526 58.94151306 C-103.87121467 71.17036724 -103.7684985 83.39916844 -103.66066074 95.62793636 C-103.60538163 101.91559491 -103.5519538 108.20325805 -103.50268555 114.4909668 C-103.45511539 120.5534186 -103.40277553 126.61581182 -103.34705925 132.67819405 C-103.32660228 134.99674594 -103.30789487 137.31531392 -103.29092598 139.63389397 C-103.26695569 142.86918866 -103.23689142 146.10437144 -103.20532227 149.33959961 C-103.1995668 150.30848114 -103.19381134 151.27736267 -103.18788147 152.27560425 C-103.17809265 153.15205093 -103.16830383 154.02849762 -103.15821838 154.9315033 C-103.15176583 155.69751327 -103.14531328 156.46352324 -103.1386652 157.25274563 C-103.18791623 159.02840014 -103.18791623 159.02840014 -102 160 C-101.98303235 162.74094208 -102.02904816 165.45347432 -102.12109375 168.19140625 C-102.14470474 169.01124496 -102.16831573 169.83108368 -102.19264221 170.67576599 C-102.26946611 173.30484539 -102.35340919 175.93364395 -102.4375 178.5625 C-102.49070197 180.34048086 -102.54344248 182.1184756 -102.59570312 183.89648438 C-102.72510642 188.26450213 -102.86089665 192.63228082 -103 197 C-102.01 197 -101.02 197 -100 197 C-100 190.73 -100 184.46 -100 178 C-99.67 178 -99.34 178 -99 178 C-98.67 181.3 -98.34 184.6 -98 188 C-97.67 188 -97.34 188 -97 188 C-97 190.97 -97 193.94 -97 197 C-95.68 197 -94.36 197 -93 197 C-92.28674095 190.00399099 -91.6258645 183.00435592 -91 176 C-90.67 176 -90.34 176 -90 176 C-90 182.6 -90 189.2 -90 196 C-88.68 196 -87.36 196 -86 196 C-86 183.46 -86 170.92 -86 158 C-82.73501137 162.35331817 -82.59406503 164.49367675 -82.70703125 169.609375 C-82.71127609 170.33618469 -82.71552094 171.06299438 -82.71989441 171.81182861 C-82.7366387 174.12493504 -82.77428115 176.43715855 -82.8125 178.75 C-82.82755242 180.32160197 -82.84123985 181.89321764 -82.85351562 183.46484375 C-82.88652805 187.31023415 -82.93827944 191.15496756 -83 195 C-82.01 194.67 -81.02 194.34 -80 194 C-79.67 169.91 -79.34 145.82 -79 121 C-78.01 120.67 -77.02 120.34 -76 120 C-75.24002198 124.68151949 -74.8963944 129.11349827 -74.97827148 133.85327148 C-74.98787903 134.49802933 -74.99748657 135.14278717 -75.00738525 135.80708313 C-75.04003898 137.91187657 -75.0804959 140.01643988 -75.12109375 142.12109375 C-75.14542788 143.59081745 -75.16926972 145.06054938 -75.19264221 146.5302887 C-75.25515587 150.3788701 -75.32431322 154.22730391 -75.39489746 158.07574463 C-75.46587845 162.01071512 -75.53051663 165.94578938 -75.59570312 169.88085938 C-75.72429303 177.58735443 -75.85990815 185.29370453 -76 193 C-75.01 192.67 -74.02 192.34 -73 192 C-72.67 161.31 -72.34 130.62 -72 99 C-71.01 99.33 -70.02 99.66 -69 100 C-68.26811906 103.93126302 -67.87709235 107.64134269 -67.88647461 111.63818359 C-67.88655014 112.71885101 -67.88662567 113.79951843 -67.88670349 114.91293335 C-67.89186478 116.06314972 -67.89702606 117.21336609 -67.90234375 118.3984375 C-67.90446617 120.18358261 -67.90446617 120.18358261 -67.90663147 122.00479126 C-67.9122158 125.79488672 -67.92476549 129.58492248 -67.9375 133.375 C-67.94251702 135.9492179 -67.94707958 138.52343672 -67.95117188 141.09765625 C-67.96218011 147.39845777 -67.97890269 153.69922462 -68 160 C-67.01 160 -66.02 160 -65 160 C-64.67 157.69 -64.34 155.38 -64 153 C-63.34 153 -62.68 153 -62 153 C-62 159.93 -62 166.86 -62 174 C-63.65 174.33 -65.3 174.66 -67 175 C-67 179.62 -67 184.24 -67 189 C-58.16783671 185.31245974 -49.70665161 181.52165029 -41.55078125 176.48046875 C-39 175 -39 175 -36.23046875 173.98828125 C-35.49441406 173.66214844 -34.75835937 173.33601562 -34 173 C-33.67 172.01 -33.34 171.02 -33 170 C-31.3984375 168.60546875 -31.3984375 168.60546875 -29.375 167.1875 C-19.29781709 160.15998206 -19.29781709 160.15998206 -13 150 C-12.01 150 -11.02 150 -10 150 C-10 149.01 -10 148.02 -10 147 C-9.34 147 -8.68 147 -8 147 C-7.731875 146.195625 -7.46375 145.39125 -7.1875 144.5625 C-6.795625 143.716875 -6.40375 142.87125 -6 142 C-5.01 141.67 -4.02 141.34 -3 141 C-2.29894157 139.34750513 -1.64199649 137.67632417 -1 136 C0.24610595 133.95427557 1.54934963 131.95720605 2.87890625 129.96484375 C4.01660911 127.97089065 4.55566453 126.2416475 5 124 C5.66 124 6.32 124 7 124 C7.33 121.69 7.66 119.38 8 117 C8.66 117 9.32 117 10 117 C10.10957031 116.35933594 10.21914062 115.71867187 10.33203125 115.05859375 C10.49058594 114.19363281 10.64914063 113.32867187 10.8125 112.4375 C11.03873047 111.16712891 11.03873047 111.16712891 11.26953125 109.87109375 C12 107 12 107 13.5 103.6484375 C15.08067216 99.80378179 15.78872401 96.28498089 16.1875 92.1875 C16.26427979 91.40052734 16.34105957 90.61355469 16.42016602 89.80273438 C18.12809608 69.390795 19.54869726 47.36705881 12 28 C11.68401855 27.17419434 11.36803711 26.34838867 11.04248047 25.49755859 C8.32478139 18.50788233 5.55395242 11.55809815 1.75390625 5.078125 C0 2 0 2 0 0 Z " fill="#070B09" transform="translate(240,61)"/>
<path d="M0 0 C0.99 0 1.98 0 3 0 C3.79803911 8.3349839 4.19141959 16.61392188 4.31640625 24.984375 C4.33718735 26.16598206 4.35796844 27.34758911 4.37937927 28.56500244 C4.44411087 32.293283 4.50339987 36.02162636 4.5625 39.75 C4.6057581 42.29688117 4.64937455 44.84375628 4.69335938 47.390625 C4.79971244 53.59368603 4.90161216 59.79680778 5 66 C5.33 66 5.66 66 6 66 C6 70.95 6 75.9 6 81 C5.67 81 5.34 81 5 81 C4.67 116.97 4.34 152.94 4 190 C2.68 189.67 1.36 189.34 0 189 C-0.33 156 -0.66 123 -1 89 C-3.15443093 91.15443093 -2.24759529 96.11719025 -2.29711914 99.10961914 C-2.31677231 100.06561508 -2.33642548 101.02161102 -2.35667419 102.00657654 C-2.42080773 105.18269684 -2.47799311 108.35890346 -2.53515625 111.53515625 C-2.57814175 113.73091963 -2.62155817 115.92667462 -2.66539001 118.12242126 C-2.7798397 123.91411776 -2.88840896 129.70591038 -2.99578857 135.4977417 C-3.10629785 141.40285999 -3.22232036 147.3078696 -3.33789062 153.21289062 C-3.56401548 164.80849362 -3.78393344 176.40420553 -4 188 C-4.99 188 -5.98 188 -7 188 C-7.33 158.3 -7.66 128.6 -8 98 C-8.99 98.99 -9.98 99.98 -11 101 C-11.99 101 -12.98 101 -14 101 C-14.33 100.34 -14.66 99.68 -15 99 C-17.35709642 102.53564463 -17.30009735 104.22025255 -17.4140625 108.41796875 C-17.47207031 110.29838867 -17.47207031 110.29838867 -17.53125 112.21679688 C-17.57765625 114.18229492 -17.57765625 114.18229492 -17.625 116.1875 C-17.66319338 117.5228116 -17.70224591 118.85809892 -17.7421875 120.19335938 C-17.83659153 123.46209888 -17.92217017 126.73083064 -18 130 C-18.99 130 -19.98 130 -21 130 C-21.33 107.89 -21.66 85.78 -22 63 C-23.73400652 68.64357793 -23.73400652 68.64357793 -24.31884766 74.09936523 C-24.33871735 74.81958359 -24.35858704 75.53980194 -24.37905884 76.28184509 C-24.39061005 77.03317215 -24.40216125 77.78449921 -24.4140625 78.55859375 C-24.44311172 79.74232323 -24.44311172 79.74232323 -24.4727478 80.94996643 C-24.53204824 83.44570447 -24.5787285 85.94148989 -24.625 88.4375 C-24.66322551 90.13999296 -24.70227984 91.84246752 -24.7421875 93.54492188 C-24.83770828 97.69646341 -24.92191969 101.84809533 -25 106 C-26.485 106.495 -26.485 106.495 -28 107 C-28 74.66 -28 42.32 -28 9 C-27.01 9 -26.02 9 -25 9 C-24.34 15.6 -23.68 22.2 -23 29 C-22.34 27.68 -21.68 26.36 -21 25 C-20.01 25 -19.02 25 -18 25 C-18 26.65 -18 28.3 -18 30 C-17.01 29.67 -16.02 29.34 -15 29 C-14.01 18.605 -14.01 18.605 -13 8 C-12.34 8 -11.68 8 -11 8 C-10.26841859 16.48084956 -9.81924858 24.91541248 -9.68359375 33.42578125 C-9.66281265 34.53938522 -9.64203156 35.6529892 -9.62062073 36.80033875 C-9.55603505 40.30433914 -9.49667041 43.80840442 -9.4375 47.3125 C-9.3942279 49.71029276 -9.3506111 52.10807932 -9.30664062 54.50585938 C-9.20044924 60.33717405 -9.09852648 66.16855105 -9 72 C-8.67 72 -8.34 72 -8 72 C-7.67 65.4 -7.34 58.8 -7 52 C-7.66 52 -8.32 52 -9 52 C-8.67 49.03 -8.34 46.06 -8 43 C-6.02 42.505 -6.02 42.505 -4 42 C-4 44.33333333 -4 46.66666667 -4 49 C-3.505 49.495 -3.505 49.495 -3 50 C-2.84417697 51.34015221 -2.74955858 52.68758903 -2.68359375 54.03515625 C-2.64169922 54.84404297 -2.59980469 55.65292969 -2.55664062 56.48632812 C-2.51732422 57.33646484 -2.47800781 58.18660156 -2.4375 59.0625 C-2.39431641 59.91650391 -2.35113281 60.77050781 -2.30664062 61.65039062 C-2.20023298 63.76672037 -2.09958269 65.88333813 -2 68 C-1.34 68 -0.68 68 0 68 C0 45.56 0 23.12 0 0 Z " fill="#6D1964" transform="translate(108,68)"/>
<path d="M0 0 C0.99 0 1.98 0 3 0 C3.99286627 11.61958102 4.30706095 23.22072352 4.5625 34.875 C4.60581343 36.7382884 4.64943118 38.60156975 4.69335938 40.46484375 C4.79907425 44.97648909 4.9006959 49.48820919 5 54 C6.98 54 8.96 54 11 54 C11 103.5 11 153 11 204 C10.01 204 9.02 204 8 204 C8.00523682 202.88439697 8.01047363 201.76879395 8.01586914 200.61938477 C8.03391775 196.49520667 8.04543149 192.37103209 8.05493164 188.24682617 C8.05997218 186.45905979 8.06680454 184.67129755 8.07543945 182.88354492 C8.0875173 180.31948832 8.09323094 177.75548603 8.09765625 175.19140625 C8.10281754 174.3872377 8.10797882 173.58306915 8.11329651 172.75453186 C8.11349215 170.83598285 8.06201983 168.91754632 8 167 C7.67 166.67 7.34 166.34 7 166 C6.89267567 164.65974458 6.85321719 163.31396422 6.84178162 161.96946716 C6.8319928 161.10143463 6.82220398 160.2334021 6.81211853 159.33906555 C6.80636307 158.37953476 6.8006076 157.42000397 6.79467773 156.43139648 C6.78477814 155.42663269 6.77487854 154.4218689 6.76467896 153.38665771 C6.73295916 150.04816079 6.70826527 146.70964961 6.68359375 143.37109375 C6.66303326 141.06323363 6.64203704 138.75537736 6.62062073 136.44752502 C6.56530653 130.35986433 6.51593862 124.27216914 6.46777344 118.18444824 C6.41762648 111.9777518 6.36190498 105.77110574 6.30664062 99.56445312 C6.19894479 87.37634508 6.09752537 75.18819337 6 63 C5.67 63 5.34 63 5 63 C4.67 109.86 4.34 156.72 4 205 C2.68 205 1.36 205 0 205 C0.00138269 204.04806763 0.00138269 204.04806763 0.00279331 203.0769043 C0.02497107 187.56590992 0.04147092 172.05492114 0.05181217 156.54391479 C0.05694728 149.04261706 0.06393628 141.54132996 0.07543945 134.04003906 C0.08547204 127.49454872 0.09187363 120.94906609 0.09408849 114.40356827 C0.09538118 110.94449151 0.09837404 107.48543681 0.10573006 104.02636719 C0.16107441 83.49229114 0.16107441 83.49229114 -1 63 C-1.33 63 -1.66 63 -2 63 C-2.33 84.12 -2.66 105.24 -3 127 C-4.485 127.495 -4.485 127.495 -6 128 C-6 95.66 -6 63.32 -6 30 C-5.01 30 -4.02 30 -3 30 C-3 30.99 -3 31.98 -3 33 C-2.34 33 -1.68 33 -1 33 C-0.67 22.11 -0.34 11.22 0 0 Z " fill="#802D8A" transform="translate(129,54)"/>
<path d="M0 0 C0.33 0 0.66 0 1 0 C1.33 3.3 1.66 6.6 2 10 C2.33 10 2.66 10 3 10 C3.33 34.75 3.66 59.5 4 85 C4.66 85 5.32 85 6 85 C6.33 68.83 6.66 52.66 7 36 C7.99 36 8.98 36 10 36 C10.33 53.49 10.66 70.98 11 89 C11.66 89 12.32 89 13 89 C13.33 62.27 13.66 35.54 14 8 C14.33 8 14.66 8 15 8 C15.33 15.26 15.66 22.52 16 30 C16.33 26.04 16.66 22.08 17 18 C17.33 18 17.66 18 18 18 C18 55.95 18 93.9 18 133 C18.66 133.33 19.32 133.66 20 134 C19.01 134 18.02 134 17 134 C16.97494385 133.01080566 16.9498877 132.02161133 16.92407227 131.00244141 C16.83002213 127.33840596 16.72979571 123.67456115 16.62768555 120.01074219 C16.58432759 118.42387343 16.54265313 116.83695776 16.50268555 115.25 C16.44500368 112.97121021 16.38130362 110.69265678 16.31640625 108.4140625 C16.29969376 107.70255035 16.28298126 106.99103821 16.26576233 106.25796509 C16.20278063 102.50339183 16.20278063 102.50339183 15 99 C14.67 110.88 14.34 122.76 14 135 C12.68 135 11.36 135 10 135 C9.67 132.03 9.34 129.06 9 126 C8.34 129.3 7.68 132.6 7 136 C5.68 136 4.36 136 3 136 C2.67 134.02 2.34 132.04 2 130 C1.67 130 1.34 130 1 130 C0.25062201 121.57563316 -0.14255423 113.23998744 -0.11352539 104.78393555 C-0.11367142 103.64086945 -0.11381744 102.49780334 -0.1139679 101.32009888 C-0.11327869 97.59228528 -0.10553341 93.86452347 -0.09765625 90.13671875 C-0.09578854 87.5321302 -0.0943663 84.9275413 -0.09336853 82.32295227 C-0.09027975 76.19995575 -0.08209995 70.07697742 -0.07201904 63.95398885 C-0.06078106 56.97437895 -0.05532822 49.9947681 -0.05032361 43.01515138 C-0.03991486 28.67675789 -0.02236369 14.33837959 0 0 Z " fill="#111114" transform="translate(140,122)"/>
<path d="M0 0 C1.32 0.33 2.64 0.66 4 1 C4 22.45 4 43.9 4 66 C2.02 66.495 2.02 66.495 0 67 C-0.33 61.06 -0.66 55.12 -1 49 C-1.33 49 -1.66 49 -2 49 C-2.0292483 52.20831391 -2.04688189 55.41659307 -2.0625 58.625 C-2.07087891 59.52863281 -2.07925781 60.43226563 -2.08789062 61.36328125 C-2.10491895 66.02904289 -1.96829423 70.41013285 -1 75 C-0.67 74.01 -0.34 73.02 0 72 C0.99 72 1.98 72 3 72 C3.92172374 74.76517121 4.12375838 76.38443871 4.12025452 79.233078 C4.12162918 80.09544571 4.12300385 80.95781342 4.12442017 81.84631348 C4.12082489 82.78930298 4.11722961 83.73229248 4.11352539 84.70385742 C4.11367142 85.6991597 4.11381744 86.69446198 4.1139679 87.71992493 C4.11327032 91.01512825 4.10548511 94.31027529 4.09765625 97.60546875 C4.09579152 99.88804595 4.09436788 102.17062355 4.09336853 104.45320129 C4.08954767 110.46525169 4.07972104 116.47727798 4.06866455 122.48931885 C4.05844118 128.62243321 4.05386892 134.75555145 4.04882812 140.88867188 C4.03809841 152.92579185 4.02102714 164.96289392 4 177 C2.68 177.33 1.36 177.66 0 178 C0.00222061 177.17172195 0.00444122 176.34344391 0.00672913 175.49006653 C0.02678138 167.67735313 0.04199932 159.8646484 0.05181217 152.05191517 C0.05702667 148.03549411 0.06409828 144.01909435 0.07543945 140.00268555 C0.08631928 136.12531513 0.09228764 132.24796518 0.09487724 128.37058067 C0.09672231 126.89264288 0.10032524 125.41470618 0.10573006 123.93677711 C0.11300812 121.86383281 0.11398809 119.79097264 0.11352539 117.71801758 C0.11685631 115.94930046 0.11685631 115.94930046 0.12025452 114.14485168 C0.01163474 111.30426739 -0.34602724 108.7598529 -1 106 C-1.66 106 -2.32 106 -3 106 C-3 130.09 -3 154.18 -3 179 C-3.99 179 -4.98 179 -6 179 C-6.15402323 161.50185985 -6.30205289 144.00368063 -6.4429636 126.50543022 C-6.50853151 118.38054643 -6.57605454 110.2556877 -6.64819336 102.13085938 C-6.71107048 95.04859521 -6.77026586 87.96631144 -6.82505554 80.88397992 C-6.85418958 77.13456699 -6.88515674 73.38518957 -6.92053413 69.63582993 C-6.95997504 65.44849587 -6.99119538 61.26113895 -7.02172852 57.07373047 C-7.03467453 55.83295242 -7.04762054 54.59217438 -7.06095886 53.313797 C-7.06799835 52.16963821 -7.07503784 51.02547943 -7.08229065 49.84664917 C-7.09058679 48.85664351 -7.09888292 47.86663784 -7.10743046 46.846632 C-6.99343275 43.82598481 -6.55752884 40.96824598 -6 38 C-4.35 38.33 -2.7 38.66 -1 39 C-0.67 26.13 -0.34 13.26 0 0 Z " fill="#7833A2" transform="translate(164,76)"/>
<path d="M0 0 C0.99 0 1.98 0 3 0 C3.33 6.6 3.66 13.2 4 20 C4.66 19.67 5.32 19.34 6 19 C6 29.23 6 39.46 6 50 C5.67 50 5.34 50 5 50 C4.67 58.91 4.34 67.82 4 77 C-0.41270349 76.26454942 -3.86723372 75.46368806 -8 74 C-9.99926376 73.33112867 -11.99916788 72.66416511 -14 72 C-14.12666598 64.24057421 -14.21429555 56.48141449 -14.2746582 48.72119141 C-14.29981879 46.08079058 -14.33395063 43.4404595 -14.37719727 40.80029297 C-14.43777663 37.00731203 -14.4661953 33.21525102 -14.48828125 29.421875 C-14.52699089 27.64825592 -14.52699089 27.64825592 -14.56648254 25.83880615 C-14.56931212 17.59077973 -14.56931212 17.59077973 -11.52026367 14.42675781 C-10.68857666 13.95592773 -9.85688965 13.48509766 -9 13 C-8.11406002 9.86136296 -8.11406002 9.86136296 -8 7 C-7.67 7 -7.34 7 -7 7 C-7 11.62 -7 16.24 -7 21 C-5.68 21 -4.36 21 -3 21 C-3 19.35 -3 17.7 -3 16 C-2.34 15.67 -1.68 15.34 -1 15 C-0.68758629 12.45058627 -0.48696579 9.99638487 -0.375 7.4375 C-0.31699219 6.37112305 -0.31699219 6.37112305 -0.2578125 5.28320312 C-0.16328217 3.52257575 -0.08054183 1.76132272 0 0 Z " fill="#110C10" transform="translate(94,177)"/>
<path d="M0 0 C0.99 0 1.98 0 3 0 C3.33 37.29 3.66 74.58 4 113 C4.33 113 4.66 113 5 113 C5.33 101.78 5.66 90.56 6 79 C7.32 79.33 8.64 79.66 10 80 C10 100.79 10 121.58 10 143 C8.68 143 7.36 143 6 143 C5.67 137.06 5.34 131.12 5 125 C4.67 125 4.34 125 4 125 C3.67 130.61 3.34 136.22 3 142 C1.68 142 0.36 142 -1 142 C-1 136.06 -1 130.12 -1 124 C-1.66 124 -2.32 124 -3 124 C-3 121.69 -3 119.38 -3 117 C-2.34 117 -1.68 117 -1 117 C-1.00092179 116.45169305 -1.00184359 115.9033861 -1.00279331 115.33846378 C-1.02492551 101.96629802 -1.04138506 88.59413549 -1.05181217 75.2219553 C-1.05702464 68.75514098 -1.06409256 62.2883399 -1.07543945 55.8215332 C-1.08632649 49.57753812 -1.09228917 43.33355577 -1.09487724 37.08955193 C-1.09672101 34.71060931 -1.1003214 32.33166736 -1.10573006 29.95273018 C-1.11301767 26.6137353 -1.11398769 23.2747926 -1.11352539 19.93579102 C-1.11712067 18.95826874 -1.12071594 17.98074646 -1.12442017 16.97360229 C-1.11585702 11.23582558 -0.7350965 5.69178097 0 0 Z " fill="#4E1957" transform="translate(116,116)"/>
<path d="M0 0 C0.99 0 1.98 0 3 0 C3.79803911 8.3349839 4.19141959 16.61392188 4.31640625 24.984375 C4.33718735 26.16598206 4.35796844 27.34758911 4.37937927 28.56500244 C4.44411087 32.293283 4.50339987 36.02162636 4.5625 39.75 C4.6057581 42.29688117 4.64937455 44.84375628 4.69335938 47.390625 C4.79971244 53.59368603 4.90161216 59.79680778 5 66 C5.33 66 5.66 66 6 66 C6 70.95 6 75.9 6 81 C5.67 81 5.34 81 5 81 C4.67 116.97 4.34 152.94 4 190 C2.68 189.67 1.36 189.34 0 189 C0 126.63 0 64.26 0 0 Z " fill="#861E7F" transform="translate(108,68)"/>
<path d="M0 0 C0.99 0 1.98 0 3 0 C3 2.33333333 3 4.66666667 3 7 C3.33 7.33 3.66 7.66 4 8 C4.15582303 9.34015221 4.25044142 10.68758903 4.31640625 12.03515625 C4.37924805 13.24848633 4.37924805 13.24848633 4.44335938 14.48632812 C4.48267578 15.33646484 4.52199219 16.18660156 4.5625 17.0625 C4.60568359 17.91650391 4.64886719 18.77050781 4.69335938 19.65039062 C4.79976702 21.76672037 4.90041731 23.88333813 5 26 C5.66 26 6.32 26 7 26 C6.86181468 29.47951523 6.71317399 32.95850495 6.5625 36.4375 C6.52318359 37.43072266 6.48386719 38.42394531 6.44335938 39.44726562 C6.40146484 40.39150391 6.35957031 41.33574219 6.31640625 42.30859375 C6.26141968 43.62041626 6.26141968 43.62041626 6.20532227 44.95874023 C6 47 6 47 5 48 C4.84458659 51.04257086 4.75327436 54.0646424 4.70288086 57.10961914 C4.68322769 58.06561508 4.66357452 59.02161102 4.64332581 60.00657654 C4.57919227 63.18269684 4.52200689 66.35890346 4.46484375 69.53515625 C4.42185825 71.73091963 4.37844183 73.92667462 4.33460999 76.12242126 C4.2201603 81.91411776 4.11159104 87.70591038 4.00421143 93.4977417 C3.89370215 99.40285999 3.77767964 105.3078696 3.66210938 111.21289062 C3.43598452 122.80849362 3.21606656 134.40420553 3 146 C2.01 146 1.02 146 0 146 C-0.33 116.3 -0.66 86.6 -1 56 C-1.99 56.66 -2.98 57.32 -4 58 C-4 52.39 -4 46.78 -4 41 C-2.68 41.33 -1.36 41.66 0 42 C0 31.44 0 20.88 0 10 C-0.66 10 -1.32 10 -2 10 C-1.85950482 8.52031676 -1.71245174 7.04125484 -1.5625 5.5625 C-1.48128906 4.73878906 -1.40007812 3.91507812 -1.31640625 3.06640625 C-1 1 -1 1 0 0 Z " fill="#761A6B" transform="translate(101,110)"/>
<path d="M0 0 C0.99 0 1.98 0 3 0 C3.66 6.6 4.32 13.2 5 20 C5.66 18.68 6.32 17.36 7 16 C7.99 16 8.98 16 10 16 C10 17.65 10 19.3 10 21 C10.99 20.67 11.98 20.34 13 20 C13.0741205 25.35682133 13.12858776 30.71334462 13.16479492 36.07055664 C13.1798876 37.89320067 13.20036395 39.71580836 13.22631836 41.53833008 C13.26268103 44.157155 13.27972124 46.77550007 13.29296875 49.39453125 C13.30845261 50.21025101 13.32393646 51.02597076 13.33988953 51.8664093 C13.34057617 54.17114258 13.34057617 54.17114258 13 58 C12.01 58.99 11.02 59.98 10 61 C10 54.73 10 48.46 10 42 C8.515 42.495 8.515 42.495 7 43 C6.95101562 43.71285156 6.90203125 44.42570312 6.8515625 45.16015625 C6.77679688 46.11792969 6.70203125 47.07570312 6.625 48.0625 C6.55539063 49.00222656 6.48578125 49.94195312 6.4140625 50.91015625 C6 54 6 54 5 57.15820312 C3.89465677 61.40470727 3.65298222 65.19779343 3.5859375 69.55859375 C3.55688828 70.74232323 3.55688828 70.74232323 3.5272522 71.94996643 C3.46795176 74.44570447 3.4212715 76.94148989 3.375 79.4375 C3.33677449 81.13999296 3.29772016 82.84246752 3.2578125 84.54492188 C3.16229172 88.69646341 3.07808031 92.84809533 3 97 C1.515 97.495 1.515 97.495 0 98 C0 65.66 0 33.32 0 0 Z " fill="#231822" transform="translate(80,77)"/>
<path d="M0 0 C0.33 0 0.66 0 1 0 C1 22.11 1 44.22 1 67 C1.99 66.505 1.99 66.505 3 66 C3.01981934 64.94611084 3.03963867 63.89222168 3.06005859 62.80639648 C3.13650687 58.87192111 3.22516177 54.93779677 3.31738281 51.00366211 C3.35551129 49.30549076 3.39039146 47.60724308 3.421875 45.90893555 C3.46787822 43.45854533 3.52581151 41.00867333 3.5859375 38.55859375 C3.59748871 37.80726669 3.60903992 37.05593964 3.62094116 36.28184509 C3.75127189 31.55773595 4.56253781 27.53979757 6 23 C6.26432585 21.02753066 6.47798786 19.04716393 6.625 17.0625 C6.69976562 16.10472656 6.77453125 15.14695312 6.8515625 14.16015625 C6.90054688 13.44730469 6.94953125 12.73445313 7 12 C7.33 12 7.66 12 8 12 C8.0464521 20.22365418 8.08193437 28.44725303 8.10362434 36.6710062 C8.11403729 40.49010941 8.12815072 44.30912248 8.15087891 48.12817383 C8.17269646 51.81752845 8.18458733 55.50679667 8.18975449 59.19621086 C8.1934343 60.59993791 8.20061992 62.00366052 8.21146011 63.40735054 C8.22609284 65.38162706 8.22681792 67.35599153 8.22705078 69.33032227 C8.231492 70.45173111 8.23593323 71.57313995 8.24050903 72.72853088 C7.96784748 76.43734727 7.12992487 79.46612961 6 83 C5.34 83 4.68 83 4 83 C4 81.35 4 79.7 4 78 C3.01 78 2.02 78 1 78 C1 79.98 1 81.96 1 84 C0.34 83.67 -0.32 83.34 -1 83 C-1.33 86.96 -1.66 90.92 -2 95 C-2.33 95 -2.66 95 -3 95 C-3.04632182 84.24724529 -3.08186845 73.49451428 -3.10362434 62.74168015 C-3.11406559 57.74881213 -3.12823107 52.75601234 -3.15087891 47.76318359 C-3.17259505 42.94565408 -3.18456606 38.12819022 -3.18975449 33.31061554 C-3.19345244 31.47179379 -3.20067354 29.63297566 -3.21146011 27.79418182 C-3.22595867 25.22045601 -3.22797863 22.64700221 -3.22705078 20.07324219 C-3.23424133 19.31151199 -3.24143188 18.5497818 -3.24884033 17.76496887 C-3.23403757 13.97521809 -3.0145109 11.24414584 -1 8 C-0.55499715 5.87406942 -0.55499715 5.87406942 -0.375 3.75 C-0.25125 2.5125 -0.1275 1.275 0 0 Z " fill="#0C110F" transform="translate(79,108)"/>
<path d="M0 0 C0.33 0 0.66 0 1 0 C1.33 1.98 1.66 3.96 2 6 C2.33 5.01 2.66 4.02 3 3 C3.99 3 4.98 3 6 3 C6.92172374 5.76517121 7.12375838 7.38443871 7.12025452 10.233078 C7.12162918 11.09544571 7.12300385 11.95781342 7.12442017 12.84631348 C7.12082489 13.78930298 7.11722961 14.73229248 7.11352539 15.70385742 C7.11367142 16.6991597 7.11381744 17.69446198 7.1139679 18.71992493 C7.11327032 22.01512825 7.10548511 25.31027529 7.09765625 28.60546875 C7.09579152 30.88804595 7.09436788 33.17062355 7.09336853 35.45320129 C7.08954767 41.46525169 7.07972104 47.47727798 7.06866455 53.48931885 C7.05844118 59.62243321 7.05386892 65.75555145 7.04882812 71.88867188 C7.03809841 83.92579185 7.02102714 95.96289392 7 108 C5.02 108.495 5.02 108.495 3 109 C3.00222061 108.17172195 3.00444122 107.34344391 3.00672913 106.49006653 C3.02678138 98.67735313 3.04199932 90.8646484 3.05181217 83.05191517 C3.05702667 79.03549411 3.06409828 75.01909435 3.07543945 71.00268555 C3.08631928 67.12531513 3.09228764 63.24796518 3.09487724 59.37058067 C3.09672231 57.89264288 3.10032524 56.41470618 3.10573006 54.93677711 C3.11300812 52.86383281 3.11398809 50.79097264 3.11352539 48.71801758 C3.115746 47.53887283 3.11796661 46.35972809 3.12025452 45.14485168 C3.01163474 42.30426739 2.65397276 39.7598529 2 37 C1.34 37 0.68 37 0 37 C0 24.79 0 12.58 0 0 Z " fill="#18131F" transform="translate(161,145)"/>
<path d="M0 0 C9.55881598 8.01993539 13.72434031 25.43290973 17 37 C17.51240234 38.76730469 17.51240234 38.76730469 18.03515625 40.5703125 C25.74412888 73.19898736 18.69005639 109.12102497 1.8046875 137.63671875 C-2.76847656 144.97440467 -8.25247557 151.56122424 -14 158 C-15.24910156 159.40185547 -15.24910156 159.40185547 -16.5234375 160.83203125 C-25.5128263 170.31419385 -36.31493875 177.68618135 -47.625 184.125 C-48.28773926 184.50342041 -48.95047852 184.88184082 -49.63330078 185.27172852 C-53.0188068 187.13449412 -56.10144202 188.76073832 -60 189 C-60.66 188.34 -61.32 187.68 -62 187 C-61.09378906 186.55269531 -60.18757812 186.10539063 -59.25390625 185.64453125 C-53.03180752 182.56043034 -46.87093922 179.43622596 -40.83984375 175.98828125 C-39 175 -39 175 -36 173.875 C-35.01 173.441875 -35.01 173.441875 -34 173 C-33.67 172.01 -33.34 171.02 -33 170 C-31.3984375 168.60546875 -31.3984375 168.60546875 -29.375 167.1875 C-19.29781709 160.15998206 -19.29781709 160.15998206 -13 150 C-12.01 150 -11.02 150 -10 150 C-10 149.01 -10 148.02 -10 147 C-9.34 147 -8.68 147 -8 147 C-7.731875 146.195625 -7.46375 145.39125 -7.1875 144.5625 C-6.795625 143.716875 -6.40375 142.87125 -6 142 C-5.01 141.67 -4.02 141.34 -3 141 C-2.29894157 139.34750513 -1.64199649 137.67632417 -1 136 C0.24610595 133.95427557 1.54934963 131.95720605 2.87890625 129.96484375 C4.01660911 127.97089065 4.55566453 126.2416475 5 124 C5.66 124 6.32 124 7 124 C7.33 121.69 7.66 119.38 8 117 C8.66 117 9.32 117 10 117 C10.16435547 116.03900391 10.16435547 116.03900391 10.33203125 115.05859375 C10.56986328 113.76115234 10.56986328 113.76115234 10.8125 112.4375 C11.03873047 111.16712891 11.03873047 111.16712891 11.26953125 109.87109375 C12 107 12 107 13.5 103.6484375 C15.08067216 99.80378179 15.78872401 96.28498089 16.1875 92.1875 C16.26427979 91.40052734 16.34105957 90.61355469 16.42016602 89.80273438 C18.12809608 69.390795 19.54869726 47.36705881 12 28 C11.68401855 27.17419434 11.36803711 26.34838867 11.04248047 25.49755859 C8.32478139 18.50788233 5.55395242 11.55809815 1.75390625 5.078125 C0 2 0 2 0 0 Z " fill="#110E1F" transform="translate(240,61)"/>
<path d="M0 0 C0.33 3.3 0.66 6.6 1 10 C1.99 8.02 2.98 6.04 4 4 C4.99 4.33 5.98 4.66 7 5 C7 17.54 7 30.08 7 43 C5.68 43 4.36 43 3 43 C2.67 40.03 2.34 37.06 2 34 C1.34 37.3 0.68 40.6 0 44 C-1.32 44 -2.64 44 -4 44 C-4.33 42.02 -4.66 40.04 -5 38 C-5.33 38 -5.66 38 -6 38 C-6.79930926 30.17818798 -7.17487682 22.35885717 -7.3125 14.5 C-7.34214844 13.63987305 -7.37179688 12.77974609 -7.40234375 11.89355469 C-7.44138307 7.75050712 -7.32269163 5.54492916 -5.16796875 1.90625 C-3 0 -3 0 0 0 Z " fill="#0C0A0B" transform="translate(147,214)"/>
<path d="M0 0 C0.99 0.33 1.98 0.66 3 1 C3.73188094 4.93126302 4.12290765 8.64134269 4.11352539 12.63818359 C4.11341209 14.25918472 4.11341209 14.25918472 4.11329651 15.91293335 C4.10813522 17.06314972 4.10297394 18.21336609 4.09765625 19.3984375 C4.0962413 20.58853424 4.09482635 21.77863098 4.09336853 23.00479126 C4.0877842 26.79488672 4.07523451 30.58492248 4.0625 34.375 C4.05748298 36.9492179 4.05292042 39.52343672 4.04882812 42.09765625 C4.03781989 48.39845777 4.02109731 54.69922462 4 61 C4.99 61 5.98 61 7 61 C7.33 58.69 7.66 56.38 8 54 C8.66 54 9.32 54 10 54 C10 60.93 10 67.86 10 75 C7.525 75.495 7.525 75.495 5 76 C4.90961901 81.15171623 5.15318867 85.91913204 6 91 C4.515 91.495 4.515 91.495 3 92 C3 87.38 3 82.76 3 78 C2.34 78 1.68 78 1 78 C1 81.3 1 84.6 1 88 C0.67 88 0.34 88 0 88 C0 58.96 0 29.92 0 0 Z " fill="#080809" transform="translate(168,160)"/>
<path d="M0 0 C0.33 0 0.66 0 1 0 C1 3.3 1 6.6 1 10 C1.99 9.67 2.98 9.34 4 9 C4 43.32 4 77.64 4 113 C2.68 113 1.36 113 0 113 C0 75.71 0 38.42 0 0 Z " fill="#6A2478" transform="translate(129,146)"/>
<path d="M0 0 C0.99 0 1.98 0 3 0 C3.01030746 1.30069931 3.02061493 2.60139862 3.03123474 3.94151306 C3.12878533 16.17036724 3.2315015 28.39916844 3.33933926 40.62793636 C3.39461837 46.91559491 3.4480462 53.20325805 3.49731445 59.4909668 C3.54488461 65.5534186 3.59722447 71.61581182 3.65294075 77.67819405 C3.67339772 79.99674594 3.69210513 82.31531392 3.70907402 84.63389397 C3.73304431 87.86918866 3.76310858 91.10437144 3.79467773 94.33959961 C3.8004332 95.30848114 3.80618866 96.27736267 3.81211853 97.27560425 C3.82190735 98.15205093 3.83169617 99.02849762 3.84178162 99.9315033 C3.84823417 100.69751327 3.85468672 101.46352324 3.8613348 102.25274563 C3.81208377 104.02840014 3.81208377 104.02840014 5 105 C5.01696765 107.74094208 4.97095184 110.45347432 4.87890625 113.19140625 C4.85529526 114.01124496 4.83168427 114.83108368 4.80735779 115.67576599 C4.73053389 118.30484539 4.64659081 120.93364395 4.5625 123.5625 C4.50929803 125.34048086 4.45655752 127.1184756 4.40429688 128.89648438 C4.27489358 133.26450213 4.13910335 137.63228082 4 142 C3.67 142 3.34 142 3 142 C3 135.07 3 128.14 3 121 C2.34 121 1.68 121 1 121 C-0.22409104 118.55181792 -0.1231358 116.9790144 -0.12025452 114.24179077 C-0.12162918 113.23775711 -0.12300385 112.23372345 -0.12442017 111.19926453 C-0.12082489 110.09371719 -0.11722961 108.98816986 -0.11352539 107.84912109 C-0.11367142 106.68815414 -0.11381744 105.52718719 -0.1139679 104.33103943 C-0.11326903 100.4784867 -0.10547781 96.62598182 -0.09765625 92.7734375 C-0.09579198 90.10828571 -0.09431895 87.44313659 -0.09336853 84.77798462 C-0.09025745 78.47045915 -0.08204706 72.16295096 -0.07201904 65.85543311 C-0.06085098 58.67535645 -0.0553457 51.49527898 -0.05032361 44.3151958 C-0.03986427 29.54345502 -0.02226914 14.77172781 0 0 Z " fill="#0B0D11" transform="translate(133,116)"/>
<path d="M0 0 C0.99 0 1.98 0 3 0 C3 38.61 3 77.22 3 117 C2.01 117 1.02 117 0 117 C0 78.39 0 39.78 0 0 Z " fill="#913DC3" transform="translate(179,91)"/>
<path d="M0 0 C0.99 0 1.98 0 3 0 C3 35.64 3 71.28 3 108 C1.515 108.495 1.515 108.495 0 109 C0 73.03 0 37.06 0 0 Z " fill="#943DB3" transform="translate(144,99)"/>
<path d="M0 0 C0.99 0 1.98 0 3 0 C3 35.31 3 70.62 3 107 C2.01 107 1.02 107 0 107 C0 71.69 0 36.38 0 0 Z " fill="#9844D2" transform="translate(186,89)"/>
<path d="M0 0 C0.66 0 1.32 0 2 0 C2 29.37 2 58.74 2 89 C1.01 89 0.02 89 -1 89 C-1.02312241 77.54349984 -1.04091457 66.08700519 -1.05181217 54.63048649 C-1.05704122 49.31134787 -1.06413927 43.99222516 -1.07543945 38.6730957 C-1.08626755 33.54436015 -1.09227667 28.41563994 -1.09487724 23.28689384 C-1.09673163 21.32558386 -1.10035251 19.36427476 -1.10573006 17.40297127 C-1.11293946 14.66584553 -1.11399099 11.92878403 -1.11352539 9.19165039 C-1.11712067 8.37238068 -1.12071594 7.55311096 -1.12442017 6.70901489 C-1.11405216 1.11405216 -1.11405216 1.11405216 0 0 Z " fill="#CB1FA3" transform="translate(74,116)"/>
<path d="M0 0 C0.99 0 1.98 0 3 0 C3 28.05 3 56.1 3 85 C1.515 85.495 1.515 85.495 0 86 C0 57.62 0 29.24 0 0 Z " fill="#CD1DAE" transform="translate(80,89)"/>
<path d="M0 0 C0.99 0 1.98 0 3 0 C2.67 39.27 2.34 78.54 2 119 C1.34 119 0.68 119 0 119 C0 79.73 0 40.46 0 0 Z " fill="#C12AC4" transform="translate(116,116)"/>
<path d="M0 0 C0.99 0.33 1.98 0.66 3 1 C3 27.73 3 54.46 3 82 C1.515 82.495 1.515 82.495 0 83 C0 55.61 0 28.22 0 0 Z " fill="#883FB0" transform="translate(151,129)"/>
<path d="M0 0 C0.33 0 0.66 0 1 0 C1 5.94 1 11.88 1 18 C1.99 17.67 2.98 17.34 4 17 C4.33 14.36 4.66 11.72 5 9 C5.33 9 5.66 9 6 9 C6.76776475 13.0752634 7.11902034 16.91005447 7.09765625 21.0546875 C7.09443359 22.16328125 7.09121094 23.271875 7.08789062 24.4140625 C7.07951172 25.55617187 7.07113281 26.69828125 7.0625 27.875 C7.05798828 29.0403125 7.05347656 30.205625 7.04882812 31.40625 C7.03708781 34.27088645 7.0206657 37.13541633 7 40 C6.67 40 6.34 40 6 40 C5.67 47.59 5.34 55.18 5 63 C4.67 63 4.34 63 4 63 C4 50.79 4 38.58 4 26 C3.01 26 2.02 26 1 26 C1 31.28 1 36.56 1 42 C0.34 42 -0.32 42 -1 42 C-1.495 44.475 -1.495 44.475 -2 47 C-2.33 47 -2.66 47 -3 47 C-3.04947698 43.06734104 -3.08575578 39.13480286 -3.10986328 35.2019043 C-3.12485495 33.20680382 -3.15026731 31.21179054 -3.17578125 29.21679688 C-3.18222656 27.96318359 -3.18867187 26.70957031 -3.1953125 25.41796875 C-3.20578613 24.26063232 -3.21625977 23.1032959 -3.22705078 21.91088867 C-3 19 -3 19 -1 16 C-0.69933846 13.24582682 -0.49074701 10.57354853 -0.375 7.8125 C-0.33632812 7.06291016 -0.29765625 6.31332031 -0.2578125 5.54101562 C-0.16371784 3.69440801 -0.08077681 1.8472381 0 0 Z " fill="#151115" transform="translate(93,151)"/>
<path d="M0 0 C0.99 0 1.98 0 3 0 C3 49.5 3 99 3 150 C2.01 150 1.02 150 0 150 C0 137.46 0 124.92 0 112 C0.66 112 1.32 112 2 112 C2 79 2 46 2 12 C1.34 12 0.68 12 0 12 C0 8.04 0 4.08 0 0 Z " fill="#5A2676" transform="translate(137,108)"/>
<path d="M0 0 C0.99 0 1.98 0 3 0 C3 26.07 3 52.14 3 79 C2.01 79 1.02 79 0 79 C0 52.93 0 26.86 0 0 Z " fill="#C225A9" transform="translate(87,119)"/>
<path d="M0 0 C0.33 0 0.66 0 1 0 C1.33 3.3 1.66 6.6 2 10 C2.33 10 2.66 10 3 10 C3.02312504 19.37035938 3.04091591 28.74070901 3.05181217 38.11109066 C3.05704065 42.46168459 3.06413765 46.81225907 3.07543945 51.1628418 C3.08626959 55.35790258 3.0922771 59.55294459 3.09487724 63.74801826 C3.09673126 65.35206968 3.10035144 66.95612003 3.10573006 68.5601635 C3.11294219 70.79916515 3.11399087 73.0380883 3.11352539 75.27709961 C3.115746 76.55395126 3.11796661 77.83080292 3.12025452 79.14634705 C3 82 3 82 2 83 C1.76472227 85.34987262 1.58613583 87.70556039 1.4375 90.0625 C1.35371094 91.35285156 1.26992187 92.64320313 1.18359375 93.97265625 C1.12300781 94.97167969 1.06242188 95.97070312 1 97 C0.67 97 0.34 97 0 97 C0 64.99 0 32.98 0 0 Z " fill="#090F0D" transform="translate(140,122)"/>
<path d="M0 0 C0.99 0.33 1.98 0.66 3 1 C3.73188094 4.93126302 4.12290765 8.64134269 4.11352539 12.63818359 C4.11341209 14.25918472 4.11341209 14.25918472 4.11329651 15.91293335 C4.10813522 17.06314972 4.10297394 18.21336609 4.09765625 19.3984375 C4.0962413 20.58853424 4.09482635 21.77863098 4.09336853 23.00479126 C4.0877842 26.79488672 4.07523451 30.58492248 4.0625 34.375 C4.05748298 36.9492179 4.05292042 39.52343672 4.04882812 42.09765625 C4.03781989 48.39845777 4.02109731 54.69922462 4 61 C3.67 61 3.34 61 3 61 C2.67 55.72 2.34 50.44 2 45 C1.67 51.93 1.34 58.86 1 66 C0.67 66 0.34 66 0 66 C0 44.22 0 22.44 0 0 Z " fill="#0D0D0D" transform="translate(168,160)"/>
<path d="M0 0 C0.99 0.33 1.98 0.66 3 1 C3 29.05 3 57.1 3 86 C2.67 86 2.34 86 2 86 C1.67 77.75 1.34 69.5 1 61 C0.67 61 0.34 61 0 61 C0 40.87 0 20.74 0 0 Z " fill="#0A0E0F" transform="translate(69,117)"/>
<path d="M0 0 C2.36375437 2.99879286 4.21813713 6.09770778 6.0625 9.4375 C18.24205929 30.48890669 36.10329651 48.63698731 57.78515625 59.7734375 C60 61 60 61 62 63 C60.3671875 63.703125 60.3671875 63.703125 58 64 C34.67220738 53.23332648 16.27012345 32.1493745 3.8125 10.25 C3.23218018 9.23063354 3.23218018 9.23063354 2.64013672 8.19067383 C0 3.38737941 0 3.38737941 0 0 Z " fill="#1B0718" transform="translate(11,182)"/>
<path d="M0 0 C0.99 0 1.98 0 3 0 C3 21.12 3 42.24 3 64 C2.01 64 1.02 64 0 64 C0 42.88 0 21.76 0 0 Z " fill="#603495" transform="translate(165,189)"/>
<path d="M0 0 C0.99 0 1.98 0 3 0 C3 18.15 3 36.3 3 55 C2.01 55 1.02 55 0 55 C0 36.85 0 18.7 0 0 Z " fill="#AC1484" transform="translate(80,194)"/>
<path d="M0 0 C0.66 0 1.32 0 2 0 C3.37067798 11.55263646 3.11183234 23.13735384 3.0625 34.75 C3.05747502 36.81510308 3.05291388 38.88020735 3.04882812 40.9453125 C3.03790143 45.9635713 3.02069175 50.98177235 3 56 C2.01 56 1.02 56 0 56 C0 37.52 0 19.04 0 0 Z " fill="#BF2DBF" transform="translate(130,56)"/>
<path d="M0 0 C0.99 0.33 1.98 0.66 3 1 C3 13.54 3 26.08 3 39 C1.68 39 0.36 39 -1 39 C-1.02464849 33.60653012 -1.04283531 28.21309275 -1.05493164 22.81958008 C-1.05997231 20.98331125 -1.06680477 19.14704646 -1.07543945 17.31079102 C-1.08751672 14.67723599 -1.09323081 12.04373384 -1.09765625 9.41015625 C-1.10281754 8.58411392 -1.10797882 7.75807159 -1.11329651 6.90699768 C-1.11349205 4.93763632 -1.06204152 2.96838386 -1 1 C-0.67 0.67 -0.34 0.34 0 0 Z " fill="#4F237D" transform="translate(151,218)"/>
<path d="M0 0 C0.99 0 1.98 0 3 0 C4.23180134 3.69540402 4.12412112 7.10303378 4.09765625 10.94921875 C4.0962413 11.72183548 4.09482635 12.49445221 4.09336853 13.29048157 C4.08777466 15.75619389 4.07522333 18.22181515 4.0625 20.6875 C4.05748421 22.36002473 4.05292144 24.03255088 4.04882812 25.70507812 C4.03780724 29.80342046 4.02054684 33.90169479 4 38 C3.01 38 2.02 38 1 38 C0.67 30.74 0.34 23.48 0 16 C-0.66 16.33 -1.32 16.66 -2 17 C-2.05418326 14.91695462 -2.09287551 12.83350232 -2.125 10.75 C-2.14820313 9.58984375 -2.17140625 8.4296875 -2.1953125 7.234375 C-2.0103949 4.17213954 -1.60823023 2.55797249 0 0 Z " fill="#351D42" transform="translate(164,148)"/>
<path d="M0 0 C0.99 0 1.98 0 3 0 C3 16.5 3 33 3 50 C2.01 50 1.02 50 0 50 C0 33.5 0 17 0 0 Z " fill="#8839C0" transform="translate(172,121)"/>
<path d="M0 0 C0.66 0.33 1.32 0.66 2 1 C-0.90899657 3.36355971 -3.86171265 5.64727784 -6.875 7.875 C-11.79494307 11.56264095 -16.49813446 15.19005947 -20.4375 19.9375 C-23.10404395 23.12434521 -25.975097 25.637488 -29.12890625 28.3203125 C-31.38208857 30.34300226 -33.22112305 32.55404419 -35 35 C-35.66 34.67 -36.32 34.34 -37 34 C-35.57405313 29.56011997 -33.1542093 26.5792625 -30 23.25 C-29.51305664 22.72994385 -29.02611328 22.2098877 -28.52441406 21.67407227 C-15.90799948 8.36150924 -15.90799948 8.36150924 -7 5 C-4.57170088 3.43690195 -2.30727034 1.74222454 0 0 Z " fill="#71216A" transform="translate(63,19)"/>
<path d="M0 0 C0.99 0 1.98 0 3 0 C3 16.17 3 32.34 3 49 C2.01 49 1.02 49 0 49 C0 32.83 0 16.66 0 0 Z " fill="#6E3BAC" transform="translate(172,172)"/>
<path d="M0 0 C9.55881598 8.01993539 13.72434031 25.43290973 17 37 C17.34160156 38.17820313 17.68320312 39.35640625 18.03515625 40.5703125 C21.43376212 54.95510944 20.2606165 70.30924819 20 85 C19.34 85 18.68 85 18 85 C17.67 86.32 17.34 87.64 17 89 C17.02618408 87.82719482 17.05236816 86.65438965 17.0793457 85.44604492 C17.17144426 80.99735426 17.22781476 76.54874295 17.2746582 72.09936523 C17.29944588 70.19199349 17.33328709 68.2847129 17.37719727 66.37768555 C17.76614395 49.02151168 15.08813505 33.65622226 7.9375 17.75 C7.61201172 16.98816406 7.28652344 16.22632812 6.95117188 15.44140625 C5.39619125 11.86341123 3.72793765 8.44431317 1.75390625 5.078125 C0 2 0 2 0 0 Z " fill="#1E1E21" transform="translate(240,61)"/>
<path d="M0 0 C4.51322744 1.49595741 7.95206143 4.00402136 11.625 6.9375 C12.23964111 7.42766602 12.85428223 7.91783203 13.48754883 8.42285156 C24.54545329 17.38383908 32.90409762 27.39639524 41 39 C40.505 39.99 40.505 39.99 40 41 C36.71435951 37.80578603 33.76054735 34.5438206 30.9375 30.9375 C23.27402955 21.50749159 15.09942956 13.29538081 4.984375 6.5234375 C4.32953125 6.02070313 3.6746875 5.51796875 3 5 C3 4.34 3 3.68 3 3 C1.54166642 1.37485532 1.54166642 1.37485532 0 0 Z " fill="#454083" transform="translate(199,20)"/>
<path d="M0 0 C0.99 0 1.98 0 3 0 C3 3.3 3 6.6 3 10 C2.34 10 1.68 10 1 10 C1 41.68 1 73.36 1 106 C1.66 106.33 2.32 106.66 3 107 C2.01 107 1.02 107 0 107 C0 71.69 0 36.38 0 0 Z " fill="#6A3691" transform="translate(186,89)"/>
<path d="M0 0 C0.66 0 1.32 0 2 0 C2 13.53 2 27.06 2 41 C0.515 41.495 0.515 41.495 -1 42 C-1.02464638 36.17928378 -1.0428343 30.35859766 -1.05493164 24.5378418 C-1.05997267 22.55606559 -1.06680538 20.57429311 -1.07543945 18.5925293 C-1.08751515 15.75047891 -1.09323045 12.90847753 -1.09765625 10.06640625 C-1.10281754 9.17474258 -1.10797882 8.28307892 -1.11329651 7.36439514 C-1.11349177 5.24259399 -1.0621003 3.1208922 -1 1 C-0.67 0.67 -0.34 0.34 0 0 Z " fill="#952CA0" transform="translate(131,114)"/>
<path d="M0 0 C0.33 0 0.66 0 1 0 C1 2.64 1 5.28 1 8 C1.66 8 2.32 8 3 8 C3 22.52 3 37.04 3 52 C2.67 52 2.34 52 2 52 C1.67 49.03 1.34 46.06 1 43 C0.67 43 0.34 43 0 43 C0 28.81 0 14.62 0 0 Z " fill="#040906" transform="translate(119,187)"/>
<path d="M0 0 C0.99 0 1.98 0 3 0 C3 0.99 3 1.98 3 3 C3.66 3 4.32 3 5 3 C5 4.98 5 6.96 5 9 C4.67 9 4.34 9 4 9 C3.67 38.04 3.34 67.08 3 97 C2.67 97 2.34 97 2 97 C2 66.97 2 36.94 2 6 C1.34 6 0.68 6 0 6 C0 4.02 0 2.04 0 0 Z " fill="#662E69" transform="translate(123,84)"/>
<path d="M0 0 C0 0.33 0 0.66 0 1 C-4.08207109 1.17748135 -7.612039 0.94008104 -11.6015625 0.0390625 C-16.90282481 -1.05383105 -22.09807207 -1.51851659 -27.5 -1.75 C-28.44907227 -1.79092773 -29.39814453 -1.83185547 -30.37597656 -1.87402344 C-42.11286274 -2.25465799 -54.00494111 -1.55732257 -65.15234375 2.4140625 C-67 3 -67 3 -70 3 C-69.67 2.01 -69.34 1.02 -69 0 C-66.15625 -0.9140625 -66.15625 -0.9140625 -62.5 -1.625 C-61.3140625 -1.86476562 -60.128125 -2.10453125 -58.90625 -2.3515625 C-39.03273093 -5.65056667 -19.5555373 -4.60614128 0 0 Z " fill="#9054D1" transform="translate(164,5)"/>
<path d="M0 0 C0.99 0 1.98 0 3 0 C3 12.54 3 25.08 3 38 C2.01 38 1.02 38 0 38 C0 25.46 0 12.92 0 0 Z " fill="#AD33C5" transform="translate(151,85)"/>
<path d="M0 0 C0.99 0 1.98 0 3 0 C3 12.21 3 24.42 3 37 C2.01 37 1.02 37 0 37 C0 24.79 0 12.58 0 0 Z " fill="#B421A3" transform="translate(94,177)"/>
<path d="M0 0 C0.99 0 1.98 0 3 0 C3.12117187 0.88042969 3.24234375 1.76085937 3.3671875 2.66796875 C3.53476563 3.82941406 3.70234375 4.99085937 3.875 6.1875 C4.03742188 7.33605469 4.19984375 8.48460938 4.3671875 9.66796875 C4.85392492 12.9071084 4.85392492 12.9071084 6.04101562 15.37695312 C7.10084006 18.27582119 7.15585911 20.23480924 6.9765625 23.30078125 C6.925 24.27724609 6.8734375 25.25371094 6.8203125 26.25976562 C6.75585938 27.26716797 6.69140625 28.27457031 6.625 29.3125 C6.56828125 30.33923828 6.5115625 31.36597656 6.453125 32.42382812 C6.31213091 34.94997226 6.16076818 37.47505001 6 40 C5.01 40.495 5.01 40.495 4 41 C3.67 32.09 3.34 23.18 3 14 C2.01 14 1.02 14 0 14 C0 9.38 0 4.76 0 0 Z " fill="#201F22" transform="translate(179,77)"/>
<path d="M0 0 C0.33 0 0.66 0 1 0 C1.19739706 4.06208241 1.38118364 8.12467055 1.5625 12.1875 C1.61857422 13.33798828 1.67464844 14.48847656 1.73242188 15.67382812 C1.78076172 16.78564453 1.82910156 17.89746094 1.87890625 19.04296875 C1.9260376 20.06414795 1.97316895 21.08532715 2.02172852 22.13745117 C2.00073689 24.90292045 1.64017052 27.31645691 1 30 C1.66 30 2.32 30 3 30 C3 40.56 3 51.12 3 62 C2.67 62 2.34 62 2 62 C1.67 58.37 1.34 54.74 1 51 C0.67 51 0.34 51 0 51 C0 34.17 0 17.34 0 0 Z " fill="#0C1610" transform="translate(98,90)"/>
<path d="M0 0 C0.66 0 1.32 0 2 0 C-0.54584594 5.28752618 -3.091412 9.37457862 -7.5625 13.25 C-10.23388979 15.57731788 -12.88906172 17.89452926 -15.45703125 20.3359375 C-29.89057167 34 -29.89057167 34 -37 34 C-37 33.34 -37 32.68 -37 32 C-34.98359627 30.63325826 -32.96365911 29.37254228 -30.875 28.125 C-19.49337213 21.04342268 -9.74095614 12.72292659 -1.671875 1.984375 C-1.12015625 1.32953125 -0.5684375 0.6746875 0 0 Z " fill="#43377C" transform="translate(223,199)"/>
<path d="M0 0 C0.66 0 1.32 0 2 0 C2.14695312 0.94617188 2.29390625 1.89234375 2.4453125 2.8671875 C5.75369661 22.87893924 12.92584632 40.04270218 24 57 C23.01 57 22.02 57 21 57 C21 56.34 21 55.68 21 55 C20.34 55 19.68 55 19 55 C17.5393715 52.35261084 17 51.10551666 17 48 C16.34 48 15.68 48 15 48 C7.15322907 32.26751636 1.69152183 17.5716298 0 0 Z " fill="#881A6E" transform="translate(12,142)"/>
<path d="M0 0 C0.99 0 1.98 0 3 0 C3 3.96 3 7.92 3 12 C2.34 12 1.68 12 1 12 C1 34.44 1 56.88 1 80 C0.67 80 0.34 80 0 80 C0 53.6 0 27.2 0 0 Z " fill="#801C62" transform="translate(65,90)"/>
<path d="M0 0 C0.33 0 0.66 0 1 0 C1.33 7.92 1.66 15.84 2 24 C2.33 24 2.66 24 3 24 C3.67192387 34.0188648 4.15723924 43.95415947 4 54 C1 52 1 52 0.49047852 49.67504883 C-0.10295675 39.34361551 -0.11265316 29.03324578 -0.0625 18.6875 C-0.05747197 16.86783978 -0.05291138 15.04817821 -0.04882812 13.22851562 C-0.03793265 8.8189763 -0.02074084 4.40950355 0 0 Z " fill="#131717" transform="translate(126,92)"/>
<path d="M0 0 C0.99 0 1.98 0 3 0 C3 11.22 3 22.44 3 34 C2.01 34 1.02 34 0 34 C0 22.78 0 11.56 0 0 Z " fill="#9F1384" transform="translate(94,220)"/>
<path d="M0 0 C0.99 0 1.98 0 3 0 C3.04944705 4.50234373 3.08574161 9.0045293 3.10986328 13.50708008 C3.11991935 15.03868361 3.133566 16.57026795 3.15087891 18.10180664 C3.17514498 20.30359636 3.18648688 22.50513219 3.1953125 24.70703125 C3.20563507 25.39150833 3.21595764 26.07598541 3.22659302 26.78120422 C3.22745382 30.43061661 3.08567666 31.87148502 1 35 C0 34 0 34 -0.11352539 30.76538086 C-0.11336631 29.33185874 -0.10767407 27.89833088 -0.09765625 26.46484375 C-0.0962413 25.71159317 -0.09482635 24.95834259 -0.09336853 24.18226624 C-0.08775376 21.7673044 -0.07519883 19.35243399 -0.0625 16.9375 C-0.0574869 15.30403779 -0.05292366 13.67057414 -0.04882812 12.03710938 C-0.03777954 8.02470415 -0.02050506 4.01236759 0 0 Z " fill="#121716" transform="translate(133,116)"/>
<path d="M0 0 C0.33 0 0.66 0 1 0 C0.99476318 1.08418213 0.98952637 2.16836426 0.98413086 3.28540039 C0.96594667 7.3314531 0.95451917 11.37750223 0.94506836 15.42358398 C0.94005871 17.17033497 0.93324915 18.9170818 0.92456055 20.66381836 C0.91234681 23.18344146 0.90673787 25.70300881 0.90234375 28.22265625 C0.89718246 28.99585709 0.89202118 29.76905792 0.88670349 30.56568909 C0.8862381 35.12670701 1.09648266 39.50878816 2 44 C2.66 44.66 3.32 45.32 4 46 C4.37890625 48.57421875 4.37890625 48.57421875 4.5625 51.6875 C4.86495869 56.17577094 5.29352013 60.55926939 6 65 C3.69881725 61.54822587 2.89006389 58.21961988 1.9375 54.25 C1.76412109 53.5590625 1.59074219 52.868125 1.41210938 52.15625 C-0.27219638 45.28996142 -1.12646446 38.65053555 -1.1328125 31.5625 C-1.13376923 30.87873291 -1.13472595 30.19496582 -1.13571167 29.49047852 C-1.13638746 28.05517484 -1.13457544 26.61986799 -1.13037109 25.18457031 C-1.12501423 23.00578858 -1.13033658 20.82721294 -1.13671875 18.6484375 C-1.13605786 17.24479122 -1.13477648 15.84114506 -1.1328125 14.4375 C-1.13168457 13.17808594 -1.13055664 11.91867188 -1.12939453 10.62109375 C-1.00053336 7.01492602 -0.57666836 3.55965295 0 0 Z " fill="#3C0E30" transform="translate(1,107)"/>
<path d="M0 0 C0.33 0 0.66 0 1 0 C1 9.9 1 19.8 1 30 C0.67 30 0.34 30 0 30 C-0.33 24.06 -0.66 18.12 -1 12 C-1.33 12 -1.66 12 -2 12 C-2.33 16.29 -2.66 20.58 -3 25 C-3.33 25 -3.66 25 -4 25 C-4 19.39 -4 13.78 -4 8 C-4.99 8.33 -5.98 8.66 -7 9 C-6.67 6.36 -6.34 3.72 -6 1 C-4.35 1.33 -2.7 1.66 -1 2 C-0.67 1.34 -0.34 0.68 0 0 Z " fill="#3A2042" transform="translate(164,113)"/>
<path d="M0 0 C0.99 0 1.98 0 3 0 C3 3.96 3 7.92 3 12 C2.34 12 1.68 12 1 12 C1 30.48 1 48.96 1 68 C0.67 68 0.34 68 0 68 C0 45.56 0 23.12 0 0 Z " fill="#5E2158" transform="translate(108,68)"/>
<path d="M0 0 C0.33 0 0.66 0 1 0 C1 13.2 1 26.4 1 40 C0.67 40 0.34 40 0 40 C-0.33 38.35 -0.66 36.7 -1 35 C-1.33 35 -1.66 35 -2 35 C-2 26.42 -2 17.84 -2 9 C-1.67 9 -1.34 9 -1 9 C-0.67 6.03 -0.34 3.06 0 0 Z " fill="#0F1313" transform="translate(192,138)"/>
<path d="M0 0 C0.99 0 1.98 0 3 0 C3 21.12 3 42.24 3 64 C2.67 64 2.34 64 2 64 C2 46.84 2 29.68 2 12 C1.34 12 0.68 12 0 12 C0 8.04 0 4.08 0 0 Z " fill="#563262" transform="translate(137,108)"/>
<path d="M0 0 C3.62675625 1.4895606 5.50480955 3.51333264 8 6.5 C13.86794326 13.20622087 20.57734571 19.05156381 28 24 C27.67 24.99 27.34 25.98 27 27 C24.76748835 25.27501468 22.53900232 23.5452126 20.3125 21.8125 C19.68666016 21.32974609 19.06082031 20.84699219 18.41601562 20.34960938 C12.99411907 16.11996232 8.29205939 11.42000561 3.6875 6.3125 C2.99011719 5.54550781 2.29273438 4.77851563 1.57421875 3.98828125 C0 2 0 2 0 0 Z " fill="#6D1D5D" transform="translate(36,201)"/>
<path d="M0 0 C1.32 0 2.64 0 4 0 C4 2.31 4 4.62 4 7 C3.34 7 2.68 7 2 7 C2 25.81 2 44.62 2 64 C1.67 64 1.34 64 1 64 C0.86932653 56.09840456 0.73891804 48.1968048 0.60884857 40.29519939 C0.54844497 36.62624079 0.48794982 32.95728373 0.42724609 29.28833008 C0.36867607 25.74813496 0.31034568 22.20793596 0.25218201 18.66773415 C0.21910999 16.6585882 0.18578927 14.64944636 0.15246582 12.64030457 C0.13244507 11.41926529 0.11242432 10.19822601 0.09179688 8.94018555 C0.07403198 7.86318893 0.05626709 6.78619232 0.03796387 5.67655945 C0.01112751 3.78452096 0 1.8922288 0 0 Z " fill="#3E244C" transform="translate(192,116)"/>
<path d="M0 0 C1.32 0.33 2.64 0.66 4 1 C3.01 1 2.02 1 1 1 C1 9.25 1 17.5 1 26 C0.67 26 0.34 26 0 26 C-0.12375 24.906875 -0.2475 23.81375 -0.375 22.6875 C-0.75464801 18.92618198 -0.75464801 18.92618198 -3 16 C-3.99 15.67 -4.98 15.34 -6 15 C-6 12.69 -6 10.38 -6 8 C-4.35 7.67 -2.7 7.34 -1 7 C-0.67 4.69 -0.34 2.38 0 0 Z " fill="#451D46" transform="translate(150,84)"/>
<path d="M0 0 C0.66 0 1.32 0 2 0 C2 8.58 2 17.16 2 26 C1.01 25.67 0.02 25.34 -1 25 C-1.02886984 21.02084841 -1.04675406 17.04172347 -1.0625 13.0625 C-1.07087891 11.92619141 -1.07925781 10.78988281 -1.08789062 9.61914062 C-1.09111328 8.53955078 -1.09433594 7.45996094 -1.09765625 6.34765625 C-1.10289307 5.34742432 -1.10812988 4.34719238 -1.11352539 3.31665039 C-1 1 -1 1 0 0 Z " fill="#B40E89" transform="translate(88,226)"/>
<path d="M0 0 C0.99 0 1.98 0 3 0 C3 6.93 3 13.86 3 21 C3.99 20.67 4.98 20.34 6 20 C5.67 20.99 5.34 21.98 5 23 C3.35 23.33 1.7 23.66 0 24 C0 16.08 0 8.16 0 0 Z " fill="#572B92" transform="translate(179,212)"/>
<path d="M0 0 C0.33 0 0.66 0 1 0 C1.33 5.94 1.66 11.88 2 18 C2.33 18 2.66 18 3 18 C3 30.21 3 42.42 3 55 C2.67 55 2.34 55 2 55 C1.67 46.75 1.34 38.5 1 30 C0.67 30 0.34 30 0 30 C0 20.1 0 10.2 0 0 Z " fill="#040B07" transform="translate(69,148)"/>
<path d="M0 0 C1.93709638 3.25753924 2.23715445 5.65609928 2.1953125 9.421875 C2.18886719 10.44667969 2.18242187 11.47148437 2.17578125 12.52734375 C2.15902344 13.59082031 2.14226562 14.65429688 2.125 15.75 C2.11597656 16.82894531 2.10695312 17.90789062 2.09765625 19.01953125 C2.07411305 21.67991278 2.04122799 24.33984336 2 27 C1.01 27 0.02 27 -1 27 C-1.02913821 23.4375173 -1.04684529 19.87506546 -1.0625 16.3125 C-1.07087891 15.30509766 -1.07925781 14.29769531 -1.08789062 13.25976562 C-1.09111328 12.28330078 -1.09433594 11.30683594 -1.09765625 10.30078125 C-1.10289307 9.40528564 -1.10812988 8.50979004 -1.11352539 7.5871582 C-0.99840198 4.96358241 -0.58234285 2.55706947 0 0 Z " fill="#8239AD" transform="translate(166,159)"/>
<path d="M0 0 C0.66 0 1.32 0 2 0 C2 10.56 2 21.12 2 32 C1.34 32 0.68 32 0 32 C-0.33 33.32 -0.66 34.64 -1 36 C-0.67 24.12 -0.34 12.24 0 0 Z " fill="#23244E" transform="translate(258,114)"/>
<path d="M0 0 C0.33 0 0.66 0 1 0 C1.33 4.95 1.66 9.9 2 15 C2.33 15 2.66 15 3 15 C3 21.27 3 27.54 3 34 C1.515 34.495 1.515 34.495 0 35 C0 23.45 0 11.9 0 0 Z " fill="#0D0F0F" transform="translate(175,136)"/>
<path d="M0 0 C0.33 0 0.66 0 1 0 C1 14.52 1 29.04 1 44 C0.01 44 -0.98 44 -2 44 C-2 39.71 -2 35.42 -2 31 C-1.67 31 -1.34 31 -1 31 C-0.67 20.77 -0.34 10.54 0 0 Z " fill="#8F278A" transform="translate(132,68)"/>
<path d="M0 0 C0.33 0 0.66 0 1 0 C1 18.15 1 36.3 1 55 C0.67 55 0.34 55 0 55 C-0.36164523 52.37583048 -0.71461153 49.75099687 -1.0625 47.125 C-1.16626953 46.37863281 -1.27003906 45.63226563 -1.37695312 44.86328125 C-2.11328125 39.2265625 -2.11328125 39.2265625 -1 37 C-0.84308093 34.23068632 -0.74156866 31.48265893 -0.68359375 28.7109375 C-0.66281265 27.89251373 -0.64203156 27.07408997 -0.62062073 26.23086548 C-0.55515188 23.61233034 -0.49625274 20.99369361 -0.4375 18.375 C-0.39431224 16.60155193 -0.35069786 14.82811419 -0.30664062 13.0546875 C-0.19947324 8.70322954 -0.09819831 4.35166923 0 0 Z " fill="#050C05" transform="translate(79,194)"/>
<path d="M0 0 C0.99 0 1.98 0 3 0 C3.125 4.75 3.125 4.75 2 7 C1.84355828 9.55106029 1.74178611 12.07918663 1.68359375 14.6328125 C1.66281265 15.38464813 1.64203156 16.13648376 1.62062073 16.91110229 C1.55517295 19.31564085 1.49626262 21.72028967 1.4375 24.125 C1.39431023 25.75391771 1.35069579 27.38282422 1.30664062 29.01171875 C1.19949649 33.00769915 1.09821567 37.00379059 1 41 C0.67 41 0.34 41 0 41 C0 30.77 0 20.54 0 10 C-0.66 10 -1.32 10 -2 10 C-1.85950482 8.52031676 -1.71245174 7.04125484 -1.5625 5.5625 C-1.48128906 4.73878906 -1.40007812 3.91507812 -1.31640625 3.06640625 C-1 1 -1 1 0 0 Z " fill="#6D165B" transform="translate(101,110)"/>
<path d="M0 0 C0.99 0 1.98 0 3 0 C4.20360791 9.38245536 4.11303563 18.68532519 4.0625 28.125 C4.05747437 29.76562363 4.05291335 31.40624876 4.04882812 33.046875 C4.03790805 37.03128742 4.02070218 41.0156269 4 45 C3.67 45 3.34 45 3 45 C3 34.11 3 23.22 3 12 C2.34 12 1.68 12 1 12 C0.67 8.04 0.34 4.08 0 0 Z " fill="#641855" transform="translate(80,77)"/>
<path d="M0 0 C0.66 0.99 1.32 1.98 2 3 C1.70996094 3.57234375 1.41992188 4.1446875 1.12109375 4.734375 C-1.98163523 11.00469838 -4.61033078 17.42840964 -7 24 C-7.33 24 -7.66 24 -8 24 C-8.48050516 17.33299089 -7.18360604 13.30792995 -4 7.5 C-3.6184375 6.77296875 -3.236875 6.0459375 -2.84375 5.296875 C-1.91039861 3.52350735 -0.95721897 1.76059918 0 0 Z " fill="#881872" transform="translate(16,66)"/>
<path d="M0 0 C0.33 0 0.66 0 1 0 C1 1.98 1 3.96 1 6 C1.66 6 2.32 6 3 6 C3 4.35 3 2.7 3 1 C3.66 1 4.32 1 5 1 C5.33 4.3 5.66 7.6 6 11 C5.01 11 4.02 11 3 11 C2.10869587 13.6739124 1.52268466 16.23723823 1 19 C0.67 19 0.34 19 0 19 C0 12.73 0 6.46 0 0 Z " fill="#351A3E" transform="translate(169,110)"/>
<path d="M0 0 C0.99 0 1.98 0 3 0 C3 6.27 3 12.54 3 19 C2.01 19 1.02 19 0 19 C0 12.73 0 6.46 0 0 Z " fill="#870C8C" transform="translate(116,239)"/>
<path d="M0 0 C7.92 0 15.84 0 24 0 C23.67 0.99 23.34 1.98 23 3 C14.95787245 3.16677223 7.01396246 2.6466598 -1 2 C-0.67 1.34 -0.34 0.68 0 0 Z " fill="#1B0F1E" transform="translate(118,13)"/>
<path d="M0 0 C0 0.33 0 0.66 0 1 C-1.18335937 1.10957031 -2.36671875 1.21914063 -3.5859375 1.33203125 C-15.05169321 2.43964479 -15.05169321 2.43964479 -26.15234375 5.4140625 C-28 6 -28 6 -31 6 C-30.67 5.01 -30.34 4.02 -30 3 C-20.32081935 -0.53690361 -10.13732134 -0.35546451 0 0 Z " fill="#A74CD8" transform="translate(125,2)"/>
<path d="M0 0 C0.99 0 1.98 0 3 0 C3 5.61 3 11.22 3 17 C2.01 17.33 1.02 17.66 0 18 C0 12.06 0 6.12 0 0 Z " fill="#642EA0" transform="translate(144,214)"/>
<path d="M0 0 C1.32 0 2.64 0 4 0 C4 1.32 4 2.64 4 4 C4.66 4.33 5.32 4.66 6 5 C4.68 5 3.36 5 2 5 C1.90961901 10.15171623 2.15318867 14.91913204 3 20 C2.01 20.33 1.02 20.66 0 21 C0 14.07 0 7.14 0 0 Z " fill="#44206A" transform="translate(171,231)"/>
<path d="M0 0 C1 3 1 3 0.19555664 4.99291992 C-0.22862549 5.73131104 -0.65280762 6.46970215 -1.08984375 7.23046875 C-1.54423828 8.03291016 -1.99863281 8.83535156 -2.46679688 9.66210938 C-3.19479492 10.91217773 -3.19479492 10.91217773 -3.9375 12.1875 C-4.41896484 13.03248047 -4.90042969 13.87746094 -5.39648438 14.74804688 C-6.5887055 16.83738489 -7.79009818 18.92086675 -9 21 C-9.99 21 -10.98 21 -12 21 C-10.12934871 17.0795925 -8.24312062 13.36120777 -5.8125 9.75 C-4.23242256 7.35264113 -3.42971258 5.79313179 -3 3 C-2.34 3 -1.68 3 -1 3 C-0.67 2.01 -0.34 1.02 0 0 Z " fill="#0D0C18" transform="translate(248,182)"/>
<path d="M0 0 C0.99 0 1.98 0 3 0 C3 4.95 3 9.9 3 15 C2.01 15 1.02 15 0 15 C0 10.05 0 5.1 0 0 Z " fill="#A7178A" transform="translate(87,206)"/>
<path d="M0 0 C1.26363594 3.79090783 0.19307226 5.29159538 -1.51171875 8.75585938 C-1.87910156 9.47580078 -2.24648437 10.19574219 -2.625 10.9375 C-2.96917969 11.65357422 -3.31335938 12.36964844 -3.66796875 13.10742188 C-5.84343408 17.43828367 -7.88115552 20.23242555 -12 23 C-10.43885694 18.71498755 -8.29630751 14.86035866 -6 10.9375 C-2.85295525 5.54840377 -2.85295525 5.54840377 0 0 Z " fill="#38337C" transform="translate(237,175)"/>
<path d="M0 0 C0.99 0 1.98 0 3 0 C3 3.3 3 6.6 3 10 C2.34 10 1.68 10 1 10 C1 14.62 1 19.24 1 24 C0.67 24 0.34 24 0 24 C0 16.08 0 8.16 0 0 Z " fill="#7A2285" transform="translate(186,89)"/>
<path d="M0 0 C2.21033968 2.21033968 3.6479876 3.80624127 5.26171875 6.35546875 C5.85629883 7.28842773 5.85629883 7.28842773 6.46289062 8.24023438 C6.86701172 8.88283203 7.27113281 9.52542969 7.6875 10.1875 C8.10322266 10.84169922 8.51894531 11.49589844 8.94726562 12.16992188 C9.9683003 13.77775809 10.98461863 15.38858764 12 17 C11.34 17.66 10.68 18.32 10 19 C9.67 18.01 9.34 17.02 9 16 C8.34 16 7.68 16 7 16 C5.5393715 13.35261084 5 12.10551666 5 9 C4.34 9 3.68 9 3 9 C2.01 6.03 1.02 3.06 0 0 Z " fill="#7E1D68" transform="translate(24,181)"/>
<path d="M0 0 C0.99 0 1.98 0 3 0 C3 4.95 3 9.9 3 15 C2.67 14.01 2.34 13.02 2 12 C1.34 12 0.68 12 0 12 C0 8.04 0 4.08 0 0 Z " fill="#7D1885" transform="translate(137,108)"/>
<path d="M0 0 C0.66 1.32 1.32 2.64 2 4 C0.6875 5.5 0.6875 5.5 -1 7 C-1.99 7 -2.98 7 -4 7 C-4.4021875 8.1446875 -4.4021875 8.1446875 -4.8125 9.3125 C-5.94424112 11.87380884 -6.91223401 13.19692938 -9 15 C-7.68262072 11.41061876 -6.09204262 8.40505503 -3.9375 5.25 C-3.41027344 4.47140625 -2.88304687 3.6928125 -2.33984375 2.890625 C-1 1 -1 1 0 0 Z M3 0 C3.66 0.33 4.32 0.66 5 1 C4.01 1.66 3.02 2.32 2 3 C2.33 2.01 2.66 1.02 3 0 Z " fill="#6E1A61" transform="translate(26,51)"/>
<path d="M0 0 C4.21814817 3.9700218 7.61227103 8.30840284 11 13 C10.67 13.66 10.34 14.32 10 15 C6.40521424 11.50792241 2.99752225 8.02524416 0 4 C0 2.68 0 1.36 0 0 Z " fill="#36335E" transform="translate(229,46)"/>
<path d="M0 0 C0 0.66 0 1.32 0 2 C-1.22976562 2.50660156 -1.22976562 2.50660156 -2.484375 3.0234375 C-3.56203125 3.46945313 -4.6396875 3.91546875 -5.75 4.375 C-6.81734375 4.81585937 -7.8846875 5.25671875 -8.984375 5.7109375 C-11.90886126 6.89930288 -11.90886126 6.89930288 -14.203125 8.2265625 C-16 9 -16 9 -19 8 C-16.39939496 6.65929682 -13.79495084 5.32726646 -11.1875 4 C-10.44951172 3.6184375 -9.71152344 3.236875 -8.95117188 2.84375 C-8.23896484 2.4828125 -7.52675781 2.121875 -6.79296875 1.75 C-6.1383667 1.41484375 -5.48376465 1.0796875 -4.80932617 0.734375 C-3 0 -3 0 0 0 Z " fill="#0A080B" transform="translate(90,21)"/>
<path d="M0 0 C0.66 0.33 1.32 0.66 2 1 C0.34348188 2.34592097 -1.32655239 3.67518731 -3 5 C-3.66257812 5.54011719 -4.32515625 6.08023437 -5.0078125 6.63671875 C-6.05582031 7.46623047 -6.05582031 7.46623047 -7.125 8.3125 C-7.78757812 8.84488281 -8.45015625 9.37726562 -9.1328125 9.92578125 C-9.74898437 10.28027344 -10.36515625 10.63476562 -11 11 C-11.99 10.67 -12.98 10.34 -14 10 C-12.22970554 8.70759488 -10.45874502 7.41610207 -8.6875 6.125 C-7.70136719 5.40570312 -6.71523438 4.68640625 -5.69921875 3.9453125 C-3.82476885 2.5944065 -1.92247007 1.28164671 0 0 Z " fill="#CB3CCF" transform="translate(63,19)"/>
<path d="M0 0 C0.99 0 1.98 0 3 0 C3 3.96 3 7.92 3 12 C2.01 12 1.02 12 0 12 C0 8.04 0 4.08 0 0 Z " fill="#4C2048" transform="translate(108,68)"/>
<path d="M0 0 C4.10110762 1.40398279 6.98089159 3.37087038 10.3125 6.125 C11.19550781 6.84945313 12.07851562 7.57390625 12.98828125 8.3203125 C13.65214844 8.87460937 14.31601563 9.42890625 15 10 C11.89018657 10 10.60603631 9.53286291 7.875 8.1875 C6.81925781 7.68283203 6.81925781 7.68283203 5.7421875 7.16796875 C4 6 4 6 3 3 C1.50014391 1.33289654 1.50014391 1.33289654 0 0 Z " fill="#38335F" transform="translate(199,20)"/>
<path d="M0 0 C0.66 0.33 1.32 0.66 2 1 C0.75425722 4.44974924 -0.48597563 7.2997516 -3 10 C-5.6875 11.25 -5.6875 11.25 -8 12 C-8 11.01 -8 10.02 -8 9 C-7.01 9 -6.02 9 -5 9 C-5 8.01 -5 7.02 -5 6 C-4.34 6 -3.68 6 -3 6 C-2.690625 5.195625 -2.38125 4.39125 -2.0625 3.5625 C-1 1 -1 1 0 0 Z " fill="#151337" transform="translate(235,202)"/>
<path d="M0 0 C0.66 0 1.32 0 2 0 C1.01 6.93 0.02 13.86 -1 21 C-1.33 21 -1.66 21 -2 21 C-2.0543965 18.62468606 -2.09385864 16.25064117 -2.125 13.875 C-2.14175781 13.20984375 -2.15851562 12.5446875 -2.17578125 11.859375 C-2.21847278 7.50483944 -1.59996217 4.04399886 0 0 Z " fill="#B20C8E" transform="translate(4,100)"/>
<path d="M0 0 C0.99 0 1.98 0 3 0 C2.67 4.62 2.34 9.24 2 14 C1.34 14 0.68 14 0 14 C0 9.38 0 4.76 0 0 Z " fill="#73249E" transform="translate(179,77)"/>
<path d="M0 0 C0.33 0.66 0.66 1.32 1 2 C-0.19749012 4.55168883 -1.44566789 6.97905239 -2.8125 9.4375 C-3.18181641 10.11876953 -3.55113281 10.80003906 -3.93164062 11.50195312 C-5.52739191 14.42701967 -7.14899359 17.22349038 -9 20 C-8.44050358 15.3858814 -7.18278109 11.87651282 -5.0625 7.75 C-4.53785156 6.71359375 -4.01320313 5.6771875 -3.47265625 4.609375 C-2 2 -2 2 0 0 Z " fill="#13090F" transform="translate(31,68)"/>
<path d="M0 0 C0.99 0 1.98 0 3 0 C3 3.63 3 7.26 3 11 C2.01 11 1.02 11 0 11 C0 7.37 0 3.74 0 0 Z " fill="#641AA0" transform="translate(144,247)"/>
<path d="M0 0 C0.54140625 0.23332031 1.0828125 0.46664062 1.640625 0.70703125 C-0.4811113 2.04581697 -2.60642688 3.37818601 -4.734375 4.70703125 C-5.33765625 5.08859375 -5.9409375 5.47015625 -6.5625 5.86328125 C-11.1328125 8.70703125 -11.1328125 8.70703125 -13.359375 8.70703125 C-13.359375 8.04703125 -13.359375 7.38703125 -13.359375 6.70703125 C-11.09375 4.9453125 -11.09375 4.9453125 -8.109375 3.01953125 C-7.13484375 2.37628906 -6.1603125 1.73304688 -5.15625 1.0703125 C-2.359375 -0.29296875 -2.359375 -0.29296875 0 0 Z " fill="#412C72" transform="translate(199.359375,224.29296875)"/>
<path d="M0 0 C0.66 0 1.32 0 2 0 C2.85743651 4.39436211 3.08948558 8.52572076 3 13 C2.01 13.33 1.02 13.66 0 14 C0 9.38 0 4.76 0 0 Z " fill="#111012" transform="translate(169,161)"/>
<path d="M0 0 C0.66 0 1.32 0 2 0 C1.48594831 4.96916636 0.76615118 9.29026351 -1 14 C-1.99 13.67 -2.98 13.34 -4 13 C-2.68 8.71 -1.36 4.42 0 0 Z " fill="#AE128B" transform="translate(15,98)"/>
<path d="M0 0 C0.66 0.33 1.32 0.66 2 1 C-2.29 5.29 -6.58 9.58 -11 14 C-11.66 13.67 -12.32 13.34 -13 13 C-8.96476648 8.18876004 -4.95532767 3.86757281 0 0 Z " fill="#0E090C" transform="translate(55,40)"/>
<path d="M0 0 C2.77042109 2.77042109 2.39796106 4.76533805 2.625 8.625 C2.69976562 9.81351563 2.77453125 11.00203125 2.8515625 12.2265625 C2.92503906 13.59941406 2.92503906 13.59941406 3 15 C2.01 15 1.02 15 0 15 C0 10.05 0 5.1 0 0 Z " fill="#723FAD" transform="translate(179,193)"/>
<path d="M0 0 C0.99 0 1.98 0 3 0 C3 4.62 3 9.24 3 14 C2.67 14 2.34 14 2 14 C2 12.02 2 10.04 2 8 C1.34 8 0.68 8 0 8 C0 5.36 0 2.72 0 0 Z " fill="#961597" transform="translate(116,116)"/>
<path d="M0 0 C0.99 0 1.98 0 3 0 C3 0.99 3 1.98 3 3 C3.66 3 4.32 3 5 3 C5 4.98 5 6.96 5 9 C2.5 7.875 2.5 7.875 0 6 C-0.3125 2.8125 -0.3125 2.8125 0 0 Z " fill="#6F1B64" transform="translate(123,84)"/>
<path d="M0 0 C0 0.33 0 0.66 0 1 C-1.91512272 1.50588147 -3.83216922 2.00448391 -5.75 2.5 C-7.35101563 2.91765625 -7.35101563 2.91765625 -8.984375 3.34375 C-12 4 -12 4 -16 4 C-16 3.34 -16 2.68 -16 2 C-10.51324804 0.13216954 -5.77807024 -0.2358396 0 0 Z " fill="#060707" transform="translate(116,15)"/>
<path d="M0 0 C0 0.66 0 1.32 0 2 C-0.84304687 2.27714844 -1.68609375 2.55429688 -2.5546875 2.83984375 C-4.19824219 3.38318359 -4.19824219 3.38318359 -5.875 3.9375 C-6.96554688 4.29714844 -8.05609375 4.65679688 -9.1796875 5.02734375 C-11.90758682 5.89914074 -11.90758682 5.89914074 -14 7 C-13 4 -13 4 -11.07421875 2.83203125 C-10.28660156 2.49558594 -9.49898438 2.15914062 -8.6875 1.8125 C-7.90761719 1.46832031 -7.12773438 1.12414062 -6.32421875 0.76953125 C-4 0 -4 0 0 0 Z " fill="#B546CE" transform="translate(92,7)"/>
<path d="M0 0 C0.99 0 1.98 0 3 0 C3.19294408 4.82360189 2.75747614 8.49646738 1 13 C0.67 13 0.34 13 0 13 C0 8.71 0 4.42 0 0 Z " fill="#8023A6" transform="translate(172,121)"/>
<path d="M0 0 C1.32 0 2.64 0 4 0 C3.67 5.94 3.34 11.88 3 18 C2.67 18 2.34 18 2 18 C2 14.04 2 10.08 2 6 C1.34 5.67 0.68 5.34 0 5 C0 3.35 0 1.7 0 0 Z " fill="#581F4A" transform="translate(95,70)"/>
<path d="M0 0 C0.66 0.33 1.32 0.66 2 1 C2 5.29 2 9.58 2 14 C-0.475 13.01 -0.475 13.01 -3 12 C-2.01 11.34 -1.02 10.68 0 10 C0.36416047 7.56306689 0.36416047 7.56306689 0.1875 4.875 C0.16042969 3.96492187 0.13335937 3.05484375 0.10546875 2.1171875 C0.05326172 1.06917969 0.05326172 1.06917969 0 0 Z " fill="#280728" transform="translate(76,234)"/>
<path d="M0 0 C0.99 0.33 1.98 0.66 3 1 C2.278125 1.70125 1.55625 2.4025 0.8125 3.125 C-1.99823813 5.92770745 -4.49516226 8.92262792 -7 12 C-7.66 11.67 -8.32 11.34 -9 11 C-6.03 7.37 -3.06 3.74 0 0 Z " fill="#DE28C8" transform="translate(35,42)"/>
<path d="M0 0 C0.99 0.33 1.98 0.66 3 1 C2.67 3.31 2.34 5.62 2 8 C1.01 8 0.02 8 -1 8 C-1.33 6.68 -1.66 5.36 -2 4 C-1.34 4 -0.68 4 0 4 C0 2.68 0 1.36 0 0 Z " fill="#1C1F1E" transform="translate(134,108)"/>
<path d="M0 0 C5.66710699 1.31793186 7.66437233 3.48709197 11 8 C7.24026115 8 6.54322371 7.03457593 3.8125 4.5625 C3.09707031 3.92441406 2.38164063 3.28632813 1.64453125 2.62890625 C1.10183594 2.09136719 0.55914062 1.55382812 0 1 C0 0.67 0 0.34 0 0 Z " fill="#10060F" transform="translate(40,224)"/>
<path d="M0 0 C0.99 0.33 1.98 0.66 3 1 C0.36113346 5.2026393 -2.36440339 8.56638098 -6 12 C-4.43358249 7.69235185 -2.31663844 3.93828536 0 0 Z " fill="#DB1EBE" transform="translate(22,58)"/>
<path d="M0 0 C-2.53643417 3.10008621 -5.18757229 3.9674675 -9 5 C-9.99 5 -10.98 5 -12 5 C-4.28571429 -1.42857143 -4.28571429 -1.42857143 0 0 Z " fill="#BF43CE" transform="translate(77,14)"/>
<path d="M0 0 C3.33193619 2.69728168 4.60371996 6.02060187 6 10 C5.578125 12.22265625 5.578125 12.22265625 5 14 C4.15675328 12.421924 3.32576082 10.8372958 2.5 9.25 C2.0359375 8.36828125 1.571875 7.4865625 1.09375 6.578125 C0 4 0 4 0 0 Z " fill="#0D0B11" transform="translate(234,79)"/>
<path d="M0 0 C0.33 0 0.66 0 1 0 C1 5.28 1 10.56 1 16 C-2 13 -2 13 -2.1875 10.3125 C-2.125625 9.549375 -2.06375 8.78625 -2 8 C-1.67 8 -1.34 8 -1 8 C-0.67 5.36 -0.34 2.72 0 0 Z " fill="#111613" transform="translate(170,142)"/>
<path d="M0 0 C1.32 0 2.64 0 4 0 C4 2.31 4 4.62 4 7 C3.01 7 2.02 7 1 7 C0.34 5.02 -0.32 3.04 -1 1 C-0.67 0.67 -0.34 0.34 0 0 Z " fill="#682570" transform="translate(192,116)"/>
<path d="M0 0 C3.39192363 0.59283621 5.2107757 1.76743189 7.75 4.0625 C8.67039063 4.88427734 8.67039063 4.88427734 9.609375 5.72265625 C10.29773438 6.35494141 10.29773438 6.35494141 11 7 C10.01 7.495 10.01 7.495 9 8 C6.875 7.0625 6.875 7.0625 5 6 C5 5.34 5 4.68 5 4 C4.34 4 3.68 4 3 4 C1.375 2 1.375 2 0 0 Z " fill="#0F0C13" transform="translate(202,40)"/>
<path d="M0 0 C3.47132095 1.40929697 4.88093274 2.90605083 6.75 6.125 C7.39195313 7.21167969 7.39195313 7.21167969 8.046875 8.3203125 C8.51867187 9.15175781 8.51867187 9.15175781 9 10 C5.81288573 8.64479543 4.18554615 7.29900187 2.25 4.4375 C1.82203125 3.81746094 1.3940625 3.19742188 0.953125 2.55859375 C0 1 0 1 0 0 Z " fill="#160814" transform="translate(26,208)"/>
<path d="M0 0 C0.33 0 0.66 0 1 0 C1.66 3.96 2.32 7.92 3 12 C2.01 12.33 1.02 12.66 0 13 C0 8.71 0 4.42 0 0 Z " fill="#241343" transform="translate(171,239)"/>
<path d="M0 0 C1.31611677 0.95336021 2.62778961 1.91285774 3.9375 2.875 C4.66839844 3.40867188 5.39929687 3.94234375 6.15234375 4.4921875 C8 6 8 6 9 8 C5.41209425 7.70100785 4.21833224 7.23013399 1.6875 4.5625 C0 2 0 2 0 0 Z " fill="#742264" transform="translate(47,212)"/>
<path d="M0 0 C0.66 0 1.32 0 2 0 C0.49901406 3.11743233 -1.02431822 6.15501823 -3 9 C-3.99 9 -4.98 9 -6 9 C-5.05016642 7.49460339 -4.08988109 5.99579653 -3.125 4.5 C-2.59132812 3.6646875 -2.05765625 2.829375 -1.5078125 1.96875 C-0.76144531 0.99421875 -0.76144531 0.99421875 0 0 Z " fill="#352777" transform="translate(223,199)"/>
<path d="M0 0 C0.33 0.66 0.66 1.32 1 2 C1.99 2 2.98 2 4 2 C4 2.99 4 3.98 4 5 C3.01 5 2.02 5 1 5 C1 7.97 1 10.94 1 14 C0.67 14 0.34 14 0 14 C0 9.38 0 4.76 0 0 Z " fill="#1A1221" transform="translate(164,184)"/>
<path d="M0 0 C3 1 3 1 4.25 2.75 C5.17574966 5.52724898 4.77341204 7.21571665 4 10 C1.81024227 6.71536341 1.00193437 3.79303725 0 0 Z " fill="#4C46BC" transform="translate(238,84)"/>
<path d="M0 0 C0.66 0.33 1.32 0.66 2 1 C-2.30769231 5.92307692 -2.30769231 5.92307692 -5.8125 6.3125 C-6.8953125 6.1578125 -6.8953125 6.1578125 -8 6 C-5.63404067 3.38499232 -3.13950774 1.61000397 0 0 Z " fill="#150E2F" transform="translate(197,238)"/>
<path d="M0 0 C0.33 0 0.66 0 1 0 C0.88541307 1.43836751 0.75790884 2.87570966 0.625 4.3125 C0.55539062 5.11300781 0.48578125 5.91351563 0.4140625 6.73828125 C0 9 0 9 -2 12 C-2.28571429 3.42857143 -2.28571429 3.42857143 0 0 Z " fill="#7F166A" transform="translate(10,78)"/>
<path d="M0 0 C4.43458973 1.3937282 6.87378374 3.60582235 10 7 C7.0625 6.1875 7.0625 6.1875 4 5 C3.67 4.01 3.34 3.02 3 2 C2.01 1.67 1.02 1.34 0 1 C0 0.67 0 0.34 0 0 Z " fill="#09070A" transform="translate(192,32)"/>
<path d="M0 0 C3.43595166 1.52708963 6.11912454 3.59927045 9 6 C6.75 6.375 6.75 6.375 4 6 C1.6875 3 1.6875 3 0 0 Z " fill="#270A23" transform="translate(49,230)"/>
<path d="M0 0 C2.97 1.65 5.94 3.3 9 5 C6 6 6 6 2.8125 4.5625 C1.884375 4.046875 0.95625 3.53125 0 3 C0 2.01 0 1.02 0 0 Z " fill="#6A2464" transform="translate(68,228)"/>
<path d="M0 0 C0.99 0 1.98 0 3 0 C3 1.65 3 3.3 3 5 C2.34 5 1.68 5 1 5 C0.67 6.32 0.34 7.64 0 9 C0 6.03 0 3.06 0 0 Z " fill="#2B1D30" transform="translate(108,136)"/>
<path d="M0 0 C1.65 1.32 3.3 2.64 5 4 C4.67 5.32 4.34 6.64 4 8 C4 7.34 4 6.68 4 6 C3.01 5.67 2.02 5.34 1 5 C-0.1875 2.9375 -0.1875 2.9375 -1 1 C-0.67 0.67 -0.34 0.34 0 0 Z " fill="#080807" transform="translate(216,52)"/>
<path d="M0 0 C0.66 0.33 1.32 0.66 2 1 C0.68 2.32 -0.64 3.64 -2 5 C-3.32 4.34 -4.64 3.68 -6 3 C-4.03533587 1.93224776 -2.03144641 0.93446535 0 0 Z " fill="#1A0F38" transform="translate(184,245)"/>
<path d="M0 0 C0.99 0 1.98 0 3 0 C3 1.98 3 3.96 3 6 C2.01 6 1.02 6 0 6 C0 4.02 0 2.04 0 0 Z " fill="#B7059A" transform="translate(80,186)"/>
<path d="M0 0 C0 0.66 0 1.32 0 2 C-2.31 2.66 -4.62 3.32 -7 4 C-6.67 3.01 -6.34 2.02 -6 1 C-4 0 -4 0 0 0 Z " fill="#0B0713" transform="translate(180,249)"/>
<path d="M0 0 C0 0.99 0 1.98 0 3 C-2.375 4.75 -2.375 4.75 -5 6 C-5.66 5.67 -6.32 5.34 -7 5 C-4.53846154 1.18461538 -4.53846154 1.18461538 -1.8125 0.25 C-1.214375 0.1675 -0.61625 0.085 0 0 Z " fill="#08050C" transform="translate(203,236)"/>
<path d="M0 0 C0.33 0 0.66 0 1 0 C0.88590407 1.45922693 0.75834456 2.91740598 0.625 4.375 C0.55539063 5.18710938 0.48578125 5.99921875 0.4140625 6.8359375 C0 9 0 9 -2 11 C-2.19622241 6.78121808 -1.80230168 3.82989106 0 0 Z " fill="#2C2F84" transform="translate(255,155)"/>
<path d="M0 0 C0.99 0 1.98 0 3 0 C3 1.98 3 3.96 3 6 C2.01 6 1.02 6 0 6 C0 4.02 0 2.04 0 0 Z " fill="#75126C" transform="translate(179,77)"/>
<path d="M0 0 C0.99 0 1.98 0 3 0 C2.67 2.31 2.34 4.62 2 7 C0 5 0 5 -0.125 2.375 C-0.08375 1.59125 -0.0425 0.8075 0 0 Z " fill="#AF0D99" transform="translate(108,68)"/>
</svg>
