<?xml version="1.0" encoding="UTF-8"?>
<svg version="1.1" xmlns="http://www.w3.org/2000/svg" width="240" height="180">
<path d="M0 0 C79.2 0 158.4 0 240 0 C240 59.4 240 118.8 240 180 C160.8 180 81.6 180 0 180 C0 120.6 0 61.2 0 0 Z " fill="#121244" transform="translate(0,0)"/>
<path d="M0 0 C2.125 1.125 2.125 1.125 3.125 4.125 C4.73375 4.186875 4.73375 4.186875 6.375 4.25 C13.59832972 5.16418255 21.51673611 8.73603036 26.3125 14.3125 C28.125 17.125 28.125 17.125 29.125 20.125 C23.00226274 18.48266577 17.04262625 16.44976587 11.125 14.1875 C10.4662085 13.94692871 9.80741699 13.70635742 9.12866211 13.45849609 C6.22948673 12.32293864 4.42340427 11.57990434 2.6875 8.93359375 C2.501875 8.33675781 2.31625 7.73992187 2.125 7.125 C0.45888095 7.082279 -1.20882885 7.08436168 -2.875 7.125 C-4.17133621 8.19145115 -4.17133621 8.19145115 -3.9375 10.6875 C-3.916875 11.491875 -3.89625 12.29625 -3.875 13.125 C0.22723585 14.14040112 0.22723585 14.14040112 4.125 13.125 C6.53930664 13.82177734 6.53930664 13.82177734 9.53515625 14.9609375 C10.60701172 15.36570312 11.67886719 15.77046875 12.78320312 16.1875 C13.90662109 16.620625 15.03003906 17.05375 16.1875 17.5 C17.87842773 18.13808594 17.87842773 18.13808594 19.60351562 18.7890625 C27.97396593 21.97396593 27.97396593 21.97396593 29.125 23.125 C29.3984375 24.91015625 29.3984375 24.91015625 29.5 27.1875 C29.54898438 27.92097656 29.59796875 28.65445313 29.6484375 29.41015625 C28.66598313 34.50572185 26.13344116 38.52943152 22.06445312 41.76196289 C19.65123918 43.31611959 17.19945011 44.73627001 14.6875 46.125 C13.80239746 46.63409912 12.91729492 47.14319824 12.00537109 47.66772461 C10.2229941 48.69025973 8.43592791 49.70466883 6.64404297 50.71044922 C4.38801408 51.9773063 2.14620329 53.26471325 -0.08984375 54.56640625 C-3.33522775 56.44982456 -6.58751198 58.31557357 -9.875 60.125 C-10.89078125 60.68703125 -11.9065625 61.2490625 -12.953125 61.828125 C-15.87475818 63.12489267 -17.59946984 63.45570592 -20.75 63.3125 C-21.92175781 63.27189453 -21.92175781 63.27189453 -23.1171875 63.23046875 C-23.69726562 63.19566406 -24.27734375 63.16085938 -24.875 63.125 C-21.52872327 59.69385393 -18.08537746 56.5329209 -14.375 53.5 C-13.4571875 52.74460938 -12.539375 51.98921875 -11.59375 51.2109375 C-6.83034118 47.55625315 -3.98998032 45.69837347 2.125 46.125 C2.16754356 44.12545254 2.16580783 42.12458364 2.125 40.125 C1.05854885 38.82866379 1.05854885 38.82866379 -1.4375 39.0625 C-2.241875 39.083125 -3.04625 39.10375 -3.875 39.125 C-4.20628906 40.14078125 -4.53757813 41.1565625 -4.87890625 42.203125 C-6.97644231 47.08958437 -10.66877012 49.72175882 -14.8125 52.875 C-15.52857422 53.43832031 -16.24464844 54.00164062 -16.98242188 54.58203125 C-18.93478747 56.11280168 -20.89861954 57.62541071 -22.875 59.125 C-23.90862671 59.96853027 -23.90862671 59.96853027 -24.96313477 60.82910156 C-26.875 62.125 -26.875 62.125 -29.25 61.75 C-33.37125957 59.19874408 -36.69932937 55.47634126 -38.875 51.125 C-38.94533769 49.25120395 -38.9593022 47.37498898 -38.9375 45.5 C-38.92847656 44.49710938 -38.91945313 43.49421875 -38.91015625 42.4609375 C-38.89855469 41.69007812 -38.88695313 40.91921875 -38.875 40.125 C-35.18738573 38.89579524 -34.20946732 39.86573437 -30.8359375 41.41015625 C-26.50055988 42.99058275 -22.38194558 42.74988293 -18.10546875 40.9765625 C-14.15018924 38.70957037 -10.7598033 36.01953898 -7.25 33.125 C-5.94568898 32.06203787 -4.64101221 30.99952436 -3.3359375 29.9375 C-2.73491211 29.44636719 -2.13388672 28.95523438 -1.51464844 28.44921875 C0.33035504 26.95915043 2.21041631 25.52449265 4.125 24.125 C-1.99380727 21.3591755 -8.16368192 18.73643773 -14.37109375 16.17578125 C-15.89218963 15.53744304 -17.39954526 14.86272737 -18.875 14.125 C-19.11805768 9.99301937 -18.67214891 6.87557164 -16.875 3.125 C-11.47812537 -2.57818373 -7.28694631 -2.21776627 0 0 Z " fill="#71BB50" transform="translate(124.875,63.875)"/>
<path d="M0 0 C2.83183272 1.51776648 5.54744566 3.15322449 8.26953125 4.859375 C9.17445312 5.3853125 10.079375 5.91125 11.01171875 6.453125 C15.36142424 8.98292404 19.453547 11.55218865 23.26953125 14.859375 C21.99078125 14.75625 20.71203125 14.653125 19.39453125 14.546875 C18.67523438 14.48886719 17.9559375 14.43085937 17.21484375 14.37109375 C15.26953125 13.859375 15.26953125 13.859375 13.26953125 10.859375 C8.63232606 8.70253538 5.21485212 8.64637177 0.26953125 9.859375 C-1.52432867 11.3172936 -1.52432867 11.3172936 -2.73046875 12.859375 C-3.39046875 12.859375 -4.05046875 12.859375 -4.73046875 12.859375 C-4.68921875 13.560625 -4.64796875 14.261875 -4.60546875 14.984375 C-4.74715207 18.24309128 -5.59781561 20.8153697 -6.73046875 23.859375 C-5.86421875 24.13910156 -4.99796875 24.41882813 -4.10546875 24.70703125 C3.22560015 27.21011612 10.41626207 30.24237182 17.26953125 33.859375 C16.60953125 34.38273437 15.94953125 34.90609375 15.26953125 35.4453125 C12.98142035 37.28652674 10.71463081 39.14544417 8.45703125 41.0234375 C7.77382812 41.58804688 7.090625 42.15265625 6.38671875 42.734375 C4.97141636 43.90421904 3.55996384 45.0787359 2.15234375 46.2578125 C-3.27440834 50.72208403 -7.3125782 53.28104824 -14.6015625 53.12890625 C-18.23709881 52.66862734 -21.35468126 51.25625258 -24.73046875 49.859375 C-25.39046875 49.859375 -26.05046875 49.859375 -26.73046875 49.859375 C-26.82977651 44.57581998 -26.90214339 39.29281516 -26.95019531 34.00854492 C-26.97023876 32.21320118 -26.99748126 30.41792213 -27.03222656 28.62280273 C-27.08106724 26.0335285 -27.10350995 23.4451216 -27.12109375 20.85546875 C-27.14173889 20.06039413 -27.16238403 19.26531952 -27.18365479 18.44615173 C-27.18590401 12.78623043 -25.8913471 9.55967766 -22.73046875 4.859375 C-22.40046875 4.859375 -22.07046875 4.859375 -21.73046875 4.859375 C-21.22259829 7.85822914 -20.7240025 10.85815626 -20.23046875 13.859375 C-20.08738281 14.69855469 -19.94429688 15.53773437 -19.796875 16.40234375 C-18.94639631 21.62671285 -18.4897886 26.56441165 -18.73046875 31.859375 C-19.22546875 32.354375 -19.22546875 32.354375 -19.73046875 32.859375 C-19.89713542 35.359375 -19.89713542 35.359375 -19.73046875 37.859375 C-18.67088105 39.14260047 -18.67088105 39.14260047 -16.23046875 38.984375 C-13.79005645 39.14260047 -13.79005645 39.14260047 -12.73046875 37.859375 C-12.39703324 35.40145471 -12.39703324 35.40145471 -12.73046875 32.859375 C-13.72046875 32.199375 -14.71046875 31.539375 -15.73046875 30.859375 C-16.42236328 28.81567383 -16.42236328 28.81567383 -16.86328125 26.31640625 C-17.02957031 25.40697266 -17.19585937 24.49753906 -17.3671875 23.56054688 C-17.52832031 22.60728516 -17.68945312 21.65402344 -17.85546875 20.671875 C-18.02433594 19.73794922 -18.19320312 18.80402344 -18.3671875 17.84179688 C-19.25758491 12.8604791 -20.05080912 7.87359857 -20.73046875 2.859375 C-13.82792788 -1.23101959 -7.7312951 -3.22966834 0 0 Z " fill="#0975B6" transform="translate(112.73046875,54.140625)"/>
<path d="M0 0 C2.125 1.125 2.125 1.125 3.125 4.125 C4.73375 4.186875 4.73375 4.186875 6.375 4.25 C13.59832972 5.16418255 21.51673611 8.73603036 26.3125 14.3125 C28.125 17.125 28.125 17.125 29.125 20.125 C23.00226274 18.48266577 17.04262625 16.44976587 11.125 14.1875 C10.4662085 13.94692871 9.80741699 13.70635742 9.12866211 13.45849609 C6.22948673 12.32293864 4.42340427 11.57990434 2.6875 8.93359375 C2.501875 8.33675781 2.31625 7.73992187 2.125 7.125 C0.45888095 7.082279 -1.20882885 7.08436168 -2.875 7.125 C-4.17133621 8.19145115 -4.17133621 8.19145115 -3.9375 10.6875 C-3.916875 11.491875 -3.89625 12.29625 -3.875 13.125 C0.22723585 14.14040112 0.22723585 14.14040112 4.125 13.125 C6.53930664 13.82177734 6.53930664 13.82177734 9.53515625 14.9609375 C10.60701172 15.36570312 11.67886719 15.77046875 12.78320312 16.1875 C13.90662109 16.620625 15.03003906 17.05375 16.1875 17.5 C17.87842773 18.13808594 17.87842773 18.13808594 19.60351562 18.7890625 C27.97396593 21.97396593 27.97396593 21.97396593 29.125 23.125 C29.3984375 24.91015625 29.3984375 24.91015625 29.5 27.1875 C29.54898438 27.92097656 29.59796875 28.65445313 29.6484375 29.41015625 C28.63517929 34.66548801 26.07697095 38.61724627 21.83886719 41.89086914 C19.20811374 43.56537013 16.54011357 45.11372859 13.8125 46.625 C12.88115234 47.16125 11.94980469 47.6975 10.99023438 48.25 C8.7110045 49.55909613 6.4233226 50.84982226 4.125 52.125 C3.795 50.805 3.465 49.485 3.125 48.125 C4.115 48.125 5.105 48.125 6.125 48.125 C6.125 47.465 6.125 46.805 6.125 46.125 C7.300625 45.691875 7.300625 45.691875 8.5 45.25 C11.22171632 44.27587746 11.22171632 44.27587746 13.125 42.125 C13.95658014 37.3368491 13.86298404 32.51379421 11.375 28.25 C8.16536604 24.35649516 3.90516663 23.37737591 -0.8046875 22.0234375 C-7.1374546 20.17033771 -13.01789738 17.12864237 -18.875 14.125 C-19.11805768 9.99301937 -18.67214891 6.87557164 -16.875 3.125 C-11.47812537 -2.57818373 -7.28694631 -2.21776627 0 0 Z " fill="#F17737" transform="translate(124.875,63.875)"/>
<path d="M0 0 C16.83 0 33.66 0 51 0 C51 11.88 51 23.76 51 36 C48 35 48 35 46.82421875 33.13671875 C46.44910156 32.32847656 46.07398438 31.52023438 45.6875 30.6875 C45.2646875 29.79417969 44.841875 28.90085937 44.40625 27.98046875 C43.9421875 26.99691406 43.478125 26.01335938 43 25 C41.38510172 21.81971684 39.76123545 18.64412772 38.13671875 15.46875 C37 13 37 13 37 11 C36.410979 10.95512451 35.82195801 10.91024902 35.21508789 10.86401367 C32.49649837 10.65018006 29.77964505 10.41894026 27.0625 10.1875 C25.67321289 10.08211914 25.67321289 10.08211914 24.25585938 9.97460938 C15.12743264 9.17387019 7.78441206 6.80314787 0 2 C0 1.34 0 0.68 0 0 Z " fill="#9EC534" transform="translate(189,0)"/>
<path d="M0 0 C3 1 3 1 4.4296875 3.37109375 C4.90664062 4.38300781 5.38359375 5.39492187 5.875 6.4375 C6.39191406 7.51515625 6.90882813 8.5928125 7.44140625 9.703125 C7.95574219 10.79109375 8.47007813 11.8790625 9 13 C9.93190053 14.89859202 10.8688463 16.79472215 11.8125 18.6875 C12.21082031 19.49574219 12.60914063 20.30398437 13.01953125 21.13671875 C13.86162375 22.96045099 13.86162375 22.96045099 15 24 C17.07748569 24.19483046 19.15563733 24.38428547 21.23608398 24.54443359 C32.30050754 25.42723892 41.85995807 26.85995807 50 35 C33.5 35 17 35 0 35 C0 23.45 0 11.9 0 0 Z " fill="#149CD3" transform="translate(0,145)"/>
<path d="M0 0 C3.27961986 1.68110885 6.1421626 3.68059574 9 6 C7 8 7 8 4.1875 9.375 C-1.46960103 12.18491957 -1.46960103 12.18491957 -4.8125 17.25 C-4.874375 17.8275 -4.93625 18.405 -5 19 C-5.99 19 -6.98 19 -8 19 C-7.65555119 21.47266765 -7.65555119 21.47266765 -7 24 C-6.34 24.33 -5.68 24.66 -5 25 C-5.33 28.3 -5.66 31.6 -6 35 C-6.66 35 -7.32 35 -8 35 C-8 34.34 -8 33.68 -8 33 C-9.65 32.67 -11.3 32.34 -13 32 C-13.6485549 28.64635373 -14.2933479 25.29199449 -14.9375 21.9375 C-15.11990234 20.99455078 -15.30230469 20.05160156 -15.49023438 19.08007812 C-16.45149032 14.06406984 -17.33279224 9.06375577 -18 4 C-12.03205642 0.46344084 -6.97280575 -1.47810629 0 0 Z " fill="#129CE1" transform="translate(110,53)"/>
<path d="M0 0 C0.33 0 0.66 0 1 0 C1.33 1.65 1.66 3.3 2 5 C6.10223585 6.01540112 6.10223585 6.01540112 10 5 C12.41430664 5.69677734 12.41430664 5.69677734 15.41015625 6.8359375 C16.48201172 7.24070312 17.55386719 7.64546875 18.65820312 8.0625 C19.78162109 8.495625 20.90503906 8.92875 22.0625 9.375 C23.75342773 10.01308594 23.75342773 10.01308594 25.47851562 10.6640625 C33.84896593 13.84896593 33.84896593 13.84896593 35 15 C35.91851303 20.9965779 34.97597975 25.32218507 31.5 30.26953125 C29.22314427 32.89621638 27.08861162 34.38855046 24 36 C23.01 36 22.02 36 21 36 C21 35.34 21 34.68 21 34 C21.78375 33.7525 22.5675 33.505 23.375 33.25 C26.06069297 32.21526278 26.06069297 32.21526278 27.4375 30.125 C28.21973702 27.99889074 28.21973702 27.99889074 27.25 26 C26.8375 25.34 26.425 24.68 26 24 C25.67 23.278125 25.34 22.55625 25 21.8125 C24.12855431 19.82798477 24.12855431 19.82798477 22 19 C22 18.34 22 17.68 22 17 C21.38253906 16.82984375 20.76507813 16.6596875 20.12890625 16.484375 C5.54109285 12.31008441 5.54109285 12.31008441 0.9375 8.125 C-0.29742569 5.3258351 -0.20608897 3.02263816 0 0 Z " fill="#F68E2E" transform="translate(119,72)"/>
<path d="M0 0 C8.25304277 2.66504506 16.32554582 5.94959363 24 10 C17.33333333 15.33333333 10.66666667 20.66666667 4 26 C3.34 25.67 2.68 25.34 2 25 C1.62109375 22.48046875 1.62109375 22.48046875 1.4375 19.1875 C1.3653125 18.0221875 1.293125 16.856875 1.21875 15.65625 C1.1465625 14.4496875 1.074375 13.243125 1 12 C0.81909457 9.7286318 0.63209171 7.45773663 0.4375 5.1875 C0.35371094 4.19105469 0.26992187 3.19460937 0.18359375 2.16796875 C0.12300781 1.45253906 0.06242187 0.73710938 0 0 Z " fill="#141145" transform="translate(106,78)"/>
<path d="M0 0 C3.4737501 1.76964628 6.42656927 3.52949273 9.4375 6 C12.71802851 8.56041249 16.24191351 10.24684799 20 12 C20.33 11.34 20.66 10.68 21 10 C23.4375 8.3125 23.4375 8.3125 26 7 C26.66 7.33 27.32 7.66 28 8 C25.03065554 10.70259484 22.02476798 13.35962009 19 16 C18.19949219 16.71285156 17.39898437 17.42570312 16.57421875 18.16015625 C15.80722656 18.80855469 15.04023437 19.45695312 14.25 20.125 C13.55390625 20.72570312 12.8578125 21.32640625 12.140625 21.9453125 C10 23 10 23 7.4375 22.3984375 C4.96227925 20.97835893 3.52896176 19.70965777 1.75 17.5 C0.99976562 16.58734375 0.99976562 16.58734375 0.234375 15.65625 C-2.14606302 12.46224455 -2.10827029 10.31124527 -2.0625 6.375 C-2.05347656 5.37210937 -2.04445313 4.36921875 -2.03515625 3.3359375 C-2.02355469 2.56507812 -2.01195313 1.79421875 -2 1 C-1.34 0.67 -0.68 0.34 0 0 Z " fill="#AEC522" transform="translate(88,103)"/>
<path d="M0 0 C3.85691628 1.85054064 7.54423295 3.99343074 11.25 6.125 C12.22453125 6.68380859 12.22453125 6.68380859 13.21875 7.25390625 C14.81306224 8.16829121 16.4066079 9.08401256 18 10 C14.67212881 11.1092904 13.3006216 11.01557588 10 10 C9.34 9.01 8.68 8.02 8 7 C3.36279481 4.84316038 -0.05467913 4.78699677 -5 6 C-6.79385992 7.4579186 -6.79385992 7.4579186 -8 9 C-8.66 9 -9.32 9 -10 9 C-9.979375 9.804375 -9.95875 10.60875 -9.9375 11.4375 C-10 14 -10 14 -11 15 C-11.68643199 22.1835906 -10.51497868 29.30079995 -9.4375 36.38671875 C-9.00439315 39.96371732 -8.92607771 43.40090838 -9 47 C-13.8674203 49.43371015 -18.83252907 49.9423378 -24.03515625 48.39453125 C-28.75796332 46.48407336 -28.75796332 46.48407336 -30 44 C-30.07092842 41.7927077 -30.08415025 39.58332548 -30.0625 37.375 C-30.05347656 36.18648437 -30.04445313 34.99796875 -30.03515625 33.7734375 C-30.02355469 32.85820313 -30.01195313 31.94296875 -30 31 C-29.67 31 -29.34 31 -29 31 C-28.90203125 31.91523437 -28.8040625 32.83046875 -28.703125 33.7734375 C-28.55359375 34.96195313 -28.4040625 36.15046875 -28.25 37.375 C-28.11078125 38.55835938 -27.9715625 39.74171875 -27.828125 40.9609375 C-27.31349294 44.02598886 -27.31349294 44.02598886 -25.28125 45.375 C-22.58325101 46.11417781 -20.04070047 46.42566425 -17.25 46.625 C-16.26515625 46.69976562 -15.2803125 46.77453125 -14.265625 46.8515625 C-13.51796875 46.90054688 -12.7703125 46.94953125 -12 47 C-13.32 46.67 -14.64 46.34 -16 46 C-16.6875 44.1875 -16.6875 44.1875 -17 42 C-15.5625 40.25 -15.5625 40.25 -14 39 C-14.474375 38.67 -14.94875 38.34 -15.4375 38 C-17.85791615 34.90186733 -17.68198917 31.87973208 -18 28 C-17.34 28 -16.68 28 -16 28 C-16 28.66 -16 29.32 -16 30 C-15.34 30 -14.68 30 -14 30 C-14.020625 28.906875 -14.04125 27.81375 -14.0625 26.6875 C-14 23 -14 23 -13 20 C-13.99 19.67 -14.98 19.34 -16 19 C-16 17.35 -16 15.7 -16 14 C-15.01 14 -14.02 14 -13 14 C-13 13.29875 -13 12.5975 -13 11.875 C-11.24482599 6.82887473 -6.34441421 4.21877147 -1.73828125 1.82421875 C-1.16464844 1.55222656 -0.59101562 1.28023437 0 1 C0 0.67 0 0.34 0 0 Z " fill="#156AA2" transform="translate(118,58)"/>
<path d="M0 0 C3.14838995 0.65139102 5.78928088 1.24873693 8.625 2.75 C8.955 3.74 9.285 4.73 9.625 5.75 C11.23375 5.811875 11.23375 5.811875 12.875 5.875 C20.09832972 6.78918255 28.01673611 10.36103036 32.8125 15.9375 C34.625 18.75 34.625 18.75 35.625 21.75 C29.50226274 20.10766577 23.54262625 18.07476587 17.625 15.8125 C16.9662085 15.57192871 16.30741699 15.33135742 15.62866211 15.08349609 C12.72948673 13.94793864 10.92340427 13.20490434 9.1875 10.55859375 C9.001875 9.96175781 8.81625 9.36492187 8.625 8.75 C4.99614676 8.59850702 4.99614676 8.59850702 1.625 9.75 C2.4375 7.8125 2.4375 7.8125 3.625 5.75 C4.615 5.42 5.605 5.09 6.625 4.75 C2.995 4.75 -0.635 4.75 -4.375 4.75 C-4.375 4.09 -4.375 3.43 -4.375 2.75 C-5.035 2.42 -5.695 2.09 -6.375 1.75 C-3.375 -0.25 -3.375 -0.25 0 0 Z " fill="#DF844B" transform="translate(118.375,62.25)"/>
<path d="M0 0 C9.57 0 19.14 0 29 0 C28.67 1.98 28.34 3.96 28 6 C30.64 6.33 33.28 6.66 36 7 C36 7.99 36 8.98 36 10 C28.03532096 12.65489301 14.67431032 9.86103104 7.1015625 6.4609375 C4.6189783 5.08606804 2.28061837 3.68591167 0 2 C0 1.34 0 0.68 0 0 Z " fill="#31704B" transform="translate(189,0)"/>
<path d="M0 0 C3.73456644 2.65350773 5.85100903 4.50848985 7 9 C7.07646165 11.3320802 7.09143299 13.66845878 7 16 C6.01 16 5.02 16 4 16 C4 17.65 4 19.3 4 21 C2.35 20.67 0.7 20.34 -1 20 C-1.66 17.69 -2.32 15.38 -3 13 C-5.64 13 -8.28 13 -11 13 C-10.43497298 8.96409271 -10.04016438 6.87662848 -6.86328125 4.19921875 C-4.61284787 2.71894938 -2.34818448 1.3190419 0 0 Z " fill="#3BB450" transform="translate(130,88)"/>
<path d="M0 0 C2.5625 0.1875 2.5625 0.1875 4.5625 2.1875 C4.1875 5.3125 4.1875 5.3125 3.5625 8.1875 C2.5209375 8.26613281 1.479375 8.34476563 0.40625 8.42578125 C-3.91155848 9.28144452 -5.66446552 10.50146826 -8.9375 13.375 C-10.33935547 14.58542969 -10.33935547 14.58542969 -11.76953125 15.8203125 C-12.64996094 16.60148437 -13.53039062 17.38265625 -14.4375 18.1875 C-15.83164693 19.37697942 -17.22718447 20.56483389 -18.625 21.75 C-19.553125 22.554375 -20.48125 23.35875 -21.4375 24.1875 C-18.7975 24.1875 -16.1575 24.1875 -13.4375 24.1875 C-13.4375 25.1775 -13.4375 26.1675 -13.4375 27.1875 C-17.0675 27.1875 -20.6975 27.1875 -24.4375 27.1875 C-24.4375 26.5275 -24.4375 25.8675 -24.4375 25.1875 C-25.38625 25.208125 -26.335 25.22875 -27.3125 25.25 C-30.4375 25.1875 -30.4375 25.1875 -32.4375 24.1875 C-33.48394066 22.54959288 -34.4773183 20.87741979 -35.4375 19.1875 C-36.015 18.300625 -36.5925 17.41375 -37.1875 16.5 C-37.80625 15.3553125 -37.80625 15.3553125 -38.4375 14.1875 C-38.1075 13.5275 -37.7775 12.8675 -37.4375 12.1875 C-37.05078125 12.73019531 -36.6640625 13.27289063 -36.265625 13.83203125 C-35.48445313 14.90517578 -35.48445313 14.90517578 -34.6875 16 C-33.92179687 17.06154297 -33.92179687 17.06154297 -33.140625 18.14453125 C-31.33135373 20.31482683 -29.94595212 21.86359472 -27.4375 23.1875 C-23.47592879 22.26417317 -21.03860005 20.18597829 -18.125 17.4375 C-15.19959996 14.72734679 -12.28513883 12.32028632 -9 10.0625 C-5.5275221 7.54770946 -4.3338287 5.46995936 -3.4375 1.1875 C-2.4375 0.1875 -2.4375 0.1875 0 0 Z " fill="#181C19" transform="translate(123.4375,101.8125)"/>
<path d="M0 0 C12.82727594 0.15677782 24.40116976 0.40116976 34 10 C28.06 10 22.12 10 16 10 C16 9.01 16 8.02 16 7 C13.36 6.67 10.72 6.34 8 6 C8 5.34 8 4.68 8 4 C5.03 3.505 5.03 3.505 2 3 C2 2.34 2 1.68 2 1 C1.34 0.67 0.68 0.34 0 0 Z " fill="#134984" transform="translate(16,170)"/>
<path d="M0 0 C1.98 0.66 3.96 1.32 6 2 C6 2.66 6 3.32 6 4 C6.99 4.33 7.98 4.66 9 5 C11.86935543 8.68917126 13 10.24432324 13 15 C12.34 15 11.68 15 11 15 C10.67 15.99 10.34 16.98 10 18 C8.35 18.33 6.7 18.66 5 19 C5.33 19.99 5.66 20.98 6 22 C0.06 25.465 0.06 25.465 -6 29 C-6.33 27.68 -6.66 26.36 -7 25 C-6.01 25 -5.02 25 -4 25 C-4 24.34 -4 23.68 -4 23 C-3.21625 22.71125 -2.4325 22.4225 -1.625 22.125 C1.09671632 21.15087746 1.09671632 21.15087746 3 19 C3.84173032 12.92205122 3.11447637 8.32056379 0 3 C0 2.01 0 1.02 0 0 Z " fill="#F0792A" transform="translate(135,87)"/>
<path d="M0 0 C0.9075 0.226875 1.815 0.45375 2.75 0.6875 C0.52810176 2.90939824 -1.33482708 3.61348892 -4.25 4.6875 C-4.25 5.3475 -4.25 6.0075 -4.25 6.6875 C-3.5075 6.378125 -2.765 6.06875 -2 5.75 C0.25692176 4.8780075 2.3950153 4.21082993 4.75 3.6875 C3.26975743 7.67210645 1.21559516 8.84651887 -2.5 10.75 C-3.49257812 11.25917969 -4.48515625 11.76835938 -5.5078125 12.29296875 C-6.86519531 12.98326172 -6.86519531 12.98326172 -8.25 13.6875 C-9.28125 14.30625 -10.3125 14.925 -11.375 15.5625 C-15.36444007 17.12358524 -19.01883552 16.94136987 -23.25 16.6875 C-19.89184608 13.23792629 -16.42876604 10.09089616 -12.6875 7.0625 C-11.75808594 6.30710937 -10.82867187 5.55171875 -9.87109375 4.7734375 C-9.00613281 4.08507812 -8.14117187 3.39671875 -7.25 2.6875 C-6.54488281 2.09582031 -5.83976562 1.50414063 -5.11328125 0.89453125 C-3.25 -0.3125 -3.25 -0.3125 0 0 Z " fill="#8DBF4D" transform="translate(123.25,110.3125)"/>
<path d="M0 0 C5.75 0.875 5.75 0.875 8 2 C8 2.66 8 3.32 8 4 C8.61875 4.28875 9.2375 4.5775 9.875 4.875 C12 6 12 6 14 8 C14.14507695 10.74485593 14.18652423 13.38480543 14.125 16.125 C14.11597656 16.87910156 14.10695312 17.63320313 14.09765625 18.41015625 C14.0740687 20.27357254 14.03819719 22.13682593 14 24 C11 23 11 23 9.82421875 21.171875 C9.44910156 20.37265625 9.07398438 19.5734375 8.6875 18.75 C8.2646875 17.86054688 7.841875 16.97109375 7.40625 16.0546875 C6.9421875 15.04664063 6.478125 14.03859375 6 13 C5.4534375 11.82695312 4.906875 10.65390625 4.34375 9.4453125 C2.88537009 6.30154072 1.43815347 3.15306499 0 0 Z " fill="#96B031" transform="translate(226,12)"/>
<path d="M0 0 C4.57756359 0.31210661 8.00574046 1.81266739 12 4 C12.63511451 10.09709925 12.05997241 14.2026387 8.5 19.26953125 C6.22314427 21.89621638 4.08861162 23.38855046 1 25 C0.01 25 -0.98 25 -2 25 C-2 24.34 -2 23.68 -2 23 C-1.21625 22.7525 -0.4325 22.505 0.375 22.25 C3.48487879 20.76910534 3.8088192 20.1481207 5 17 C5.28480806 14.9257375 5.48874224 12.83928561 5.625 10.75 C5.69976562 9.67234375 5.77453125 8.5946875 5.8515625 7.484375 C5.90054688 6.66453125 5.94953125 5.8446875 6 5 C5.34 5 4.68 5 4 5 C3.67 5.99 3.34 6.98 3 8 C2.67 6.68 2.34 5.36 2 4 C1.01 4.33 0.02 4.66 -1 5 C-1.33 4.01 -1.66 3.02 -2 2 C-1.34 1.34 -0.68 0.68 0 0 Z " fill="#EBA135" transform="translate(142,83)"/>
<path d="M0 0 C0.33 0 0.66 0 1 0 C1.3383344 2.37438249 1.67079002 4.74934959 2 7.125 C2.09539062 7.79015625 2.19078125 8.4553125 2.2890625 9.140625 C2.83611453 13.12628981 3.10022182 16.97859938 3 21 C1.68 20.67 0.36 20.34 -1 20 C-1 19.34 -1 18.68 -1 18 C-1.66 18 -2.32 18 -3 18 C-2.84660156 18.95003906 -2.69320312 19.90007812 -2.53515625 20.87890625 C-1.86791205 25.54961567 -1.65596436 30.22798139 -1.4375 34.9375 C-1.39431641 35.81212891 -1.35113281 36.68675781 -1.30664062 37.58789062 C-1.20153099 39.72511995 -1.10036015 41.86254238 -1 44 C-2.485 44.495 -2.485 44.495 -4 45 C-4.09930776 39.71644498 -4.17167464 34.43344016 -4.21972656 29.14916992 C-4.23977001 27.35382618 -4.26701251 25.55854713 -4.30175781 23.76342773 C-4.35059849 21.1741535 -4.3730412 18.5857466 -4.390625 15.99609375 C-4.41127014 15.20101913 -4.43191528 14.40594452 -4.45318604 13.58677673 C-4.45543526 7.92685543 -3.16087835 4.70030266 0 0 Z " fill="#21A4D5" transform="translate(90,59)"/>
<path d="M0 0 C0.66 0 1.32 0 2 0 C2 0.66 2 1.32 2 2 C2.70125 2.268125 3.4025 2.53625 4.125 2.8125 C7 4 7 4 9.37109375 5.4921875 C13.77062548 7.3201953 17.70339437 7.55971054 22.41918945 7.97314453 C36.8705477 9.36703725 36.8705477 9.36703725 40.81152344 12.38916016 C43.72133736 16.11171521 44.80234501 20.5087938 46 25 C46.88849077 26.93987152 47.82102502 28.86068935 48.8125 30.75 C49.19019531 31.52859375 49.56789062 32.3071875 49.95703125 33.109375 C50.97323535 35.15829677 50.97323535 35.15829677 53 37 C50 37 50 37 48.375 35.6875 C47 34 47 34 46 31 C45.34 30.67 44.68 30.34 44 30 C43.53130282 28.09173292 43.0653244 26.18273108 42.6171875 24.26953125 C41.98618099 21.94918454 41.22277694 19.82379746 40.25 17.625 C39.96640625 16.97789063 39.6828125 16.33078125 39.390625 15.6640625 C37.26699171 13.12286086 35.191474 12.76446935 32 12 C29.31336106 11.76166913 26.689558 11.58594452 24 11.5 C19.00533542 11.34039606 14.71272425 10.76561218 10 9 C8.54661093 8.60627253 7.08873798 8.22831606 5.625 7.875 C3.830625 7.441875 3.830625 7.441875 2 7 C1.34 4.69 0.68 2.38 0 0 Z " fill="#0E1B21" transform="translate(187,0)"/>
<path d="M0 0 C-1.07401108 2.91517292 -1.77810176 4.77810176 -4 7 C-4.99 7 -5.98 7 -7 7 C-7.33 7.99 -7.66 8.98 -8 10 C-19.70615034 4.03416856 -19.70615034 4.03416856 -24 -1 C-23.505 -0.835 -23.01 -0.67 -22.5 -0.5 C-16.3106837 0.73786326 -10.95655049 -0.0443165 -4.98046875 -1.7578125 C-3 -2 -3 -2 0 0 Z " fill="#97CB3A" transform="translate(116,106)"/>
<path d="M0 0 C0.33 0 0.66 0 1 0 C1.67079695 3.77011077 2.33592803 7.54119936 3 11.3125 C3.19078125 12.38435547 3.3815625 13.45621094 3.578125 14.56054688 C3.75859375 15.58857422 3.9390625 16.61660156 4.125 17.67578125 C4.29257813 18.62364502 4.46015625 19.57150879 4.6328125 20.5480957 C5 23 5 23 5 26 C6.32 26.66 7.64 27.32 9 28 C9.125 30.375 9.125 30.375 9 33 C7 35 7 35 4.5 35.25 C2 35 2 35 0 33 C-0.1875 30.4375 -0.1875 30.4375 0 28 C0.33 27.67 0.66 27.34 1 27 C1.22874211 20.7130577 0.54039967 14.7654984 -0.37695312 8.56054688 C-0.83117154 5.27451161 -1.06494269 3.19482808 0 0 Z " fill="#063066" transform="translate(92,59)"/>
<path d="M0 0 C2.5 0.25 2.5 0.25 4.5 2.25 C4.5 3.24 4.5 4.23 4.5 5.25 C5.69625 5.641875 6.8925 6.03375 8.125 6.4375 C9.91703864 7.04056245 11.70864512 7.6449095 13.5 8.25 C14.70269531 8.64832031 15.90539062 9.04664062 17.14453125 9.45703125 C18.40910459 9.88728549 19.67342823 10.31827438 20.9375 10.75 C22.13246094 11.1521875 23.32742187 11.554375 24.55859375 11.96875 C27.5 13.25 27.5 13.25 29.5 16.25 C23.08176784 15.52065544 17.42123455 13.01903336 11.48828125 10.6015625 C6.60882031 8.70873505 3.72694899 8.06921333 -1.5 9.25 C-2.49 8.59 -3.48 7.93 -4.5 7.25 C-4.8125 4.75 -4.8125 4.75 -4.5 2.25 C-2.5 0.25 -2.5 0.25 0 0 Z " fill="#31130F" transform="translate(124.5,69.75)"/>
<path d="M0 0 C0.90105469 0.02707031 1.80210938 0.05414063 2.73046875 0.08203125 C3.76107422 0.13423828 3.76107422 0.13423828 4.8125 0.1875 C4.46316406 0.87457031 4.11382812 1.56164063 3.75390625 2.26953125 C3.29886719 3.17058594 2.84382813 4.07164063 2.375 5 C1.92253906 5.89332031 1.47007813 6.78664063 1.00390625 7.70703125 C-0.2706605 10.22749478 -0.2706605 10.22749478 -1.1875 13.1875 C-3.4975 13.5175 -5.8075 13.8475 -8.1875 14.1875 C-8.26864106 12.41742286 -8.32675505 10.64627902 -8.375 8.875 C-8.40980469 7.88886719 -8.44460937 6.90273438 -8.48046875 5.88671875 C-8.1875 3.1875 -8.1875 3.1875 -7 1.34375 C-4.55576798 -0.21550146 -2.87485627 -0.11200739 0 0 Z " fill="#1BBBED" transform="translate(103.1875,53.8125)"/>
<path d="M0 0 C0.66 0.33 1.32 0.66 2 1 C2 3.31 2 5.62 2 8 C1.34 8 0.68 8 0 8 C0.33 11.3 0.66 14.6 1 18 C-0.32 17.67 -1.64 17.34 -3 17 C-3 17.99 -3 18.98 -3 20 C-4.32 20.33 -5.64 20.66 -7 21 C-6.01 22.32 -5.02 23.64 -4 25 C-5.32 25.33 -6.64 25.66 -8 26 C-8 25.34 -8 24.68 -8 24 C-10.97 24.33 -13.94 24.66 -17 25 C-17 25.66 -17 26.32 -17 27 C-18.65 27.33 -20.3 27.66 -22 28 C-18.98454739 24.67285397 -15.96337428 22.76331728 -12 20.6875 C-6.63001562 17.60400532 -4.16456506 15.80496994 -2 10 C-1.1736741 6.68497493 -0.51635609 3.37669709 0 0 Z " fill="#28132A" transform="translate(155,86)"/>
<path d="M0 0 C3 1 3 1 4.4296875 3.37109375 C4.90664062 4.38300781 5.38359375 5.39492187 5.875 6.4375 C6.65617188 8.05785156 6.65617188 8.05785156 7.453125 9.7109375 C8.42491522 11.77721872 9.39406402 13.84474642 10.359375 15.9140625 C10.77703125 16.78804687 11.1946875 17.66203125 11.625 18.5625 C11.98851562 19.34753906 12.35203125 20.13257813 12.7265625 20.94140625 C14.1716888 23.27754601 15.80038349 24.3990133 18 26 C18 26.66 18 27.32 18 28 C19.98 28.33 21.96 28.66 24 29 C20.25 30.125 20.25 30.125 18 29 C17.67 29.66 17.34 30.32 17 31 C16.67 29.68 16.34 28.36 16 27 C14.68 26.67 13.36 26.34 12 26 C12 25.01 12 24.02 12 23 C11.38125 22.896875 10.7625 22.79375 10.125 22.6875 C8 22 8 22 6 19 C6 18.01 6 17.02 6 16 C5.34 16 4.68 16 4 16 C4.33 13.69 4.66 11.38 5 9 C4.34 8.67 3.68 8.34 3 8 C3 6.68 3 5.36 3 4 C2.01 3.67 1.02 3.34 0 3 C0 2.01 0 1.02 0 0 Z " fill="#1C8EC1" transform="translate(0,145)"/>
<path d="M0 0 C7.31526327 -0.82468521 11.47388665 0.27114019 17.3828125 4.6875 C18.18332031 5.3371875 18.18332031 5.3371875 19 6 C16.58175467 8.41824533 14.0609509 9.50075874 11 11 C10.01 11.66 9.02 12.32 8 13 C8 12.34 8 11.68 8 11 C7.01 11 6.02 11 5 11 C5 5 5 5 7 2 C4.69 1.67 2.38 1.34 0 1 C0 0.67 0 0.34 0 0 Z " fill="#1A97E6" transform="translate(100,53)"/>
<path d="M0 0 C0.33 0 0.66 0 1 0 C1 3.3 1 6.6 1 10 C3.31 10 5.62 10 8 10 C8.99 12.64 9.98 15.28 11 18 C11.99 18 12.98 18 14 18 C14.33 16.68 14.66 15.36 15 14 C16.32 14.66 17.64 15.32 19 16 C16.69 17.98 14.38 19.96 12 22 C6.74855359 20.60991124 4.12699328 17.1957125 1 13 C-0.32229189 10.35541621 -0.09677194 8.32238699 -0.0625 5.375 C-0.05347656 4.37210937 -0.04445313 3.36921875 -0.03515625 2.3359375 C-0.02355469 1.56507812 -0.01195313 0.79421875 0 0 Z " fill="#CEDD40" transform="translate(86,104)"/>
<path d="M0 0 C3 1 3 1 4 3 C4.039992 4.99960012 4.04346799 7.00047242 4 9 C4.99 9.33 5.98 9.66 7 10 C7 11.98 7 13.96 7 16 C5.35 15.67 3.7 15.34 2 15 C1.34 12.69 0.68 10.38 0 8 C-2.64 8 -5.28 8 -8 8 C-6.49860488 3.79609368 -3.82724957 2.10889262 0 0 Z " fill="#45B747" transform="translate(127,93)"/>
<path d="M0 0 C5.84811631 0.53164694 12.1906284 3.48080761 16 8 C16 8.66 16 9.32 16 10 C12.30962722 11.37095624 10.29116165 10.60010967 6.75 9.0625 C5.85796875 8.68222656 4.9659375 8.30195312 4.046875 7.91015625 C3.03367188 7.45962891 3.03367188 7.45962891 2 7 C2 6.34 2 5.68 2 5 C0.68 4.67 -0.64 4.34 -2 4 C-1 1 -1 1 0 0 Z " fill="#F6902D" transform="translate(134,71)"/>
<path d="M0 0 C1.32 0.33 2.64 0.66 4 1 C4.66 5.29 5.32 9.58 6 14 C6.99 14.33 7.98 14.66 9 15 C8.42415568 17.38564077 7.77772405 19.66682784 7 22 C4.4375 23.1875 4.4375 23.1875 2 24 C1.93941406 23.10539062 1.87882812 22.21078125 1.81640625 21.2890625 C1.32367008 14.17850052 0.76742182 7.08640578 0 0 Z " fill="#0E1252" transform="translate(106,80)"/>
<path d="M0 0 C4.95 0 9.9 0 15 0 C14.67 1.98 14.34 3.96 14 6 C16.64 6.33 19.28 6.66 22 7 C22 7.99 22 8.98 22 10 C18.86650268 11.04449911 18.01031744 10.93423645 15 10 C15 9.01 15 8.02 15 7 C14.33613281 6.81824219 13.67226562 6.63648438 12.98828125 6.44921875 C3.90455531 3.86334056 3.90455531 3.86334056 0 1 C0 0.67 0 0.34 0 0 Z " fill="#63A846" transform="translate(203,0)"/>
<path d="M0 0 C0.99 0.66 1.98 1.32 3 2 C3.47114738 4.7427508 3.17805784 7.19558897 3 10 C2.67 10.33 2.34 10.66 2 11 C1.63239269 13.32817964 1.29758419 15.6618385 1 18 C-2.50625215 15.66249856 -2.77611519 14.17223134 -3.66015625 10.17578125 C-4.14599957 7.06526711 -4.13096531 4.14316756 -4 1 C-3.34 1 -2.68 1 -2 1 C-2 1.66 -2 2.32 -2 3 C-1.34 3 -0.68 3 0 3 C0 2.01 0 1.02 0 0 Z " fill="#188ED0" transform="translate(91,76)"/>
<path d="M0 0 C3.85691628 1.85054064 7.54423295 3.99343074 11.25 6.125 C11.8996875 6.49753906 12.549375 6.87007813 13.21875 7.25390625 C14.81306224 8.16829121 16.4066079 9.08401256 18 10 C14.67212881 11.1092904 13.3006216 11.01557588 10 10 C9.34 9.01 8.68 8.02 8 7 C3.36279481 4.84316038 -0.05467913 4.78699677 -5 6 C-6.79385992 7.4579186 -6.79385992 7.4579186 -8 9 C-8.66 9 -9.32 9 -10 9 C-10 10.65 -10 12.3 -10 14 C-10.99 14.495 -10.99 14.495 -12 15 C-12.5 12.375 -12.5 12.375 -12 9 C-8.55261336 5.50336498 -4.40491611 3.10324823 0 1 C0 0.67 0 0.34 0 0 Z " fill="#4D6790" transform="translate(118,58)"/>
<path d="M0 0 C2.83439137 -0.10901505 5.66450203 -0.18777904 8.5 -0.25 C9.29148437 -0.28351562 10.08296875 -0.31703125 10.8984375 -0.3515625 C16.99672294 -0.45153439 20.7317737 0.93089569 26 4 C25.67 4.99 25.34 5.98 25 7 C22.03 6.01 19.06 5.02 16 4 C16 4.66 16 5.32 16 6 C12.59687262 4.94124926 9.98646769 3.99097846 7 2 C4.67612053 1.60612212 2.34206251 1.26513915 0 1 C0 0.67 0 0.34 0 0 Z " fill="#0E144C" transform="translate(103,52)"/>
<path d="M0 0 C2.5 0.25 2.5 0.25 4.5 2.25 C4.125 5.375 4.125 5.375 3.5 8.25 C1.829375 8.4665625 1.829375 8.4665625 0.125 8.6875 C-3.32142047 9.03372035 -3.32142047 9.03372035 -5.5 10.25 C-4.55211726 0.45521173 -4.55211726 0.45521173 0 0 Z " fill="#052515" transform="translate(123.5,101.75)"/>
<path d="M0 0 C0 0.99 0 1.98 0 3 C-0.66 3 -1.32 3 -2 3 C-2 6.63 -2 10.26 -2 14 C-1.34 14 -0.68 14 0 14 C0.3351658 16.12471175 0.66807829 18.24977905 1 20.375 C1.185625 21.55835937 1.37125 22.74171875 1.5625 23.9609375 C2 27 2 27 2 29 C2.66 29.66 3.32 30.32 4 31 C3.34 31.33 2.68 31.66 2 32 C1.34 31.67 0.68 31.34 0 31 C-0.57836914 29.06982422 -0.57836914 29.06982422 -1.03515625 26.5546875 C-1.20466797 25.64203125 -1.37417969 24.729375 -1.54882812 23.7890625 C-1.71833984 22.82742187 -1.88785156 21.86578125 -2.0625 20.875 C-2.23587891 19.9365625 -2.40925781 18.998125 -2.58789062 18.03125 C-3.50139096 13.03324819 -4.32349213 8.0354503 -5 3 C-3.35 2.01 -1.7 1.02 0 0 Z " fill="#34A3D4" transform="translate(97,54)"/>
<path d="M0 0 C0.66 0 1.32 0 2 0 C2 0.66 2 1.32 2 2 C2.70125 2.268125 3.4025 2.53625 4.125 2.8125 C7 4 7 4 9.5625 5.5 C13.82164317 7.3585352 17.89987149 7.8800572 22.48828125 8.47265625 C23.31714844 8.64667969 24.14601562 8.82070312 25 9 C25.33 9.66 25.66 10.32 26 11 C20.19828115 11.20638526 15.47540004 11.14254784 10 9 C7.34418501 8.2827361 4.67452992 7.64557619 2 7 C1.34 4.69 0.68 2.38 0 0 Z " fill="#0A1F2F" transform="translate(187,0)"/>
<path d="M0 0 C0.99 0 1.98 0 3 0 C3 4.95 3 9.9 3 15 C3.66 15 4.32 15 5 15 C5 13.02 5 11.04 5 9 C5.99 9.33 6.98 9.66 8 10 C7.67 13.3 7.34 16.6 7 20 C6.34 20 5.68 20 5 20 C5 19.34 5 18.68 5 18 C4.34 17.67 3.68 17.34 3 17 C0.73417819 13.57681597 0.6168674 10.2811233 0.375 6.25 C0.30023438 5.07953125 0.22546875 3.9090625 0.1484375 2.703125 C0.09945312 1.81109375 0.05046875 0.9190625 0 0 Z " fill="#0D8ED2" transform="translate(97,68)"/>
<path d="M0 0 C0.99 0.33 1.98 0.66 3 1 C3.91902476 3.75707428 4.51293993 6.16619598 5 9 C5.17917969 9.680625 5.35835937 10.36125 5.54296875 11.0625 C5.95064249 13.51813478 6.01459171 14.70117284 5 17 C1.25787599 19.8747804 -2.74806924 21.97527107 -7 24 C-7.33 22.68 -7.66 21.36 -8 20 C-7.01 20 -6.02 20 -5 20 C-5 19.34 -5 18.68 -5 18 C-4.21625 17.71125 -3.4325 17.4225 -2.625 17.125 C0.09671632 16.15087746 0.09671632 16.15087746 2 14 C2.31948171 11.69835434 2.31948171 11.69835434 2.25 9.125 C2.25515625 8.26132813 2.2603125 7.39765625 2.265625 6.5078125 C1.98890649 3.89526423 1.3185995 2.2499912 0 0 Z " fill="#CA7F45" transform="translate(136,92)"/>
<path d="M0 0 C5.66866368 -0.3235035 9.67830831 0.62480225 14.8125 2.75 C15.81313477 3.12898438 15.81313477 3.12898438 16.83398438 3.515625 C19.77063154 4.70095181 21.68141227 5.51567795 23.44921875 8.203125 C23.63097656 8.79609375 23.81273437 9.3890625 24 10 C18.29000211 8.45549237 13.05732775 6.69199704 7.828125 3.91796875 C5.30775875 2.65240023 2.69634124 1.80890237 0 1 C0 0.67 0 0.34 0 0 Z " fill="#D96C3C" transform="translate(112,80)"/>
<path d="M0 0 C0.66 0.33 1.32 0.66 2 1 C0.64266013 2.35130724 -0.73674638 3.6804718 -2.125 5 C-3.27355469 6.11375 -3.27355469 6.11375 -4.4453125 7.25 C-7.56483929 9.38692355 -9.2911402 9.4430027 -13 9 C-14.875 7.625 -14.875 7.625 -16 6 C-16 5.34 -16 4.68 -16 4 C-10.58461538 2.76923077 -10.58461538 2.76923077 -7.625 3.9375 C-7.08875 4.288125 -6.5525 4.63875 -6 5 C-5.67 4.34 -5.34 3.68 -5 3 C-2.5625 1.3125 -2.5625 1.3125 0 0 Z " fill="#A6D144" transform="translate(114,110)"/>
<path d="M0 0 C5.625 -0.25 5.625 -0.25 9 2 C11.51584891 2.24150773 11.51584891 2.24150773 14.1875 2.125 C15.53908203 2.09792969 15.53908203 2.09792969 16.91796875 2.0703125 C17.94857422 2.03550781 17.94857422 2.03550781 19 2 C20 5 20 5 19 8 C17.35 8 15.7 8 14 8 C14 7.01 14 6.02 14 5 C11.36 4.67 8.72 4.34 6 4 C6 3.34 6 2.68 6 2 C3.03 1.505 3.03 1.505 0 1 C0 0.67 0 0.34 0 0 Z " fill="#095E9E" transform="translate(18,172)"/>
<path d="M0 0 C4.27683498 1.52744106 6.00037651 4.00075302 8 8 C8.54065157 11.42773098 8.60921647 14.5790152 8 18 C6 20.625 6 20.625 4 22 C3.34 21.67 2.68 21.34 2 21 C2.33 19.35 2.66 17.7 3 16 C3.99 16 4.98 16 6 16 C5.36280747 9.62807469 3.52697677 5.29046516 0 0 Z " fill="#758632" transform="translate(131,88)"/>
<path d="M0 0 C0.33 0.99 0.66 1.98 1 3 C3.00016466 4.20882096 3.00016466 4.20882096 5 5 C5.125 7.375 5.125 7.375 5 10 C3 12 3 12 0.375 12.125 C-0.40875 12.08375 -1.1925 12.0425 -2 12 C-2 9.20215289 -1.62804225 7.0209322 -1 4.3125 C-0.814375 3.50425781 -0.62875 2.69601563 -0.4375 1.86328125 C-0.293125 1.24839844 -0.14875 0.63351563 0 0 Z " fill="#012967" transform="translate(96,82)"/>
<path d="M0 0 C8.25304277 2.66504506 16.32554582 5.94959363 24 10 C22 11 22 11 19.6796875 10.2578125 C18.75414063 9.88398437 17.82859375 9.51015625 16.875 9.125 C12.15222757 7.32051515 8.02721798 6.37941268 3 6 C3 5.01 3 4.02 3 3 C2.01 2.67 1.02 2.34 0 2 C0 1.34 0 0.68 0 0 Z " fill="#2F1525" transform="translate(106,78)"/>
<path d="M0 0 C0.66 0.66 1.32 1.32 2 2 C0.576875 2.309375 0.576875 2.309375 -0.875 2.625 C-4.29166667 3.70833333 -4.29166667 3.70833333 -5.375 7.125 C-5.58125 8.07375 -5.7875 9.0225 -6 10 C-6.99 10 -7.98 10 -9 10 C-10.32296047 3.62573591 -10.32296047 3.62573591 -9 1.0625 C-5.94226576 -0.56192132 -3.39237275 -0.30839752 0 0 Z " fill="#F17623" transform="translate(125,66)"/>
<path d="M0 0 C0.99 0 1.98 0 3 0 C3.32613281 0.78503906 3.65226563 1.57007813 3.98828125 2.37890625 C6.29789053 7.93150673 8.61590894 13.47894701 11 19 C11.99 18.34 12.98 17.68 14 17 C14 19.31 14 21.62 14 24 C11 23 11 23 9.82421875 21.171875 C9.44910156 20.37265625 9.07398438 19.5734375 8.6875 18.75 C8.2646875 17.86054688 7.841875 16.97109375 7.40625 16.0546875 C6.9421875 15.04664063 6.478125 14.03859375 6 13 C5.4534375 11.82695312 4.906875 10.65390625 4.34375 9.4453125 C2.88537009 6.30154072 1.43815347 3.15306499 0 0 Z " fill="#839B58" transform="translate(226,12)"/>
<path d="M0 0 C18.8 -0.6 18.8 -0.6 26 3 C26 3.99 26 4.98 26 6 C25.46375 5.80664062 24.9275 5.61328125 24.375 5.4140625 C16.3806127 2.75803251 8.33573608 1.87907887 0 1 C0 0.67 0 0.34 0 0 Z " fill="#05184E" transform="translate(18,169)"/>
<path d="M0 0 C0.66 0 1.32 0 2 0 C2 4.29 2 8.58 2 13 C1.67 12.01 1.34 11.02 1 10 C-0.65 10.66 -2.3 11.32 -4 12 C-3.33501617 7.61110675 -1.81242323 4.0188515 0 0 Z " fill="#F26B27" transform="translate(112,65)"/>
<path d="M0 0 C0.66 0.33 1.32 0.66 2 1 C0.61971938 3.76056123 -1.03271362 4.09703086 -3.8125 5.375 C-6.88575152 6.841977 -8.83154757 7.82192171 -11.1875 10.3125 C-13 12 -13 12 -16.75 12.25 C-17.8225 12.1675 -18.895 12.085 -20 12 C-16.22519947 8.95644355 -12.08025276 6.63473189 -7.875 4.25 C-7.14667969 3.82589844 -6.41835937 3.40179688 -5.66796875 2.96484375 C-3.81355223 1.91252236 -1.90960163 0.94850542 0 0 Z " fill="#2A171D" transform="translate(131,114)"/>
<path d="M0 0 C6.73568206 1.11860434 13.53973004 3.83744678 18.0625 9.125 C20 12 20 12 21 15 C19.02 14.34 17.04 13.68 15 13 C15.66 12.67 16.32 12.34 17 12 C12.13158655 6.52303487 6.40272082 2.9253401 -1 2 C-0.67 1.34 -0.34 0.68 0 0 Z " fill="#CD9C5E" transform="translate(133,69)"/>
<path d="M0 0 C0.99 0 1.98 0 3 0 C3 0.66 3 1.32 3 2 C3.99 2 4.98 2 6 2 C7.5625 4.8125 7.5625 4.8125 9 8 C8.67 8.99 8.34 9.98 8 11 C7.01 11.33 6.02 11.66 5 12 C2 5.375 2 5.375 2 2 C1.34 2 0.68 2 0 2 C0 1.34 0 0.68 0 0 Z " fill="#BAD62C" transform="translate(92,112)"/>
<path d="M0 0 C1.78136677 3.56273355 2.26313335 4.82395587 2.4140625 8.546875 C2.45273438 9.39121094 2.49140625 10.23554687 2.53125 11.10546875 C2.57765625 12.41451172 2.57765625 12.41451172 2.625 13.75 C2.66367188 14.63816406 2.70234375 15.52632812 2.7421875 16.44140625 C2.83620873 18.6273998 2.92186143 20.81339062 3 23 C2.01 23.33 1.02 23.66 0 24 C0 16.08 0 8.16 0 0 Z " fill="#5AA871" transform="translate(86,80)"/>
<path d="M0 0 C1.155 0.598125 2.31 1.19625 3.5 1.8125 C7.57729478 3.85842827 11.70587761 5.46638486 16 7 C16 7.33 16 7.66 16 8 C12.7 8 9.4 8 6 8 C6 7.34 6 6.68 6 6 C4.68 6 3.36 6 2 6 C0 3 0 3 0 0 Z " fill="#368239" transform="translate(202,0)"/>
<path d="M0 0 C0.66 0.33 1.32 0.66 2 1 C1.67 1.99 1.34 2.98 1 4 C1.66 4.66 2.32 5.32 3 6 C-0.20380017 8.13586678 -1.01939967 8.23132175 -4.6875 8.125 C-5.89986328 8.09792969 -5.89986328 8.09792969 -7.13671875 8.0703125 C-8.05904297 8.03550781 -8.05904297 8.03550781 -9 8 C-6.14723863 5.06799526 -3.34920216 2.35684596 0 0 Z " fill="#AFD262" transform="translate(109,119)"/>
<path d="M0 0 C0.33 0 0.66 0 1 0 C1.33 1.65 1.66 3.3 2 5 C6.10223585 6.01540112 6.10223585 6.01540112 10 5 C12.23601706 5.73288477 14.44171775 6.55990615 16.625 7.4375 C17.81351563 7.91058594 19.00203125 8.38367188 20.2265625 8.87109375 C21.14179688 9.24363281 22.05703125 9.61617187 23 10 C19.22134307 11.25955231 17.96588214 10.48087189 14.3125 9.0625 C13.31863281 8.68222656 12.32476562 8.30195312 11.30078125 7.91015625 C10.54152344 7.60980469 9.78226563 7.30945313 9 7 C9 7.66 9 8.32 9 9 C3.6 9.36 3.6 9.36 1.125 7.875 C-0.4682099 5.21965017 -0.20214032 3.03210482 0 0 Z " fill="#DD8B55" transform="translate(119,72)"/>
<path d="M0 0 C3.11140622 0.64373922 5.74422854 1.44055843 8.625 2.75 C8.625 3.08 8.625 3.41 8.625 3.75 C2.19 4.245 2.19 4.245 -4.375 4.75 C-4.375 4.09 -4.375 3.43 -4.375 2.75 C-5.035 2.42 -5.695 2.09 -6.375 1.75 C-3.375 -0.25 -3.375 -0.25 0 0 Z " fill="#CA6042" transform="translate(118.375,62.25)"/>
<path d="M0 0 C0.33 1.65 0.66 3.3 1 5 C-1.3125 5.625 -1.3125 5.625 -4 6 C-4.99 5.34 -5.98 4.68 -7 4 C-7 2.68 -7 1.36 -7 0 C-3.86650268 -1.04449911 -3.01031744 -0.93423645 0 0 Z " fill="#420F09" transform="translate(127,73)"/>
<path d="M0 0 C2.64 0 5.28 0 8 0 C7.67 1.65 7.34 3.3 7 5 C4.69 5.33 2.38 5.66 0 6 C0 4.02 0 2.04 0 0 Z " fill="#1BAEE7" transform="translate(95,62)"/>
<path d="M0 0 C6.8218683 -0.38614349 12.49577707 0.99134292 19 3 C15.75366476 5.1642235 14.75698557 5.37569856 11 5 C10.01 4.34 9.02 3.68 8 3 C5.95415921 2.33841957 5.95415921 2.33841957 3.8125 1.875 C2.554375 1.58625 1.29625 1.2975 0 1 C0 0.67 0 0.34 0 0 Z " fill="#13578E" transform="translate(16,170)"/>
<path d="M0 0 C0.33 0 0.66 0 1 0 C1.3383344 2.37438249 1.67079002 4.74934959 2 7.125 C2.09539062 7.79015625 2.19078125 8.4553125 2.2890625 9.140625 C2.83611453 13.12628981 3.10022182 16.97859938 3 21 C2.01 20.67 1.02 20.34 0 20 C-0.06058594 18.94039062 -0.12117188 17.88078125 -0.18359375 16.7890625 C-0.26800127 15.40102779 -0.35264917 14.01300768 -0.4375 12.625 C-0.47681641 11.92632812 -0.51613281 11.22765625 -0.55664062 10.5078125 C-0.74280134 6.62639508 -0.74280134 6.62639508 -2 3 C-1.34 2.01 -0.68 1.02 0 0 Z " fill="#33A3D9" transform="translate(90,59)"/>
<path d="M0 0 C1.32 0 2.64 0 4 0 C4.33 0.66 4.66 1.32 5 2 C5.99 1.67 6.98 1.34 8 1 C8.66 1.33 9.32 1.66 10 2 C10.33 1.34 10.66 0.68 11 0 C11.66 0 12.32 0 13 0 C13 0.99 13 1.98 13 3 C12.34 3 11.68 3 11 3 C11 3.99 11 4.98 11 6 C10.01 5.67 9.02 5.34 8 5 C6.60560336 4.93334624 5.20830125 4.91461801 3.8125 4.9375 C2.554375 4.958125 1.29625 4.97875 0 5 C0 3.35 0 1.7 0 0 Z " fill="#393766" transform="translate(43,10)"/>
<path d="M0 0 C3.4186857 0.41024228 6.56036896 0.84368674 9.8125 2 C14.15592683 3.36264371 18.4762537 3.66027202 23 4 C23 4.66 23 5.32 23 6 C7.51713648 5.30602312 7.51713648 5.30602312 1 2 C0.67 1.34 0.34 0.68 0 0 Z " fill="#4A745C" transform="translate(195,4)"/>
<path d="M0 0 C3 1 3 1 4.5703125 3.58203125 C5.33988281 5.18111328 5.33988281 5.18111328 6.125 6.8125 C6.64320313 7.87082031 7.16140625 8.92914063 7.6953125 10.01953125 C8.73132822 12.38623781 9.49976919 14.48054482 10 17 C9.01 17.33 8.02 17.66 7 18 C6.87882813 17.36191406 6.75765625 16.72382813 6.6328125 16.06640625 C6.46523437 15.24011719 6.29765625 14.41382813 6.125 13.5625 C5.88136719 12.32693359 5.88136719 12.32693359 5.6328125 11.06640625 C5.31957031 10.04353516 5.31957031 10.04353516 5 9 C4.34 8.67 3.68 8.34 3 8 C3 6.68 3 5.36 3 4 C2.01 3.67 1.02 3.34 0 3 C0 2.01 0 1.02 0 0 Z " fill="#308EBF" transform="translate(0,145)"/>
<path d="M0 0 C2.4375 0.8125 2.4375 0.8125 5 2 C5.33 2.99 5.66 3.98 6 5 C8.01508358 5.73323796 8.01508358 5.73323796 10 6 C9.67 7.32 9.34 8.64 9 10 C8.01 10 7.02 10 6 10 C4.61876037 8.03277992 3.28511874 6.03131672 2 4 C1.34 3.67 0.68 3.34 0 3 C0 2.01 0 1.02 0 0 Z " fill="#180E4D" transform="translate(148,72)"/>
<path d="M0 0 C2.4375 0.75 2.4375 0.75 5 2 C5.875 4 5.875 4 6 6 C5.67 6.66 5.34 7.32 5 8 C3.35 8 1.7 8 0 8 C0 5.36 0 2.72 0 0 Z " fill="#C8CD1E" transform="translate(87,106)"/>
<path d="M0 0 C3.22388187 0.93322896 4.66015657 1.41299771 6.375 4.375 C7.02532347 7.10635857 7.09828896 8.43732576 6 11 C5.01 11.495 5.01 11.495 4 12 C3.32645501 10.56570999 2.66140299 9.12742943 2 7.6875 C1.62875 6.88699219 1.2575 6.08648437 0.875 5.26171875 C0 3 0 3 0 0 Z " fill="#89AA34" transform="translate(229,12)"/>
<path d="M0 0 C-2.61089029 3.91633544 -4.79010673 4.93198225 -9 7 C-9.99 6.67 -10.98 6.34 -12 6 C-12 5.01 -12 4.02 -12 3 C-10.3789897 2.30314502 -8.75303934 1.61777139 -7.125 0.9375 C-6.22007813 0.55464844 -5.31515625 0.17179687 -4.3828125 -0.22265625 C-2 -1 -2 -1 0 0 Z " fill="#68BD3A" transform="translate(130,111)"/>
<path d="M0 0 C2.375 -0.125 2.375 -0.125 5 0 C7 2 7 2 7.4375 5 C7.623125 5.99 7.80875 6.98 8 8 C8.99 8.66 9.98 9.32 11 10 C10.34 10 9.68 10 9 10 C9 10.66 9 11.32 9 12 C6.03 11.505 6.03 11.505 3 11 C3.66 10.67 4.32 10.34 5 10 C5 8.02 5 6.04 5 4 C2.525 3.01 2.525 3.01 0 2 C0 1.34 0 0.68 0 0 Z " fill="#60AC59" transform="translate(122,100)"/>
<path d="M0 0 C0.33 0 0.66 0 1 0 C1 5.94 1 11.88 1 18 C0.67 18 0.34 18 0 18 C0 15.36 0 12.72 0 10 C-0.99 9.67 -1.98 9.34 -3 9 C-3 7.35 -3 5.7 -3 4 C-2.01 4 -1.02 4 0 4 C0 2.68 0 1.36 0 0 Z " fill="#2877B9" transform="translate(105,68)"/>
<path d="M0 0 C3.42754276 2.28502851 3.88441117 3.13834634 5 7 C5.07646165 9.3320802 5.09143299 11.66845878 5 14 C4.01 14 3.02 14 2 14 C1.34 9.38 0.68 4.76 0 0 Z " fill="#2BA33B" transform="translate(132,90)"/>
<path d="M0 0 C0.33 0 0.66 0 1 0 C1.83796731 4.65537393 2.0161692 8.37078475 1 13 C-0.32 13 -1.64 13 -3 13 C-3.33 10.36 -3.66 7.72 -4 5 C-3.34 5 -2.68 5 -2 5 C-2 5.66 -2 6.32 -2 7 C-1.34 7 -0.68 7 0 7 C0 4.69 0 2.38 0 0 Z " fill="#1482C5" transform="translate(104,81)"/>
<path d="M0 0 C2.01772471 1.67336636 2.91568943 2.58143159 3.44140625 5.19140625 C3.48136719 5.97386719 3.52132812 6.75632812 3.5625 7.5625 C3.66968944 11.22201338 3.66968944 11.22201338 6 14 C5.01 14.495 5.01 14.495 4 15 C2 14 2 14 1.3671875 12.109375 C0.51436547 8.02124399 -0.27121668 4.20385856 0 0 Z " fill="#2993CE" transform="translate(95,71)"/>
<path d="M0 0 C2.31 0 4.62 0 7 0 C7.33 0.99 7.66 1.98 8 3 C10.01508358 3.73323796 10.01508358 3.73323796 12 4 C12 4.99 12 5.98 12 7 C7.96479403 5.41037341 3.98188718 3.71767682 0 2 C0 1.34 0 0.68 0 0 Z " fill="#271B36" transform="translate(136,68)"/>
<path d="M0 0 C0.495 0.165 0.99 0.33 1.5 0.5 C6.6979446 1.53958892 11.87822809 1.28044298 17 0 C15.24382798 2.44336977 13.87982422 3.83210694 10.87109375 4.40625 C6.80835759 4.56688537 4.71544096 4.55839295 1.4375 2 C0.7259375 1.01 0.7259375 1.01 0 0 Z " fill="#76B166" transform="translate(92,105)"/>
<path d="M0 0 C0.66 0 1.32 0 2 0 C2 2.64 2 5.28 2 8 C1.01 8 0.02 8 -1 8 C-1.433125 7.0409375 -1.433125 7.0409375 -1.875 6.0625 C-2.82823451 3.84793921 -2.82823451 3.84793921 -5 3 C-5 2.34 -5 1.68 -5 1 C-3.68 1.33 -2.36 1.66 -1 2 C-0.67 1.34 -0.34 0.68 0 0 Z " fill="#F99634" transform="translate(146,88)"/>
<path d="M0 0 C0.66 0.33 1.32 0.66 2 1 C2 2.32 2 3.64 2 5 C1.34 5 0.68 5 0 5 C-0.33 5.99 -0.66 6.98 -1 8 C-3.0625 8.6875 -3.0625 8.6875 -5 9 C-5 7.35 -5 5.7 -5 4 C-3.35 3.67 -1.7 3.34 0 3 C0 2.01 0 1.02 0 0 Z " fill="#F07B1E" transform="translate(146,97)"/>
<path d="M0 0 C0.99 0 1.98 0 3 0 C3.144375 0.78375 3.28875 1.5675 3.4375 2.375 C3.87798925 4.96421018 3.87798925 4.96421018 5 7 C3.53932801 6.54917531 2.08151968 6.08906463 0.625 5.625 C-0.18710938 5.36976562 -0.99921875 5.11453125 -1.8359375 4.8515625 C-4 4 -4 4 -6 2 C-4.02 2 -2.04 2 0 2 C0 1.34 0 0.68 0 0 Z " fill="#F7802E" transform="translate(128,79)"/>
<path d="M0 0 C0.99 0 1.98 0 3 0 C3 4.29 3 8.58 3 13 C0.89172945 9.83759418 0.66182535 8.49342531 0.375 4.8125 C0.30023438 3.91144531 0.22546875 3.01039062 0.1484375 2.08203125 C0.09945312 1.39496094 0.05046875 0.70789063 0 0 Z " fill="#0EA7D2" transform="translate(97,68)"/>
<path d="M0 0 C1.32 0.33 2.64 0.66 4 1 C3.75 2.875 3.75 2.875 3 5 C1.1875 6.375 1.1875 6.375 -1 7 C-3.25 6.125 -3.25 6.125 -5 5 C-5 4.01 -5 3.02 -5 2 C-2.03 2.495 -2.03 2.495 1 3 C0.67 2.01 0.34 1.02 0 0 Z " fill="#3D3C6D" transform="translate(64,8)"/>
<path d="M0 0 C1.98 0.99 3.96 1.98 6 3 C5.67 3.99 5.34 4.98 5 6 C2.4375 7.1875 2.4375 7.1875 0 8 C0 5.36 0 2.72 0 0 Z " fill="#17B1E2" transform="translate(0,162)"/>
<path d="M0 0 C0.66 0.66 1.32 1.32 2 2 C0.23977508 3.53309913 -1.53353463 5.05118701 -3.3125 6.5625 C-4.79169922 7.83287109 -4.79169922 7.83287109 -6.30078125 9.12890625 C-7.19152344 9.74636719 -8.08226563 10.36382812 -9 11 C-9.99 10.67 -10.98 10.34 -12 10 C-8.25 7 -8.25 7 -6 7 C-5.67 5.68 -5.34 4.36 -5 3 C-4.360625 2.87625 -3.72125 2.7525 -3.0625 2.625 C-2.381875 2.41875 -1.70125 2.2125 -1 2 C-0.67 1.34 -0.34 0.68 0 0 Z " fill="#07141D" transform="translate(123,90)"/>
<path d="M0 0 C3.96 1.32 7.92 2.64 12 4 C11.67 4.99 11.34 5.98 11 7 C9.35 7.33 7.7 7.66 6 8 C5.67 7.01 5.34 6.02 5 5 C5.33 4.67 5.66 4.34 6 4 C4.02 3.34 2.04 2.68 0 2 C0 1.34 0 0.68 0 0 Z " fill="#0F133C" transform="translate(116,84)"/>
<path d="M0 0 C1.6286551 0.42369072 3.25287378 0.8644623 4.875 1.3125 C5.77992188 1.55613281 6.68484375 1.79976563 7.6171875 2.05078125 C10 3 10 3 12 6 C6.94744036 5.36843005 2.70406799 3.86540627 -2 2 C-1.34 1.34 -0.68 0.68 0 0 Z " fill="#43160F" transform="translate(142,80)"/>
<path d="M0 0 C10.55808656 -0.18451025 10.55808656 -0.18451025 15 1 C14.67 2.32 14.34 3.64 14 5 C13.0409375 4.566875 13.0409375 4.566875 12.0625 4.125 C8.11589708 2.6752275 4.1125393 1.84221938 0 1 C0 0.67 0 0.34 0 0 Z " fill="#041D55" transform="translate(103,52)"/>
<path d="M0 0 C1.65 0.33 3.3 0.66 5 1 C2.34345343 4.73884332 0.41889613 6.64978174 -4 8 C-5.32 6.68 -6.64 5.36 -8 4 C-6.02 4.66 -4.04 5.32 -2 6 C-0.99983813 3.99967627 -0.50603992 2.16874252 0 0 Z " fill="#C3DA5E" transform="translate(100,118)"/>
<path d="M0 0 C1.134375 0.020625 2.26875 0.04125 3.4375 0.0625 C3.4375 0.7225 3.4375 1.3825 3.4375 2.0625 C2.303125 2.454375 1.16875 2.84625 0 3.25 C-3.76589051 4.64860882 -3.76589051 4.64860882 -4.5 7.75 C-4.520625 8.513125 -4.54125 9.27625 -4.5625 10.0625 C-4.8925 10.0625 -5.2225 10.0625 -5.5625 10.0625 C-5.42200482 8.58281676 -5.27495174 7.10375484 -5.125 5.625 C-5.04378906 4.80128906 -4.96257812 3.97757813 -4.87890625 3.12890625 C-4.33318036 -0.43515544 -3.8167938 0.06696129 0 0 Z " fill="#05134D" transform="translate(96.5625,51.9375)"/>
<path d="M0 0 C-2.95183101 2.95183101 -5.95511947 3.08663988 -10 4 C-10 4.66 -10 5.32 -10 6 C-10.66 6 -11.32 6 -12 6 C-9.44133307 -0.18344509 -6.46845654 -1.61711413 0 0 Z " fill="#7EB859" transform="translate(126,111)"/>
<path d="M0 0 C0 3 0 3 -1.75 4.82421875 C-2.4925 5.43910156 -3.235 6.05398437 -4 6.6875 C-4.7425 7.31011719 -5.485 7.93273437 -6.25 8.57421875 C-6.8275 9.04472656 -7.405 9.51523438 -8 10 C-8.66 9.34 -9.32 8.68 -10 8 C-6.7 5.36 -3.4 2.72 0 0 Z " fill="#0B1F07" transform="translate(117,110)"/>
<path d="M0 0 C-0.33 1.32 -0.66 2.64 -1 4 C-1.66 4 -2.32 4 -3 4 C-3 3.34 -3 2.68 -3 2 C-5.64 2.33 -8.28 2.66 -11 3 C-7.22292518 -1.18176141 -5.06414757 -3.37609838 0 0 Z " fill="#76BF3E" transform="translate(116,106)"/>
<path d="M0 0 C1.11375 0.185625 2.2275 0.37125 3.375 0.5625 C6.82568861 1.31680657 6.82568861 1.31680657 9 0 C8.67 1.65 8.34 3.3 8 5 C7.34 5 6.68 5 6 5 C6 4.34 6 3.68 6 3 C5.34 3 4.68 3 4 3 C4 3.99 4 4.98 4 6 C3.34 6 2.68 6 2 6 C2 5.34 2 4.68 2 4 C1.34 4 0.68 4 0 4 C0 2.68 0 1.36 0 0 Z " fill="#1D7BB3" transform="translate(92,92)"/>
<path d="M0 0 C0 4.66308524 -1.50118011 8.60346167 -3 13 C-3.66 13 -4.32 13 -5 13 C-5.24046853 8.91203491 -4.59442789 5.77627657 -3 2 C-2.01 1.34 -1.02 0.68 0 0 Z " fill="#DB5845" transform="translate(111,65)"/>
<path d="M0 0 C0.33 0.66 0.66 1.32 1 2 C-1.63848309 5.61569905 -3.95293333 8.02835214 -8 10 C-8.99 10 -9.98 10 -11 10 C-11 9.34 -11 8.68 -11 8 C-10.195625 7.71125 -9.39125 7.4225 -8.5625 7.125 C-5.8673532 6.26737432 -5.8673532 6.26737432 -5 4 C-4.01 3.67 -3.02 3.34 -2 3 C-1.34 2.01 -0.68 1.02 0 0 Z " fill="#E79762" transform="translate(151,98)"/>
<path d="M0 0 C0.33 0 0.66 0 1 0 C1.08131463 1.43655854 1.13933559 2.8744483 1.1875 4.3125 C1.22230469 5.11300781 1.25710937 5.91351563 1.29296875 6.73828125 C0.93801608 9.47851584 0.10633718 10.29171079 -2 12 C-2.66 11.67 -3.32 11.34 -4 11 C-3.67 9.35 -3.34 7.7 -3 6 C-2.01 6 -1.02 6 0 6 C0 4.02 0 2.04 0 0 Z " fill="#539033" transform="translate(137,98)"/>
<path d="M0 0 C0.66 0.66 1.32 1.32 2 2 C0.02 2.99 -1.96 3.98 -4 5 C-4 5.66 -4 6.32 -4 7 C-5.98 7.99 -7.96 8.98 -10 10 C-9.65514457 7.1157546 -9.21744593 6.1792182 -6.93359375 4.296875 C-6.10988281 3.78640625 -5.28617187 3.2759375 -4.4375 2.75 C-3.61121094 2.22921875 -2.78492187 1.7084375 -1.93359375 1.171875 C-1.29550781 0.78515625 -0.65742188 0.3984375 0 0 Z " fill="#3C8750" transform="translate(130,88)"/>
<path d="M0 0 C2.475 0.99 2.475 0.99 5 2 C5 2.66 5 3.32 5 4 C5.66 4.66 6.32 5.32 7 6 C6.01 6.66 5.02 7.32 4 8 C0 3.375 0 3.375 0 0 Z " fill="#E27626" transform="translate(135,87)"/>
<path d="M0 0 C0.66 0 1.32 0 2 0 C2.66 1.98 3.32 3.96 4 6 C3.34 6 2.68 6 2 6 C2 7.98 2 9.96 2 12 C1.67 12 1.34 12 1 12 C0.01751476 7.9472484 -0.08159574 4.16138263 0 0 Z " fill="#1592BD" transform="translate(87,77)"/>
<path d="M0 0 C1.67542976 0.28604898 3.34385343 0.61781233 5 1 C4.34 2.32 3.68 3.64 3 5 C1.35 4.67 -0.3 4.34 -2 4 C-1 1 -1 1 0 0 Z " fill="#F6872B" transform="translate(134,71)"/>
<path d="M0 0 C1.32 0 2.64 0 4 0 C3.690625 0.5775 3.38125 1.155 3.0625 1.75 C2.07416636 3.84294184 1.4831387 5.74535275 1 8 C0.01 8 -0.98 8 -2 8 C-2 6.68 -2 5.36 -2 4 C-1.34 4 -0.68 4 0 4 C0 2.68 0 1.36 0 0 Z " fill="#1588EB" transform="translate(104,64)"/>
<path d="M0 0 C6.98629919 -0.50604984 11.20200116 -0.0333905 17 4 C15.3125 4.6875 15.3125 4.6875 13 5 C12.2575 4.54625 11.515 4.0925 10.75 3.625 C7.09853184 1.46731427 4.205974 1.35643847 0 1 C0 0.67 0 0.34 0 0 Z " fill="#3C9AD9" transform="translate(100,53)"/>
<path d="M0 0 C1.32 0.33 2.64 0.66 4 1 C4 1.66 4 2.32 4 3 C3.01 3 2.02 3 1 3 C1 3.66 1 4.32 1 5 C-0.32 5.33 -1.64 5.66 -3 6 C-3 4.68 -3 3.36 -3 2 C-2.01 2 -1.02 2 0 2 C0 1.34 0 0.68 0 0 Z " fill="#88CC36" transform="translate(113,118)"/>
<path d="M0 0 C0.33 0.99 0.66 1.98 1 3 C0.34 3 -0.32 3 -1 3 C-1 3.66 -1 4.32 -1 5 C-6.2734375 8.22265625 -6.2734375 8.22265625 -8 9 C-8.66 8.67 -9.32 8.34 -10 8 C-6.7 5.36 -3.4 2.72 0 0 Z " fill="#659A59" transform="translate(119,96)"/>
<path d="M0 0 C0.33 0 0.66 0 1 0 C1.07054912 3.03361223 1.04708519 5.76980572 0.4375 8.75 C-0.24197896 11.02413438 -0.24197896 11.02413438 1 13 C-0.32 12.67 -1.64 12.34 -3 12 C-3.125 9.625 -3.125 9.625 -3 7 C-2.34 6.34 -1.68 5.68 -1 5 C-0.35232207 2.42938689 -0.35232207 2.42938689 0 0 Z " fill="#011A4D" transform="translate(95,80)"/>
<path d="M0 0 C0 0.99 0 1.98 0 3 C0.99 3.33 1.98 3.66 3 4 C3 4.33 3 4.66 3 5 C-2.75 5.125 -2.75 5.125 -5 4 C-5 3.34 -5 2.68 -5 2 C-2 0 -2 0 0 0 Z " fill="#EA6935" transform="translate(113,75)"/>
<path d="M0 0 C2.5 -0.3125 2.5 -0.3125 5 0 C5.66 0.66 6.32 1.32 7 2 C6.625 4.125 6.625 4.125 6 6 C5.34 5.01 4.68 4.02 4 3 C0.91634129 2.7497843 0.91634129 2.7497843 -2 3 C-1.34 2.01 -0.68 1.02 0 0 Z " fill="#390C0B" transform="translate(122,70)"/>
<path d="M0 0 C-1.33332095 3.99996286 -3.4957827 4.83782337 -7 7 C-7.66 6.34 -8.32 5.68 -9 5 C-3.375 0 -3.375 0 0 0 Z " fill="#1F2C13" transform="translate(108,119)"/>
<path d="M0 0 C2.0625 1.6875 2.0625 1.6875 4 4 C3.75 6.75 3.75 6.75 3 9 C0.90250005 6.64031256 0.03094296 5.45383006 -0.1875 2.25 C-0.125625 1.5075 -0.06375 0.765 0 0 Z " fill="#067EC0" transform="translate(89,92)"/>
<path d="M0 0 C0.66 0 1.32 0 2 0 C2 0.66 2 1.32 2 2 C2.66 2 3.32 2 4 2 C4.33 2.99 4.66 3.98 5 5 C6.99665314 6.68538601 6.99665314 6.68538601 9 8 C6.69 7.67 4.38 7.34 2 7 C1.34 4.69 0.68 2.38 0 0 Z " fill="#0A1537" transform="translate(187,0)"/>
<path d="M0 0 C4.62609198 -0.3227506 7.28026121 0.15549386 11 3 C11 3.66 11 4.32 11 5 C9.35 4.67 7.7 4.34 6 4 C6 3.34 6 2.68 6 2 C3.03 1.505 3.03 1.505 0 1 C0 0.67 0 0.34 0 0 Z " fill="#0C70AA" transform="translate(18,172)"/>
<path d="M0 0 C1.98 0.495 1.98 0.495 4 1 C3.67 2.32 3.34 3.64 3 5 C1.68 4.67 0.36 4.34 -1 4 C-0.67 2.68 -0.34 1.36 0 0 Z " fill="#569B6D" transform="translate(122,104)"/>
<path d="M0 0 C0.33 1.32 0.66 2.64 1 4 C-1.64 4 -4.28 4 -7 4 C-3.375 0 -3.375 0 0 0 Z " fill="#37AE43" transform="translate(132,90)"/>
<path d="M0 0 C1.98 0.495 1.98 0.495 4 1 C3.67 2.32 3.34 3.64 3 5 C1.68 4.67 0.36 4.34 -1 4 C-0.67 2.68 -0.34 1.36 0 0 Z " fill="#33619F" transform="translate(95,87)"/>
<path d="M0 0 C2.31 0.33 4.62 0.66 7 1 C7 1.66 7 2.32 7 3 C7.66 3 8.32 3 9 3 C9 3.66 9 4.32 9 5 C5.12867972 4.42647107 2.91827204 2.51295648 0 0 Z " fill="#071950" transform="translate(44,175)"/>
<path d="M0 0 C3.3 0 6.6 0 10 0 C6 3 6 3 3.3125 2.8125 C1 2 1 2 0 0 Z " fill="#94BD2D" transform="translate(97,109)"/>
<path d="M0 0 C1.98 0.495 1.98 0.495 4 1 C3.67 2.32 3.34 3.64 3 5 C1.68 4.67 0.36 4.34 -1 4 C-0.67 2.68 -0.34 1.36 0 0 Z " fill="#C47869" transform="translate(123,72)"/>
<path d="M0 0 C2.3431213 0.25561323 4.67843403 0.59270772 7 1 C7.33 1.66 7.66 2.32 8 3 C4.7 3 1.4 3 -2 3 C-1.34 2.67 -0.68 2.34 0 2 C0 1.34 0 0.68 0 0 Z " fill="#BF7056" transform="translate(119,63)"/>
<path d="M0 0 C-0.6875 1.9375 -0.6875 1.9375 -2 4 C-4.625 4.75 -4.625 4.75 -7 5 C-7 4.34 -7 3.68 -7 3 C-4.4385343 0.70351351 -3.52032428 0 0 0 Z " fill="#A09954" transform="translate(128,114)"/>
<path d="M0 0 C0.66 0 1.32 0 2 0 C2.33 0.99 2.66 1.98 3 3 C1.02 3.99 -0.96 4.98 -3 6 C-3 4.68 -3 3.36 -3 2 C-2.01 2 -1.02 2 0 2 C0 1.34 0 0.68 0 0 Z " fill="#AB7D4D" transform="translate(131,110)"/>
<path d="M0 0 C3.465 1.98 3.465 1.98 7 4 C4.39417629 4.93065133 3.35801776 5.14917407 0.75 4.0625 C0.1725 3.711875 -0.405 3.36125 -1 3 C-0.67 2.01 -0.34 1.02 0 0 Z " fill="#AED03C" transform="translate(88,103)"/>
<path d="M0 0 C2.97 0.495 2.97 0.495 6 1 C5.01 2.485 5.01 2.485 4 4 C2.35 3.67 0.7 3.34 -1 3 C-0.67 2.01 -0.34 1.02 0 0 Z " fill="#E98D2B" transform="translate(131,80)"/>
<path d="M0 0 C2.31 0 4.62 0 7 0 C7 0.66 7 1.32 7 2 C8.32 2.66 9.64 3.32 11 4 C9.53984709 3.71758359 8.08190207 3.42373386 6.625 3.125 C5.81289062 2.96257812 5.00078125 2.80015625 4.1640625 2.6328125 C2 2 2 2 0 0 Z " fill="#E09652" transform="translate(136,77)"/>
<path d="M0 0 C2.4375 0.75 2.4375 0.75 5 2 C5.8125 4.125 5.8125 4.125 6 6 C4.02 5.34 2.04 4.68 0 4 C0 2.68 0 1.36 0 0 Z " fill="#C5C528" transform="translate(87,106)"/>
<path d="M0 0 C2.97 0.495 2.97 0.495 6 1 C5.67 1.66 5.34 2.32 5 3 C2.67843403 3.40729228 0.3431213 3.74438677 -2 4 C-1.34 2.68 -0.68 1.36 0 0 Z " fill="#59B846" transform="translate(121,97)"/>
<path d="M0 0 C0.66 0.33 1.32 0.66 2 1 C2 3.31 2 5.62 2 8 C1.34 8 0.68 8 0 8 C-0.33 8.66 -0.66 9.32 -1 10 C-0.67 6.7 -0.34 3.4 0 0 Z " fill="#1B1317" transform="translate(155,86)"/>
<path d="M0 0 C1.98 0.495 1.98 0.495 4 1 C4 1.66 4 2.32 4 3 C3.34 3.66 2.68 4.32 2 5 C1.01 5 0.02 5 -1 5 C-0.67 3.35 -0.34 1.7 0 0 Z " fill="#FE9C2A" transform="translate(149,89)"/>
<path d="M0 0 C2.97 0.495 2.97 0.495 6 1 C5.67 1.99 5.34 2.98 5 4 C3.0625 3.6875 3.0625 3.6875 1 3 C0.67 2.01 0.34 1.02 0 0 Z " fill="#12102E" transform="translate(119,56)"/>
<path d="M0 0 C2.60608273 2.5162178 4.89381685 5.05134359 7 8 C4 8 4 8 2.375 6.8125 C0.68587944 4.58593199 0.37047118 2.74148672 0 0 Z " fill="#0F1418" transform="translate(233,29)"/>
<path d="M0 0 C1 3 1 3 1 5 C1.66 5 2.32 5 3 5 C2.67 5.66 2.34 6.32 2 7 C1.34 7 0.68 7 0 7 C0 6.01 0 5.02 0 4 C-0.99 4 -1.98 4 -3 4 C-3 3.01 -3 2.02 -3 1 C-2.01 0.67 -1.02 0.34 0 0 Z " fill="#353461" transform="translate(19,9)"/>
<path d="M0 0 C3.25 0.8125 3.25 0.8125 6 2 C6 2.33 6 2.66 6 3 C2.7 3 -0.6 3 -4 3 C-2.68 2.01 -1.36 1.02 0 0 Z " fill="#4A8139" transform="translate(212,5)"/>
<path d="M0 0 C1.9375 0.3125 1.9375 0.3125 4 1 C4.33 1.99 4.66 2.98 5 4 C4.01 4.66 3.02 5.32 2 6 C2 5.01 2 4.02 2 3 C1.01 2.67 0.02 2.34 -1 2 C-0.67 1.34 -0.34 0.68 0 0 Z " fill="#82C832" transform="translate(109,107)"/>
<path d="M0 0 C0.66 0.33 1.32 0.66 2 1 C1.01 2.485 1.01 2.485 0 4 C0.66 4.33 1.32 4.66 2 5 C0.35 5.66 -1.3 6.32 -3 7 C-2.625 4.0625 -2.625 4.0625 -2 1 C-1.34 0.67 -0.68 0.34 0 0 Z " fill="#0D1A3F" transform="translate(111,97)"/>
<path d="M0 0 C4.875 2.625 4.875 2.625 6 6 C4.68 6.33 3.36 6.66 2 7 C2 5.68 2 4.36 2 3 C1.34 2.67 0.68 2.34 0 2 C0 1.34 0 0.68 0 0 Z " fill="#D8982E" transform="translate(144,75)"/>
<path d="M0 0 C0.33 0 0.66 0 1 0 C1 2.31 1 4.62 1 7 C0.01 6.67 -0.98 6.34 -2 6 C-2.6875 3.9375 -2.6875 3.9375 -3 2 C-2.34 2 -1.68 2 -1 2 C-0.67 1.34 -0.34 0.68 0 0 Z " fill="#97AB54" transform="translate(239,29)"/>
</svg>
